<svg width="122" height="61" viewBox="0 0 122 61" fill="none" xmlns="http://www.w3.org/2000/svg">
<path d="M34.1 29.0933L25.9777 23.0016C24.9737 22.2486 23.541 22.965 23.541 24.2199V36.4034C23.541 37.6583 24.9737 38.3747 25.9777 37.6217L34.1 31.53C34.9122 30.9208 34.9122 29.7025 34.1 29.0933Z" fill="white"/>
<path d="M59.9598 27.9357H58.4845C58.3972 27.5113 58.2446 27.1385 58.0264 26.8172C57.8123 26.496 57.5505 26.2263 57.2412 26.0082C56.9358 25.7861 56.5967 25.6195 56.2239 25.5085C55.8511 25.3974 55.4624 25.3419 55.0579 25.3419C54.3202 25.3419 53.652 25.5283 53.0531 25.9011C52.4582 26.2739 51.9843 26.8232 51.6313 27.549C51.2823 28.2747 51.1078 29.1651 51.1078 30.22C51.1078 31.275 51.2823 32.1654 51.6313 32.8911C51.9843 33.6169 52.4582 34.1662 53.0531 34.539C53.652 34.9118 54.3202 35.0982 55.0579 35.0982C55.4624 35.0982 55.8511 35.0427 56.2239 34.9316C56.5967 34.8206 56.9358 34.656 57.2412 34.4378C57.5505 34.2158 57.8123 33.9441 58.0264 33.6228C58.2446 33.2976 58.3972 32.9248 58.4845 32.5044H59.9598C59.8488 33.1271 59.6465 33.6843 59.353 34.1761C59.0596 34.6679 58.6947 35.0863 58.2584 35.4313C57.8222 35.7724 57.3324 36.0322 56.789 36.2106C56.2497 36.3891 55.6726 36.4783 55.0579 36.4783C54.0188 36.4783 53.0947 36.2245 52.2857 35.7169C51.4766 35.2092 50.8401 34.4874 50.3761 33.5515C49.9121 32.6155 49.6801 31.505 49.6801 30.22C49.6801 28.9351 49.9121 27.8246 50.3761 26.8886C50.8401 25.9527 51.4766 25.2309 52.2857 24.7232C53.0947 24.2156 54.0188 23.9618 55.0579 23.9618C55.6726 23.9618 56.2497 24.051 56.789 24.2295C57.3324 24.4079 57.8222 24.6697 58.2584 25.0147C58.6947 25.3558 59.0596 25.7722 59.353 26.264C59.6465 26.7518 59.8488 27.309 59.9598 27.9357ZM62.8436 36.3118H61.2969L65.7705 24.1283H67.2934L71.767 36.3118H70.2203L66.5795 26.0558H66.4843L62.8436 36.3118ZM63.4147 31.5526H69.6492V32.8614H63.4147V31.5526ZM83.3258 24.1283V36.3118H81.8981L75.259 26.7459H75.1401V36.3118H73.6647V24.1283H75.0925L81.7553 33.718H81.8743V24.1283H83.3258ZM86.278 36.3118V24.1283H87.7533V35.003H93.4167V36.3118H86.278ZM97.1764 24.1283V36.3118H95.7011V24.1283H97.1764Z" fill="white"/>
</svg>
