<svg width="206" height="61" viewBox="0 0 206 61" fill="none" xmlns="http://www.w3.org/2000/svg">
<path fill-rule="evenodd" clip-rule="evenodd" d="M38.0381 41.8618C44.417 41.8618 49.5881 36.6907 49.5881 30.3118C49.5881 23.933 44.417 18.7619 38.0381 18.7619C31.6593 18.7619 26.4882 23.933 26.4882 30.3118C26.4882 36.6907 31.6593 41.8618 38.0381 41.8618ZM38.0381 44.7797C46.0285 44.7797 52.506 38.3022 52.506 30.3118C52.506 22.3215 46.0285 15.844 38.0381 15.844C30.0478 15.844 23.5703 22.3215 23.5703 30.3118C23.5703 38.3022 30.0478 44.7797 38.0381 44.7797Z" fill="white"/>
<path fill-rule="evenodd" clip-rule="evenodd" d="M37.0385 23.1914C36.265 23.2964 35.5306 23.5247 34.8558 23.856L34.003 22.3789C34.9326 21.9074 35.9563 21.5947 37.0385 21.4766V23.1914ZM40.7819 23.68C40.0712 23.3823 39.3025 23.1957 38.4975 23.142V21.4368C39.6116 21.4968 40.671 21.7622 41.6387 22.1959L40.7819 23.68ZM43.7864 26.042C43.3093 25.396 42.7264 24.8329 42.0633 24.3783L42.9165 22.9005C43.8348 23.5104 44.633 24.2868 45.2682 25.1865L43.7864 26.042ZM45.1548 29.6295C45.0783 28.8036 44.8619 28.0184 44.5294 27.2976L46.0088 26.4435C46.4802 27.4194 46.7782 28.4947 46.8628 29.6295H45.1548ZM44.485 33.3947C44.826 32.6831 45.0531 31.9064 45.1426 31.0885H46.8531C46.7537 32.2153 46.4438 33.2817 45.9629 34.248L44.485 33.3947ZM42.0135 36.2535C42.6683 35.8126 43.2463 35.2667 43.7236 34.6398L45.2074 35.4965C44.5707 36.3763 43.7766 37.1348 42.8663 37.7305L42.0135 36.2535ZM38.4975 37.456C39.2815 37.4036 40.0309 37.2253 40.7259 36.9411L41.5835 38.4265C40.6308 38.8457 39.5904 39.1023 38.4975 39.1612V37.456ZM34.91 36.7683C35.5698 37.0853 36.2856 37.3043 37.0385 37.4065V39.1214C35.9771 39.0055 34.972 38.7025 34.0567 38.2461L34.91 36.7683ZM32.1558 34.4416C32.5771 35.0362 33.0868 35.5639 33.6657 36.0055L32.8089 37.4895C31.9779 36.8871 31.2555 36.1442 30.6764 35.2957L32.1558 34.4416ZM30.8823 31.0885C30.9626 31.8217 31.1534 32.5217 31.4376 33.1715L29.9558 34.027C29.5354 33.12 29.2637 32.1301 29.1719 31.0885H30.8823ZM31.3964 27.5227C31.1199 28.1808 30.9387 28.8888 30.8702 29.6295H29.1621C29.2404 28.5803 29.501 27.5819 29.9125 26.6659L31.3964 27.5227ZM32.096 26.242C32.5172 25.6289 33.0312 25.0846 33.6177 24.6294L32.7601 23.144C31.9217 23.7605 31.1956 24.5209 30.6181 25.3887L32.096 26.242Z" fill="white"/>
<path fill-rule="evenodd" clip-rule="evenodd" d="M41.5651 27.3957C41.5651 27.7324 41.2922 28.0053 40.9555 28.0053C40.8702 28.0053 40.7889 27.9877 40.7152 27.9561L39.3385 29.3327C39.5138 29.5735 39.6172 29.8699 39.6172 30.1905C39.6172 30.5056 39.5173 30.7974 39.3474 31.0359L40.7322 32.4207C40.8014 32.3935 40.8767 32.3786 40.9555 32.3786C41.2922 32.3786 41.5651 32.6515 41.5651 32.9881C41.5651 33.3248 41.2922 33.5977 40.9555 33.5977C40.6189 33.5977 40.346 33.3248 40.346 32.9881C40.346 32.9092 40.3609 32.8338 40.3882 32.7646L39.0034 31.3798C38.7649 31.5496 38.4732 31.6495 38.1581 31.6495C37.8376 31.6495 37.5411 31.5461 37.3004 31.3709L35.9251 32.7462C35.9572 32.8203 35.975 32.9021 35.975 32.9881C35.975 33.3248 35.7021 33.5977 35.3654 33.5977C35.0288 33.5977 34.7559 33.3248 34.7559 32.9881C34.7559 32.6515 35.0288 32.3786 35.3654 32.3786C35.4371 32.3786 35.5059 32.3909 35.5697 32.4136L36.96 31.0233C36.7955 30.7872 36.6991 30.5001 36.6991 30.1905C36.6991 29.8754 36.799 29.5836 36.9688 29.3452L35.5873 27.9637C35.5186 27.9906 35.4438 28.0053 35.3656 28.0053C35.0289 28.0053 34.756 27.7324 34.756 27.3957C34.756 27.0591 35.0289 26.7862 35.3656 26.7862C35.7022 26.7862 35.9752 27.0591 35.9752 27.3957C35.9752 27.4752 35.9599 27.5512 35.9323 27.6208L37.3127 29.0012C37.5512 28.8313 37.843 28.7314 38.1581 28.7314C38.4677 28.7314 38.7548 28.8279 38.991 28.9923L40.3816 27.6017C40.3585 27.5374 40.346 27.468 40.346 27.3957C40.346 27.059 40.6189 26.7861 40.9555 26.7861C41.2922 26.7861 41.5651 27.059 41.5651 27.3957Z" fill="white"/>
<path d="M75.3625 27.9357H73.8871C73.7999 27.5113 73.6472 27.1385 73.4291 26.8172C73.2149 26.496 72.9532 26.2263 72.6438 26.0082C72.3384 25.7861 71.9993 25.6195 71.6265 25.5085C71.2537 25.3974 70.8651 25.3419 70.4606 25.3419C69.7229 25.3419 69.0546 25.5283 68.4558 25.9011C67.8609 26.2739 67.3869 26.8232 67.034 27.549C66.685 28.2747 66.5105 29.1651 66.5105 30.22C66.5105 31.275 66.685 32.1654 67.034 32.8911C67.3869 33.6169 67.8609 34.1662 68.4558 34.539C69.0546 34.9118 69.7229 35.0982 70.4606 35.0982C70.8651 35.0982 71.2537 35.0427 71.6265 34.9316C71.9993 34.8206 72.3384 34.656 72.6438 34.4378C72.9532 34.2158 73.2149 33.9441 73.4291 33.6228C73.6472 33.2976 73.7999 32.9248 73.8871 32.5044H75.3625C75.2514 33.1271 75.0492 33.6843 74.7557 34.1761C74.4622 34.6679 74.0973 35.0863 73.6611 35.4313C73.2248 35.7724 72.735 36.0322 72.1917 36.2106C71.6523 36.3891 71.0753 36.4783 70.4606 36.4783C69.4215 36.4783 68.4974 36.2245 67.6883 35.7169C66.8793 35.2092 66.2427 34.4874 65.7787 33.5515C65.3147 32.6155 65.0827 31.505 65.0827 30.22C65.0827 28.9351 65.3147 27.8246 65.7787 26.8886C66.2427 25.9527 66.8793 25.2309 67.6883 24.7232C68.4974 24.2156 69.4215 23.9618 70.4606 23.9618C71.0753 23.9618 71.6523 24.051 72.1917 24.2295C72.735 24.4079 73.2248 24.6697 73.6611 25.0147C74.0973 25.3558 74.4622 25.7722 74.7557 26.264C75.0492 26.7518 75.2514 27.309 75.3625 27.9357ZM78.2462 36.3118H76.6995L81.1731 24.1283H82.696L87.1697 36.3118H85.6229L81.9822 26.0558H81.887L78.2462 36.3118ZM78.8173 31.5526H85.0518V32.8614H78.8173V31.5526ZM98.7285 24.1283V36.3118H97.3007L90.6617 26.7459H90.5427V36.3118H89.0674V24.1283H90.4951L97.1579 33.718H97.2769V24.1283H98.7285ZM101.681 36.3118V24.1283H103.156V35.003H108.819V36.3118H101.681ZM112.579 24.1283V36.3118H111.104V24.1283H112.579ZM130.053 27.9357H128.577C128.49 27.5113 128.337 27.1385 128.119 26.8172C127.905 26.496 127.643 26.2263 127.334 26.0082C127.029 25.7861 126.689 25.6195 126.317 25.5085C125.944 25.3974 125.555 25.3419 125.151 25.3419C124.413 25.3419 123.745 25.5283 123.146 25.9011C122.551 26.2739 122.077 26.8232 121.724 27.549C121.375 28.2747 121.201 29.1651 121.201 30.22C121.201 31.275 121.375 32.1654 121.724 32.8911C122.077 33.6169 122.551 34.1662 123.146 34.539C123.745 34.9118 124.413 35.0982 125.151 35.0982C125.555 35.0982 125.944 35.0427 126.317 34.9316C126.689 34.8206 127.029 34.656 127.334 34.4378C127.643 34.2158 127.905 33.9441 128.119 33.6228C128.337 33.2976 128.49 32.9248 128.577 32.5044H130.053C129.942 33.1271 129.739 33.6843 129.446 34.1761C129.152 34.6679 128.787 35.0863 128.351 35.4313C127.915 35.7724 127.425 36.0322 126.882 36.2106C126.342 36.3891 125.765 36.4783 125.151 36.4783C124.112 36.4783 123.188 36.2245 122.378 35.7169C121.569 35.2092 120.933 34.4874 120.469 33.5515C120.005 32.6155 119.773 31.505 119.773 30.22C119.773 28.9351 120.005 27.8246 120.469 26.8886C120.933 25.9527 121.569 25.2309 122.378 24.7232C123.188 24.2156 124.112 23.9618 125.151 23.9618C125.765 23.9618 126.342 24.051 126.882 24.2295C127.425 24.4079 127.915 24.6697 128.351 25.0147C128.787 25.3558 129.152 25.7722 129.446 26.264C129.739 26.7518 129.942 27.309 130.053 27.9357ZM132.936 36.3118H131.39L135.863 24.1283H137.386L141.86 36.3118H140.313L136.672 26.0558H136.577L132.936 36.3118ZM133.507 31.5526H139.742V32.8614H133.507V31.5526ZM150.42 27.1742C150.349 26.5714 150.059 26.1034 149.552 25.7702C149.044 25.4371 148.421 25.2705 147.684 25.2705C147.144 25.2705 146.672 25.3578 146.268 25.5323C145.867 25.7068 145.554 25.9467 145.328 26.2521C145.106 26.5575 144.995 26.9045 144.995 27.2932C144.995 27.6184 145.072 27.898 145.227 28.132C145.386 28.362 145.588 28.5543 145.834 28.709C146.08 28.8597 146.337 28.9846 146.607 29.0838C146.877 29.179 147.125 29.2563 147.351 29.3158L148.588 29.6489C148.905 29.7322 149.258 29.8472 149.647 29.994C150.04 30.1407 150.414 30.341 150.771 30.5948C151.132 30.8447 151.43 31.1659 151.664 31.5586C151.898 31.9512 152.015 32.4331 152.015 33.0042C152.015 33.6625 151.842 34.2574 151.497 34.7888C151.156 35.3203 150.656 35.7427 149.998 36.056C149.344 36.3693 148.548 36.5259 147.612 36.5259C146.74 36.5259 145.984 36.3851 145.346 36.1036C144.711 35.822 144.212 35.4293 143.847 34.9257C143.486 34.422 143.282 33.837 143.234 33.1707H144.757C144.797 33.6308 144.951 34.0115 145.221 34.3129C145.495 34.6104 145.84 34.8325 146.256 34.9792C146.676 35.122 147.129 35.1934 147.612 35.1934C148.176 35.1934 148.681 35.1021 149.129 34.9197C149.578 34.7333 149.933 34.4755 150.194 34.1464C150.456 33.8132 150.587 33.4245 150.587 32.9804C150.587 32.5758 150.474 32.2467 150.248 31.9928C150.022 31.739 149.724 31.5328 149.355 31.3741C148.987 31.2155 148.588 31.0767 148.16 30.9577L146.661 30.5294C145.709 30.2557 144.955 29.8651 144.4 29.3574C143.845 28.8498 143.567 28.1855 143.567 27.3646C143.567 26.6824 143.752 26.0875 144.12 25.5799C144.493 25.0683 144.993 24.6717 145.62 24.3901C146.25 24.1045 146.954 23.9618 147.731 23.9618C148.517 23.9618 149.215 24.1025 149.825 24.3841C150.436 24.6617 150.92 25.0425 151.277 25.5263C151.638 26.0102 151.828 26.5595 151.848 27.1742H150.42ZM155.916 24.1283V36.3118H154.44V24.1283H155.916ZM168.535 24.1283V36.3118H167.107L160.468 26.7459H160.349V36.3118H158.874V24.1283H160.302L166.964 33.718H167.083V24.1283H168.535ZM181.767 30.22C181.767 31.505 181.535 32.6155 181.071 33.5515C180.607 34.4874 179.97 35.2092 179.161 35.7169C178.352 36.2245 177.428 36.4783 176.389 36.4783C175.35 36.4783 174.426 36.2245 173.617 35.7169C172.808 35.2092 172.171 34.4874 171.707 33.5515C171.243 32.6155 171.011 31.505 171.011 30.22C171.011 28.9351 171.243 27.8246 171.707 26.8886C172.171 25.9527 172.808 25.2309 173.617 24.7232C174.426 24.2156 175.35 23.9618 176.389 23.9618C177.428 23.9618 178.352 24.2156 179.161 24.7232C179.97 25.2309 180.607 25.9527 181.071 26.8886C181.535 27.8246 181.767 28.9351 181.767 30.22ZM180.339 30.22C180.339 29.1651 180.163 28.2747 179.81 27.549C179.461 26.8232 178.987 26.2739 178.388 25.9011C177.793 25.5283 177.127 25.3419 176.389 25.3419C175.651 25.3419 174.983 25.5283 174.384 25.9011C173.789 26.2739 173.315 26.8232 172.962 27.549C172.613 28.2747 172.439 29.1651 172.439 30.22C172.439 31.275 172.613 32.1654 172.962 32.8911C173.315 33.6169 173.789 34.1662 174.384 34.539C174.983 34.9118 175.651 35.0982 176.389 35.0982C177.127 35.0982 177.793 34.9118 178.388 34.539C178.987 34.1662 179.461 33.6169 179.81 32.8911C180.163 32.1654 180.339 31.275 180.339 30.22Z" fill="white"/>
</svg>
