<svg width="170" height="61" viewBox="0 0 170 61" fill="none" xmlns="http://www.w3.org/2000/svg">
<path fill-rule="evenodd" clip-rule="evenodd" d="M57.664 23.7675H24.8683C24.5533 23.7675 24.298 24.0228 24.298 24.3378V39.7375C24.298 40.0525 24.5533 40.3079 24.8683 40.3079H57.664C57.979 40.3079 58.2344 40.0525 58.2344 39.7375V24.3378C58.2344 24.0228 57.979 23.7675 57.664 23.7675ZM24.8683 22.3416C23.7658 22.3416 22.8721 23.2353 22.8721 24.3378V39.7375C22.8721 40.84 23.7658 41.7338 24.8683 41.7338H57.664C58.7665 41.7338 59.6603 40.84 59.6603 39.7375V24.3378C59.6603 23.2353 58.7665 22.3416 57.664 22.3416H24.8683Z" fill="white"/>
<path fill-rule="evenodd" clip-rule="evenodd" d="M27.0564 25.1934C26.6358 25.1934 26.2949 25.5343 26.2949 25.9548V38.1214C26.2949 38.542 26.6358 38.8829 27.0564 38.8829H34.3746C34.7952 38.8829 35.1361 38.542 35.1361 38.1214V25.9548C35.1361 25.5343 34.7952 25.1934 34.3746 25.1934H27.0564ZM31.6819 30.0563L29.016 35.3315H30.4196L33.0886 30.028V28.9007H28.5764V30.0123H31.6819V30.0563Z" fill="white"/>
<path fill-rule="evenodd" clip-rule="evenodd" d="M37.6052 25.1931C37.1847 25.1931 36.8438 25.534 36.8438 25.9546V38.1212C36.8438 38.5417 37.1847 38.8826 37.6052 38.8826H44.9234C45.344 38.8826 45.6849 38.5417 45.6849 38.1212V25.9546C45.6849 25.534 45.344 25.1931 44.9234 25.1931H37.6052ZM42.2295 30.056L39.5636 35.3312H40.9672L43.6362 30.0278V28.9005H39.124V30.0121H42.2295V30.056Z" fill="white"/>
<path fill-rule="evenodd" clip-rule="evenodd" d="M48.1579 25.1934C47.7374 25.1934 47.3965 25.5343 47.3965 25.9548V38.1214C47.3965 38.542 47.7374 38.8829 48.1579 38.8829H55.4762C55.8967 38.8829 56.2376 38.542 56.2376 38.1214V25.9548C56.2376 25.5343 55.8967 25.1934 55.4762 25.1934H48.1579ZM52.7823 30.0559L50.1164 35.3311H51.52L54.189 30.0277V28.9004H49.6768V30.012H52.7823V30.0559Z" fill="white"/>
<path fill-rule="evenodd" clip-rule="evenodd" d="M67.7479 25.3454L66.5347 31.5568C66.4929 31.9331 66.3275 32.2849 66.0643 32.5572L61.0889 37.7417V35.3175L64.834 31.3678L66.0472 25.1564L67.7479 25.3454Z" fill="white"/>
<circle cx="67.4753" cy="21.5994" r="2.70973" fill="white"/>
<path d="M93.649 27.9357H92.1736C92.0864 27.5113 91.9337 27.1385 91.7156 26.8172C91.5014 26.496 91.2396 26.2263 90.9303 26.0082C90.6249 25.7861 90.2858 25.6195 89.913 25.5085C89.5402 25.3974 89.1516 25.3419 88.747 25.3419C88.0094 25.3419 87.3411 25.5283 86.7422 25.9011C86.1473 26.2739 85.6734 26.8232 85.3204 27.549C84.9714 28.2747 84.7969 29.1651 84.7969 30.22C84.7969 31.275 84.9714 32.1654 85.3204 32.8911C85.6734 33.6169 86.1473 34.1662 86.7422 34.539C87.3411 34.9118 88.0094 35.0982 88.747 35.0982C89.1516 35.0982 89.5402 35.0427 89.913 34.9316C90.2858 34.8206 90.6249 34.656 90.9303 34.4378C91.2396 34.2158 91.5014 33.9441 91.7156 33.6228C91.9337 33.2976 92.0864 32.9248 92.1736 32.5044H93.649C93.5379 33.1271 93.3357 33.6843 93.0422 34.1761C92.7487 34.6679 92.3838 35.0863 91.9476 35.4313C91.5113 35.7724 91.0215 36.0322 90.4782 36.2106C89.9388 36.3891 89.3618 36.4783 88.747 36.4783C87.7079 36.4783 86.7839 36.2245 85.9748 35.7169C85.1658 35.2092 84.5292 34.4874 84.0652 33.5515C83.6012 32.6155 83.3692 31.505 83.3692 30.22C83.3692 28.9351 83.6012 27.8246 84.0652 26.8886C84.5292 25.9527 85.1658 25.2309 85.9748 24.7232C86.7839 24.2156 87.7079 23.9618 88.747 23.9618C89.3618 23.9618 89.9388 24.051 90.4782 24.2295C91.0215 24.4079 91.5113 24.6697 91.9476 25.0147C92.3838 25.3558 92.7487 25.7722 93.0422 26.264C93.3357 26.7518 93.5379 27.309 93.649 27.9357ZM96.5327 36.3118H94.986L99.4596 24.1283H100.983L105.456 36.3118H103.909L100.269 26.0558H100.173L96.5327 36.3118ZM97.1038 31.5526H103.338V32.8614H97.1038V31.5526ZM114.017 27.1742C113.945 26.5714 113.656 26.1034 113.148 25.7702C112.64 25.4371 112.018 25.2705 111.28 25.2705C110.741 25.2705 110.269 25.3578 109.864 25.5323C109.464 25.7068 109.15 25.9467 108.924 26.2521C108.702 26.5575 108.591 26.9045 108.591 27.2932C108.591 27.6184 108.669 27.898 108.823 28.132C108.982 28.362 109.184 28.5543 109.43 28.709C109.676 28.8597 109.934 28.9846 110.203 29.0838C110.473 29.179 110.721 29.2563 110.947 29.3158L112.184 29.6489C112.502 29.7322 112.855 29.8472 113.243 29.994C113.636 30.1407 114.011 30.341 114.368 30.5948C114.729 30.8447 115.026 31.1659 115.26 31.5586C115.494 31.9512 115.611 32.4331 115.611 33.0042C115.611 33.6625 115.438 34.2574 115.093 34.7888C114.752 35.3203 114.253 35.7427 113.594 36.056C112.94 36.3693 112.145 36.5259 111.209 36.5259C110.336 36.5259 109.581 36.3851 108.942 36.1036C108.308 35.822 107.808 35.4293 107.443 34.9257C107.082 34.422 106.878 33.837 106.83 33.1707H108.353C108.393 33.6308 108.548 34.0115 108.817 34.3129C109.091 34.6104 109.436 34.8325 109.852 34.9792C110.273 35.122 110.725 35.1934 111.209 35.1934C111.772 35.1934 112.278 35.1021 112.726 34.9197C113.174 34.7333 113.529 34.4755 113.791 34.1464C114.052 33.8132 114.183 33.4245 114.183 32.9804C114.183 32.5758 114.07 32.2467 113.844 31.9928C113.618 31.739 113.321 31.5328 112.952 31.3741C112.583 31.2155 112.184 31.0767 111.756 30.9577L110.257 30.5294C109.305 30.2557 108.552 29.8651 107.996 29.3574C107.441 28.8498 107.163 28.1855 107.163 27.3646C107.163 26.6824 107.348 26.0875 107.717 25.5799C108.09 25.0683 108.589 24.6717 109.216 24.3901C109.846 24.1045 110.55 23.9618 111.328 23.9618C112.113 23.9618 112.811 24.1025 113.422 24.3841C114.033 24.6617 114.516 25.0425 114.873 25.5263C115.234 26.0102 115.425 26.5595 115.444 27.1742H114.017ZM119.512 24.1283V36.3118H118.037V24.1283H119.512ZM132.131 24.1283V36.3118H130.703L124.064 26.7459H123.945V36.3118H122.47V24.1283H123.898L130.561 33.718H130.68V24.1283H132.131ZM145.363 30.22C145.363 31.505 145.131 32.6155 144.667 33.5515C144.203 34.4874 143.567 35.2092 142.758 35.7169C141.948 36.2245 141.024 36.4783 139.985 36.4783C138.946 36.4783 138.022 36.2245 137.213 35.7169C136.404 35.2092 135.767 34.4874 135.303 33.5515C134.839 32.6155 134.607 31.505 134.607 30.22C134.607 28.9351 134.839 27.8246 135.303 26.8886C135.767 25.9527 136.404 25.2309 137.213 24.7232C138.022 24.2156 138.946 23.9618 139.985 23.9618C141.024 23.9618 141.948 24.2156 142.758 24.7232C143.567 25.2309 144.203 25.9527 144.667 26.8886C145.131 27.8246 145.363 28.9351 145.363 30.22ZM143.935 30.22C143.935 29.1651 143.759 28.2747 143.406 27.549C143.057 26.8232 142.583 26.2739 141.984 25.9011C141.389 25.5283 140.723 25.3419 139.985 25.3419C139.248 25.3419 138.579 25.5283 137.981 25.9011C137.386 26.2739 136.912 26.8232 136.559 27.549C136.21 28.2747 136.035 29.1651 136.035 30.22C136.035 31.275 136.21 32.1654 136.559 32.8911C136.912 33.6169 137.386 34.1662 137.981 34.539C138.579 34.9118 139.248 35.0982 139.985 35.0982C140.723 35.0982 141.389 34.9118 141.984 34.539C142.583 34.1662 143.057 33.6169 143.406 32.8911C143.759 32.1654 143.935 31.275 143.935 30.22Z" fill="white"/>
</svg>
