<svg width="26" height="23" viewBox="0 0 26 23" fill="none" xmlns="http://www.w3.org/2000/svg">
<path d="M7.78028 22.6673L0.389027 14.6116C0.33373 14.5538 0.326414 14.4651 0.37148 14.399L3.37064 13.6177C3.44667 13.5061 3.61626 13.5238 3.66757 13.6487L8.05967 22.4857C8.13089 22.659 7.90977 22.8027 7.78028 22.6673Z" fill="#C9C9C9"/>
<path fill-rule="evenodd" clip-rule="evenodd" d="M0.287354 4.70536C0.287354 4.62314 0.346344 4.55277 0.427302 4.53841L21.3033 0.837001C21.4071 0.818586 21.5024 0.898465 21.5024 1.00395V10.1399L5.37379 12.4079C4.6327 12.5122 4.05352 13.1003 3.96069 13.8429L3.93672 14.0347L0.486502 14.6465C0.382641 14.6649 0.287354 14.585 0.287354 14.4795V4.70536ZM5.46606 13.0641L25.0928 10.3041L25.3864 10.2903C25.4961 10.2852 25.5817 10.3841 25.5608 10.4919L23.8967 19.1019C23.8819 19.1787 23.8165 19.2353 23.7384 19.2391L3.83601 20.2009L3.83371 20.201L4.61821 13.9251C4.6739 13.4795 5.02141 13.1266 5.46606 13.0641ZM16.9237 3.2973L18.8421 2.91571L18.7868 4.03141L16.8684 4.413L16.6052 9.71811L15.1978 9.99806L15.461 4.69295L13.5815 5.06679L13.6369 3.95109L15.5163 3.57725L16.9237 3.2973ZM12.9448 9.34588L12.8897 10.4572L10.0142 11.0291L9.53353 11.1247L8.60248 11.3099L8.921 4.88914L9.85205 4.70394L10.3327 4.60833L13.2125 4.03551L13.1572 5.15121L10.2774 5.72403L10.2045 7.19253L12.6469 6.70671L12.5936 7.78272L10.1512 8.26854L10.0693 9.91784L12.9448 9.34588ZM5.56151 9.16838L4.45291 9.38889L4.37043 11.0514L5.42274 10.8421C5.63926 10.799 5.81712 10.7287 5.95631 10.6312C6.0955 10.5336 6.19984 10.4183 6.26933 10.2851C6.33882 10.1519 6.37729 10.0104 6.38473 9.86044C6.39348 9.68405 6.37075 9.5372 6.31654 9.4199C6.26522 9.30203 6.17779 9.22045 6.05427 9.17516C5.93363 9.12929 5.76937 9.12703 5.56151 9.16838ZM5.31906 8.26474L4.5006 8.42754L4.57848 6.85762L5.40127 6.69395C5.63512 6.64744 5.82427 6.63747 5.96874 6.66404C6.11624 6.68709 6.22171 6.75053 6.28517 6.85435C6.34862 6.95816 6.37561 7.10562 6.36613 7.29671C6.35781 7.46429 6.31617 7.6123 6.24119 7.74073C6.16636 7.86623 6.05243 7.97331 5.89939 8.06197C5.74924 8.15006 5.55579 8.21765 5.31906 8.26474ZM7.003 8.28782C6.94914 8.32768 6.89171 8.36547 6.83072 8.40118C6.95521 8.40878 7.06536 8.43182 7.16117 8.47031C7.39682 8.56025 7.56244 8.70779 7.65803 8.91291C7.75362 9.11804 7.79514 9.34702 7.7826 9.59985C7.76189 10.0173 7.65648 10.3847 7.46637 10.702C7.27641 11.0163 7.00471 11.2785 6.65127 11.4885C6.30072 11.6979 5.87283 11.8529 5.36761 11.9534L4.3153 12.1627L3.44488 12.3359L2.90357 12.4435L3.22209 6.02272L5.45662 5.57825C5.83481 5.50302 6.17084 5.47111 6.4647 5.48252C6.75856 5.49393 7.00577 5.55246 7.20635 5.65811C7.4098 5.76319 7.56092 5.91506 7.65968 6.11374C7.75845 6.31241 7.8004 6.56168 7.78552 6.86155C7.77254 7.12321 7.70269 7.37871 7.57598 7.62805C7.45216 7.87682 7.26117 8.09675 7.003 8.28782ZM9.95847 17.6608V18.4557L7.15489 18.6026L6.67292 18.6279L6.42407 18.641V18.0795L8.66506 14.7287L6.41777 14.8465V14.0485L9.2182 13.9017L9.58361 13.8825L9.92382 13.8647V14.4136L7.69917 17.7792L9.95847 17.6608ZM14.2489 16.0386V15.8335C14.2489 15.4844 14.2006 15.1736 14.104 14.9011C14.0074 14.6265 13.8709 14.396 13.6945 14.2097C13.5202 14.0232 13.3123 13.8848 13.0708 13.7944C12.8292 13.7019 12.5625 13.6633 12.2706 13.6786C11.9787 13.6939 11.712 13.7605 11.4705 13.8783C11.229 13.994 11.02 14.1542 10.8436 14.3591C10.6693 14.5638 10.5339 14.8085 10.4373 15.0933C10.3407 15.3759 10.2924 15.6918 10.2924 16.0409V16.2459C10.2924 16.595 10.3407 16.9058 10.4373 17.1783C10.5339 17.4509 10.6704 17.6803 10.8468 17.8666C11.0253 18.0528 11.2353 18.1922 11.4768 18.2847C11.7183 18.3751 11.985 18.4126 12.2769 18.3973C12.5688 18.382 12.8345 18.3166 13.0739 18.201C13.3154 18.0832 13.5233 17.9219 13.6976 17.7172C13.874 17.5124 14.0095 17.2687 14.104 16.9862C14.2006 16.7035 14.2489 16.3876 14.2489 16.0386ZM13.2125 15.8815V16.0929C13.2125 16.3242 13.1915 16.5314 13.1495 16.7144C13.1096 16.8953 13.0498 17.0498 12.97 17.1781C12.8902 17.3063 12.7914 17.4051 12.6738 17.4743C12.5583 17.5435 12.426 17.582 12.2769 17.5898C12.1215 17.5979 11.985 17.5735 11.8674 17.5166C11.7519 17.4596 11.6543 17.3711 11.5745 17.2512C11.4947 17.1313 11.4338 16.9831 11.3918 16.8066C11.3519 16.6278 11.3319 16.4227 11.3319 16.1914V15.9801C11.3319 15.7467 11.3519 15.5395 11.3918 15.3587C11.4338 15.1756 11.4936 15.0211 11.5713 14.895C11.6511 14.7689 11.7488 14.6723 11.8643 14.6052C11.9798 14.5361 12.1152 14.4975 12.2706 14.4893C12.4197 14.4815 12.5531 14.5061 12.6707 14.563C12.7883 14.6178 12.887 14.7041 12.9668 14.8219C13.0466 14.9397 13.1075 15.0879 13.1495 15.2666C13.1915 15.4431 13.2125 15.6481 13.2125 15.8815ZM18.6622 13.4068V17.9996L17.6384 18.0532L15.9058 15.1757V18.144L14.8789 18.1979V13.605L15.9058 13.5512L17.6415 16.4285V13.4602L18.6622 13.4068ZM22.5399 17.7964V17.0014L20.4483 17.1111V15.9313L22.2249 15.8382V15.0685L20.4483 15.1616V14.1112L22.5431 14.0014V13.2034L20.4483 13.3132L20.0986 13.3315L19.4213 13.367V17.9598L20.0986 17.9243L20.4483 17.906L22.5399 17.7964Z" fill="white"/>
</svg>
