<svg width="20" height="20" viewBox="0 0 20 20" fill="none" xmlns="http://www.w3.org/2000/svg">
<path fill-rule="evenodd" clip-rule="evenodd" d="M10.1985 17.4309C14.4253 17.4309 17.8518 14.0044 17.8518 9.7776C17.8518 5.55078 14.4253 2.12427 10.1985 2.12427C5.97168 2.12427 2.54517 5.55078 2.54517 9.7776C2.54517 14.0044 5.97168 17.4309 10.1985 17.4309ZM10.1985 19.3644C15.4931 19.3644 19.7853 15.0723 19.7853 9.7776C19.7853 4.48296 15.4931 0.190796 10.1985 0.190796C4.90385 0.190796 0.611694 4.48296 0.611694 9.7776C0.611694 15.0723 4.90385 19.3644 10.1985 19.3644Z" fill="white"/>
<path fill-rule="evenodd" clip-rule="evenodd" d="M9.53644 5.05937C9.02381 5.12894 8.53714 5.28024 8.09 5.49972L7.52492 4.52097C8.1409 4.20852 8.8193 4.00133 9.53644 3.92308V5.05937ZM12.0169 5.38321C11.546 5.18594 11.0366 5.06229 10.5032 5.02665V3.89673C11.2414 3.9365 11.9435 4.11243 12.5847 4.39984L12.0169 5.38321ZM14.0077 6.94841C13.6916 6.52034 13.3054 6.14721 12.866 5.84598L13.4314 4.86675C14.0399 5.27092 14.5688 5.78535 14.9896 6.38154L14.0077 6.94841ZM14.9144 9.32561C14.8637 8.77838 14.7203 8.25804 14.5 7.78047L15.4803 7.2145C15.7927 7.86115 15.9901 8.57369 16.0462 9.32561H14.9144ZM14.4705 11.8205C14.6965 11.3489 14.8469 10.8343 14.9063 10.2924H16.0397C15.9738 11.039 15.7685 11.7456 15.4498 12.3859L14.4705 11.8205ZM12.8329 13.7147C13.2667 13.4226 13.6498 13.0608 13.966 12.6455L14.9492 13.2131C14.5273 13.7961 14.0011 14.2987 13.398 14.6934L12.8329 13.7147ZM10.5032 14.5115C11.0226 14.4768 11.5192 14.3586 11.9797 14.1703L12.548 15.1546C11.9167 15.4324 11.2274 15.6024 10.5032 15.6414V14.5115ZM8.12601 14.0559C8.56323 14.2659 9.03754 14.4111 9.53644 14.4788V15.6151C8.83314 15.5383 8.1671 15.3376 7.56065 15.0351L8.12601 14.0559ZM6.30094 12.5142C6.58017 12.9083 6.91792 13.2579 7.30151 13.5505L6.73378 14.5338C6.18314 14.1347 5.7044 13.6424 5.32067 13.0802L6.30094 12.5142ZM5.45701 10.2924C5.51022 10.7782 5.63666 11.2421 5.82506 11.6727L4.84319 12.2396C4.56458 11.6385 4.38449 10.9826 4.32363 10.2924H5.45701ZM5.79762 7.92946C5.6144 8.36558 5.49436 8.83478 5.44894 9.32562H4.31714C4.36897 8.63034 4.54169 7.96875 4.81435 7.36177L5.79762 7.92946ZM6.26122 7.08083C6.54031 6.67459 6.88091 6.3139 7.26958 6.01219L6.70134 5.02797C6.14574 5.43651 5.66456 5.94037 5.28193 6.51544L6.26122 7.08083Z" fill="white"/>
<path fill-rule="evenodd" clip-rule="evenodd" d="M12.5355 7.84532C12.5355 8.0684 12.3547 8.24924 12.1316 8.24924C12.0751 8.24924 12.0212 8.23762 11.9724 8.21663L11.0601 9.12885C11.1763 9.28838 11.2448 9.48479 11.2448 9.69721C11.2448 9.90602 11.1786 10.0994 11.066 10.2574L11.9837 11.175C12.0295 11.157 12.0794 11.1471 12.1316 11.1471C12.3547 11.1471 12.5355 11.3279 12.5355 11.551C12.5355 11.7741 12.3547 11.9549 12.1316 11.9549C11.9085 11.9549 11.7277 11.7741 11.7277 11.551C11.7277 11.4987 11.7376 11.4488 11.7557 11.4029L10.8381 10.4853C10.6801 10.5978 10.4868 10.664 10.278 10.664C10.0656 10.664 9.86913 10.5955 9.7096 10.4794L8.79832 11.3907C8.8196 11.4398 8.83139 11.494 8.83139 11.551C8.83139 11.7741 8.65055 11.9549 8.42748 11.9549C8.2044 11.9549 8.02356 11.7741 8.02356 11.551C8.02356 11.3279 8.2044 11.1471 8.42748 11.1471C8.47496 11.1471 8.52052 11.1553 8.56284 11.1703L9.48407 10.2491C9.37508 10.0926 9.31117 9.90238 9.31117 9.69721C9.31117 9.48843 9.37735 9.29511 9.48988 9.13707L8.57455 8.22175C8.52901 8.23955 8.47944 8.24932 8.42759 8.24932C8.20451 8.24932 8.02367 8.06848 8.02367 7.8454C8.02367 7.62233 8.20451 7.44149 8.42759 7.44149C8.65067 7.44149 8.83151 7.62233 8.83151 7.8454C8.83151 7.89806 8.82143 7.94836 8.8031 7.99449L9.71777 8.90916C9.87582 8.79661 10.0692 8.73041 10.278 8.73041C10.4831 8.73041 10.6734 8.79432 10.8299 8.90331L11.7513 7.98183C11.736 7.93919 11.7277 7.89323 11.7277 7.84532C11.7277 7.62225 11.9085 7.44141 12.1316 7.44141C12.3547 7.44141 12.5355 7.62225 12.5355 7.84532Z" fill="white"/>
</svg>
