<svg width="32" height="16" viewBox="0 0 32 16" fill="none" xmlns="http://www.w3.org/2000/svg">
<path fill-rule="evenodd" clip-rule="evenodd" d="M23.3624 3.4413H1.63101C1.42228 3.4413 1.25307 3.61051 1.25307 3.81924V14.0235C1.25307 14.2323 1.42228 14.4015 1.63101 14.4015H23.3624C23.5711 14.4015 23.7403 14.2323 23.7403 14.0235V3.81924C23.7403 3.61051 23.5711 3.4413 23.3624 3.4413ZM1.63101 2.49646C0.900456 2.49646 0.308228 3.08869 0.308228 3.81924V14.0235C0.308228 14.7541 0.900456 15.3463 1.63101 15.3463H23.3624C24.0929 15.3463 24.6851 14.7541 24.6851 14.0235V3.81924C24.6851 3.08869 24.0929 2.49646 23.3624 2.49646H1.63101Z" fill="white"/>
<path fill-rule="evenodd" clip-rule="evenodd" d="M3.08062 4.38599C2.80195 4.38599 2.57605 4.61189 2.57605 4.89056V12.9525C2.57605 13.2312 2.80195 13.4571 3.08062 13.4571H7.92988C8.20855 13.4571 8.43445 13.2312 8.43445 12.9525V4.89056C8.43445 4.61189 8.20855 4.38599 7.92988 4.38599H3.08062ZM6.14565 7.60828L4.37917 11.1038H5.30923L7.07779 7.58955V6.8426H4.08788V7.57915H6.14565V7.60828Z" fill="white"/>
<path fill-rule="evenodd" clip-rule="evenodd" d="M10.0711 4.38599C9.79243 4.38599 9.56653 4.61189 9.56653 4.89056V12.9525C9.56653 13.2312 9.79243 13.4571 10.0711 13.4571H14.9204C15.199 13.4571 15.4249 13.2312 15.4249 12.9525V4.89056C15.4249 4.61189 15.199 4.38599 14.9204 4.38599H10.0711ZM13.1353 7.6083L11.3688 11.1038H12.2989L14.0674 7.58958V6.84262H11.0775V7.57917H13.1353V7.6083Z" fill="white"/>
<path fill-rule="evenodd" clip-rule="evenodd" d="M17.0634 4.38611C16.7847 4.38611 16.5588 4.61201 16.5588 4.89068V12.9526C16.5588 13.2313 16.7847 13.4572 17.0634 13.4572H21.9127C22.1913 13.4572 22.4172 13.2313 22.4172 12.9526V4.89068C22.4172 4.61201 22.1913 4.38611 21.9127 4.38611H17.0634ZM20.1276 7.60814L18.3612 11.1037H19.2912L21.0598 7.58942V6.84246H18.0699V7.57901H20.1276V7.60814Z" fill="white"/>
<path fill-rule="evenodd" clip-rule="evenodd" d="M30.0441 4.48687L29.2402 8.60273C29.2125 8.85208 29.1028 9.0852 28.9285 9.26559L25.6316 12.701V11.0947L28.1132 8.47751L28.9171 4.36165L30.0441 4.48687Z" fill="white"/>
<circle cx="29.8639" cy="2.00453" r="1.79554" fill="white"/>
</svg>
