<svg width="21" height="18" viewBox="0 0 21 18" fill="none" xmlns="http://www.w3.org/2000/svg">
<path fill-rule="evenodd" clip-rule="evenodd" d="M17.7644 3.6248C18.5011 3.6248 19.085 3.39783 19.5319 3.03608C19.9701 2.68134 20.2477 2.22081 20.4249 1.79063C20.6023 1.35976 20.6885 0.936331 20.7311 0.62577C20.7526 0.469112 20.7635 0.337665 20.769 0.243706C20.7718 0.196645 20.7732 0.158754 20.774 0.131543L20.7746 0.0988489L20.7747 0.0888114L20.7748 0.0854281L20.7748 0.0836198C20.7748 0.0833829 20.7748 0.0831573 20.2435 0.0831573C19.7123 0.0831573 19.7123 0.0829548 19.7123 0.0827637L19.7122 0.0847373L19.7119 0.102388C19.7114 0.119275 19.7104 0.14606 19.7084 0.181314C19.7042 0.251986 19.6957 0.355726 19.6785 0.481292C19.6436 0.73518 19.5749 1.06435 19.4424 1.38608C19.3096 1.70849 19.1224 2.00057 18.8634 2.21027C18.613 2.41297 18.2673 2.5623 17.7644 2.5623H13.5144C12.1503 2.5623 11.2395 3.1073 10.6842 3.83326C10.1479 4.53419 9.97278 5.36284 9.97278 5.92686H11.0353C11.0353 5.54644 11.1611 4.95844 11.528 4.47882C11.8758 4.02423 12.4702 3.6248 13.5144 3.6248H17.7644ZM1.29565 11.7706C1.29565 10.5274 1.87795 9.46238 2.66247 8.69798C3.46239 7.91857 4.39908 7.52062 5.01436 7.52062H15.8164C16.6944 7.52062 17.6704 8.00441 18.4416 8.8162C19.2085 9.62344 19.7122 10.6931 19.7122 11.7706C19.7122 12.8464 19.21 13.912 18.4068 14.7152C17.6036 15.5184 16.538 16.0206 15.4622 16.0206C13.9669 16.0206 12.9859 15.3506 12.5448 14.8857C12.3124 14.6409 11.9636 14.4268 11.5415 14.4268H9.73481C9.40147 14.4268 9.10526 14.5612 8.88229 14.7497C8.27578 15.2624 7.01005 16.0206 5.54561 16.0206C3.49821 16.0206 1.29565 14.2732 1.29565 11.7706ZM5.01436 6.45813C4.03592 6.45813 2.84762 7.03413 1.92099 7.93699C0.978963 8.85487 0.233154 10.1804 0.233154 11.7706C0.233154 14.9346 2.98888 17.083 5.54561 17.083C7.34985 17.083 8.85075 16.1677 9.56824 15.5611C9.6322 15.507 9.69243 15.4893 9.73481 15.4893H11.5415C11.593 15.4893 11.6804 15.5184 11.7741 15.6171C12.3851 16.261 13.6337 17.083 15.4622 17.083C16.8655 17.083 18.1905 16.4341 19.1581 15.4665C20.1258 14.4989 20.7747 13.1739 20.7747 11.7706C20.7747 10.3689 20.1273 9.04798 19.2119 8.0844C18.3008 7.12537 17.0633 6.45813 15.8164 6.45813H5.01436ZM5.01414 11.1507V9.64554H6.07663V11.1507H7.58257V12.2132H6.07663V13.7184H5.01414V12.2132H3.50968V11.1507H5.01414ZM15.9938 9.99972C15.9938 10.3909 15.6766 10.708 15.2854 10.708C14.8942 10.708 14.5771 10.3909 14.5771 9.99972C14.5771 9.60852 14.8942 9.29139 15.2854 9.29139C15.6766 9.29139 15.9938 9.60852 15.9938 9.99972ZM14.3994 11.5935C14.3994 11.2023 14.0823 10.8852 13.6911 10.8852C13.2999 10.8852 12.9828 11.2023 12.9828 11.5935C12.9828 11.9847 13.2999 12.3019 13.6911 12.3019C14.0823 12.3019 14.3994 11.9847 14.3994 11.5935ZM15.9938 13.1872C15.9938 13.5784 15.6766 13.8956 15.2854 13.8956C14.8942 13.8956 14.5771 13.5784 14.5771 13.1872C14.5771 12.796 14.8942 12.4789 15.2854 12.4789C15.6766 12.4789 15.9938 12.796 15.9938 13.1872ZM17.5871 11.5935C17.5871 11.2023 17.27 10.8852 16.8788 10.8852C16.4876 10.8852 16.1704 11.2023 16.1704 11.5935C16.1704 11.9847 16.4876 12.3019 16.8788 12.3019C17.27 12.3019 17.5871 11.9847 17.5871 11.5935Z" fill="white"/>
</svg>
