<svg width="23" height="22" viewBox="0 0 23 22" fill="none" xmlns="http://www.w3.org/2000/svg">
<g clip-path="url(#clip0_1_337)">
<path d="M13.2439 4.88513L13.244 4.88519L14.2112 6.36028C14.2112 6.36028 14.2112 6.36029 14.2112 6.36029C14.2341 6.3952 14.2497 6.43426 14.2572 6.47523C14.2646 6.51621 14.2636 6.55821 14.2543 6.59881C14.245 6.6394 14.2275 6.67771 14.203 6.71155C14.1785 6.74539 14.1475 6.77409 14.1118 6.7961C14.1118 6.79611 14.1118 6.79611 14.1118 6.79611L4.54845 12.6923H15.5882C15.5882 12.6923 15.5882 12.6923 15.5882 12.6923C15.6303 12.6923 15.672 12.7004 15.711 12.716C15.7499 12.7317 15.7855 12.7547 15.8156 12.7838C15.8456 12.8129 15.8696 12.8476 15.8859 12.8859C15.9023 12.9243 15.9108 12.9655 15.9108 13.0071V19.7365V19.7366C15.9103 20.1528 15.7396 20.5513 15.4368 20.845C15.134 21.1385 14.724 21.3033 14.2967 21.3038H14.2966H4.74765H4.74758C4.32027 21.3033 3.9102 21.1386 3.60743 20.845C3.3046 20.5513 3.13386 20.1528 3.13338 19.7366V19.7365V13.5649L2.33412 14.0575C2.29842 14.0795 2.25869 14.0945 2.21722 14.1015C2.17575 14.1086 2.13326 14.1076 2.09216 14.0987C2.05105 14.0899 2.01204 14.0732 1.97738 14.0496L13.2439 4.88513ZM13.2439 4.88513C13.0136 4.53468 12.6497 4.28768 12.2325 4.19761C11.8153 4.10754 11.3783 4.18155 11.017 4.40373L11.0169 4.40377L9.77553 5.16916M13.2439 4.88513L9.77553 5.16916M9.77553 5.16916L9.85133 4.81741C9.85138 4.81721 9.85143 4.817 9.85148 4.81679C9.8963 4.6257 9.90178 4.42787 9.86761 4.2347C9.83339 4.04132 9.76013 3.85649 9.65211 3.69084C9.5441 3.5252 9.40349 3.38202 9.23845 3.26944C9.07341 3.15687 8.88716 3.0771 8.69042 3.03462C8.49369 2.99215 8.29025 2.98779 8.09179 3.02179C7.89332 3.0558 7.70365 3.12751 7.53367 3.23288C7.36368 3.33826 7.21671 3.47525 7.10128 3.63608C6.98587 3.79688 6.90427 3.97832 6.86128 4.16999C6.86127 4.17003 6.86126 4.17007 6.86126 4.17011L6.16231 7.21434L3.83667 6.71237C3.46472 6.63198 3.07514 6.68908 2.74408 6.8727C2.41297 7.05635 2.16394 7.35355 2.04638 7.70656C1.92879 8.05962 1.95137 8.44257 2.10959 8.78023C2.25022 9.08036 2.48885 9.32521 2.78626 9.47833L1.41937 10.3211L1.41931 10.3212C1.05851 10.5442 0.803081 10.8972 0.709831 11.3033C0.616569 11.7095 0.693333 12.1348 0.922914 12.4858L0.922956 12.4859L1.89017 13.961L9.77553 5.16916ZM2.26074 13.3582L1.46642 12.1467C1.32917 11.9368 1.28351 11.6831 1.3391 11.441C1.39468 11.1988 1.54719 10.9873 1.76392 10.8533L2.26074 13.3582ZM2.26074 13.3582L6.25324 10.8966L4.94069 8.89476L1.76398 10.8533L2.26074 13.3582ZM11.3615 4.93602L11.3616 4.93593C11.5164 4.83999 11.6963 4.78886 11.8803 4.78875C11.952 4.78879 12.0234 4.79645 12.0933 4.81157L12.0935 4.81161C12.218 4.83816 12.3358 4.88839 12.44 4.95928C12.5442 5.03017 12.6327 5.1203 12.7005 5.22438L12.7006 5.22453L13.493 6.43296L9.56992 8.8518L8.25732 6.84996L11.3615 4.93602ZM9.01668 5.63185L6.88358 6.95189L7.49071 4.3076C7.49072 4.30759 7.49072 4.30758 7.49072 4.30757C7.54199 4.08612 7.68203 3.89288 7.88079 3.77081C8.07962 3.64869 8.32064 3.60804 8.55067 3.65812C8.78068 3.70818 8.98016 3.84467 9.10567 4.03683C9.23112 4.22891 9.2726 4.46112 9.22134 4.68253L9.22112 4.68351L9.01668 5.63185ZM2.7555 8.62394L2.7554 8.62379C2.66156 8.48068 2.61371 8.31401 2.61767 8.14485C2.62163 7.97568 2.67722 7.81126 2.77769 7.67238C2.87818 7.53347 3.01912 7.42629 3.18289 7.36469C3.34668 7.30309 3.52573 7.28995 3.6973 7.32699L5.60558 7.73895L3.47152 9.03618L3.31105 9.0015L3.31087 9.00146C3.19692 8.97718 3.08917 8.93124 2.99384 8.8664C2.89852 8.80155 2.81754 8.71912 2.7555 8.62394ZM6.79861 10.5604L5.48605 8.55851L7.71187 7.18621L9.02447 9.18805L6.79861 10.5604ZM7.14366 20.6743H4.74773C4.49011 20.674 4.24353 20.5746 4.06197 20.3986C3.88048 20.2226 3.77878 19.9844 3.77849 19.7364V13.3218H7.14379L7.14366 20.6743ZM10.4008 20.6743H7.78869V13.3218H10.4008V20.6743ZM15.2657 19.7364C15.2654 19.9844 15.1637 20.2226 14.9822 20.3985C14.8007 20.5746 14.5541 20.674 14.2965 20.6743H11.0458V13.3218H15.2657V19.7364Z" fill="white" stroke="white" stroke-width="0.132526"/>
<path d="M18.641 9.81984L18.641 9.81986L18.5247 10.4778L19.0178 10.944L19.0178 10.944L18.9723 10.9921C19.0066 11.0245 19.0308 11.0655 19.0423 11.1105C19.0537 11.1556 19.052 11.2028 19.0372 11.2469C19.0224 11.291 18.9952 11.3302 18.9586 11.3601C18.9221 11.39 18.8776 11.4094 18.8303 11.416L18.641 9.81984ZM18.641 9.81984C18.6513 9.76158 18.6446 9.70172 18.6217 9.64711C18.5987 9.59251 18.5607 9.5455 18.512 9.51121C18.4634 9.47692 18.406 9.45664 18.3464 9.45245C18.2868 9.44825 18.2271 9.46028 18.174 9.48732L18.174 9.48734L17.5622 9.79917L16.9505 9.48734C16.9505 9.48734 16.9505 9.48734 16.9505 9.48734C16.8974 9.46026 16.8376 9.44819 16.778 9.45237C16.7184 9.45654 16.661 9.47682 16.6123 9.51111C16.5637 9.54541 16.5256 9.59243 16.5026 9.64705C16.4797 9.7017 16.473 9.76158 16.4833 9.81986C16.4833 9.81986 16.4833 9.81986 16.4833 9.81986L16.5997 10.4778L16.1064 10.944M18.641 9.81984L17.2732 12.1777M18.8395 11.4816L18.1562 11.578L17.851 12.1777L17.851 12.1777L17.7919 12.1477C17.7708 12.1893 17.738 12.2243 17.6974 12.2488C17.6568 12.2733 17.6099 12.2863 17.5621 12.2863C17.5143 12.2863 17.4674 12.2733 17.4268 12.2488C17.3862 12.2243 17.3535 12.1893 17.3323 12.1477L18.8395 11.4816ZM18.8395 11.4816C18.8395 11.4816 18.8396 11.4816 18.8396 11.4816L18.8395 11.4816ZM17.2732 12.1777L16.968 11.578L16.2846 11.4816C16.2846 11.4816 16.2846 11.4816 16.2846 11.4816C16.2255 11.4733 16.1697 11.4491 16.1236 11.4114C16.0775 11.3737 16.043 11.3241 16.0242 11.2679C16.0054 11.2118 16.0031 11.1516 16.0177 11.0942C16.0323 11.0368 16.0631 10.9848 16.1064 10.944M17.2732 12.1777C17.2732 12.1777 17.2732 12.1777 17.2732 12.1777L17.2732 12.1777ZM16.1064 10.944L16.1519 10.9921L16.1064 10.944L16.1064 10.944ZM18.0973 10.95L17.9534 10.814L17.9534 10.814C17.9159 10.7785 17.8876 10.7345 17.8713 10.6857C17.8549 10.637 17.8511 10.585 17.86 10.5344C17.86 10.5344 17.86 10.5344 17.86 10.5344L17.8944 10.3398L17.7115 10.433L17.7115 10.433L17.6814 10.374C17.6446 10.3928 17.6037 10.4026 17.5621 10.4026C17.5206 10.4026 17.4796 10.3928 17.4429 10.374L18.0973 10.95ZM18.0973 10.95L17.8966 10.9783C17.8451 10.9855 17.7962 11.0048 17.7539 11.0346C17.7115 11.0644 17.6771 11.1039 17.6538 11.1498L17.6538 11.1498L17.5621 11.3299L17.4704 11.1498C17.4471 11.1039 17.4127 11.0644 17.3704 11.0346C17.3281 11.0048 17.2791 10.9855 17.2277 10.9783L17.2277 10.9783L17.0269 10.95L17.1708 10.814C17.1708 10.814 17.1708 10.814 17.1708 10.814C17.2083 10.7785 17.2366 10.7345 17.2529 10.6858C17.2693 10.637 17.2732 10.585 17.2642 10.5344L17.2642 10.5344L17.2298 10.3398L17.4127 10.433M18.0973 10.95L17.4127 10.433M17.4127 10.433C17.4128 10.433 17.4128 10.433 17.4128 10.433L17.4127 10.433Z" fill="white" stroke="white" stroke-width="0.132526"/>
<path d="M21.4162 7.01301L21.4162 7.01301C21.4743 7.02673 21.5276 7.05599 21.5699 7.09775C21.6121 7.13953 21.6417 7.19217 21.655 7.24982C21.6683 7.30749 21.6647 7.36762 21.6447 7.42333C21.6246 7.47903 21.589 7.52788 21.5421 7.56455L21.0058 7.98399L21.0579 8.64968L21.0579 8.64968C21.0625 8.70866 21.05 8.76762 21.0219 8.81985C20.9939 8.87205 20.9515 8.91532 20.8998 8.94498C20.8481 8.97463 20.7891 8.98958 20.7293 8.98831C20.6696 8.98705 20.6112 8.9696 20.5609 8.93776M21.4162 7.01301L20.5963 8.88176M21.4162 7.01301L20.7453 6.85489M21.4162 7.01301L20.6963 6.91143M20.5609 8.93776L20.5963 8.88176M20.5609 8.93776L20.5609 8.93776L20.5963 8.88176M20.5609 8.93776L19.9819 8.57162M20.5963 8.88176L19.9887 8.49756M19.9819 8.57162L20.0132 8.55911L19.9887 8.49756M19.9819 8.57162L19.3427 8.8264L19.3427 8.8264C19.2873 8.84849 19.2267 8.85507 19.1677 8.84548C19.1088 8.83588 19.0535 8.81045 19.0083 8.77181C18.9631 8.73315 18.9296 8.68277 18.9121 8.62623C18.8946 8.56967 18.8937 8.50943 18.9096 8.4524M19.9819 8.57162L19.9533 8.55356L19.9887 8.49756M19.9887 8.49756L18.9096 8.4524M18.9096 8.4524L18.9734 8.47018M18.9096 8.4524L19.3182 8.76485C19.274 8.78247 19.2255 8.78775 19.1784 8.78007C19.1312 8.7724 19.0872 8.75209 19.0513 8.72143C19.0155 8.69078 18.9892 8.651 18.9754 8.6066C18.9616 8.5622 18.9609 8.51494 18.9734 8.47018M18.9734 8.47018L18.9096 8.45239M18.9734 8.47018L19.1625 7.7914M18.9096 8.45239L18.6931 7.25546L19.1625 7.7914M18.9096 8.45239L19.089 7.80812M18.9096 8.45239L20.4379 6.25448M19.1625 7.7914L19.0986 7.77362L19.089 7.80812M19.1625 7.7914L19.1126 7.83506L19.089 7.80812M19.089 7.80812L18.6432 7.29912L18.6432 7.29911C18.6041 7.25442 18.5784 7.19977 18.5694 7.14129C18.5605 7.08281 18.5685 7.02309 18.5927 6.96898C18.6168 6.91488 18.6559 6.8687 18.7054 6.83546C18.7548 6.80223 18.8126 6.78318 18.8723 6.78027L18.8723 6.78027L19.5622 6.74661L19.9244 6.17701C19.9244 6.17701 19.9244 6.17701 19.9244 6.17701C19.9562 6.12696 20.0017 6.08681 20.0554 6.06087C20.1091 6.03494 20.1691 6.02415 20.2286 6.0296C20.2881 6.03505 20.345 6.05655 20.3929 6.0919C20.4409 6.12725 20.4779 6.17511 20.4995 6.23024M20.4995 6.23024L20.4379 6.25448M20.4995 6.23024L20.4995 6.23022L20.4379 6.25448M20.4995 6.23024L20.7453 6.85489M20.4379 6.25448L20.6963 6.91143M20.7453 6.85489L20.7115 6.84693L20.6963 6.91143M20.7453 6.85489L20.758 6.88717L20.6963 6.91143M20.4694 7.59682L20.4694 7.59682C20.4287 7.62869 20.3964 7.66983 20.3754 7.71683C20.3545 7.76384 20.3456 7.81518 20.3496 7.86641C20.3496 7.86642 20.3496 7.86643 20.3496 7.86645L20.3649 8.06394L20.1913 7.95411L20.1913 7.95411C20.1476 7.92644 20.0977 7.90959 20.046 7.90486C19.9943 7.90013 19.9421 7.90766 19.894 7.92686L19.894 7.92686L19.7032 8.00289L19.7561 7.81287C19.7561 7.81287 19.7561 7.81287 19.7561 7.81287C19.77 7.76333 19.7711 7.71123 19.7596 7.66113C19.748 7.61103 19.7241 7.5646 19.6901 7.52576L19.6901 7.52576L19.56 7.37718L19.7632 7.36728C19.7632 7.36728 19.7632 7.36728 19.7632 7.36728C19.8151 7.36477 19.8656 7.35006 19.9106 7.32431C19.9555 7.29854 19.9935 7.26245 20.0212 7.21897L20.0212 7.21895L20.13 7.04774L20.2037 7.23511L20.2037 7.23512C20.2226 7.283 20.253 7.3255 20.2923 7.35907C20.3316 7.39264 20.3786 7.41631 20.4291 7.42821L20.6258 7.47457L20.4694 7.59682Z" fill="white" stroke="white" stroke-width="0.132526"/>
<path d="M17.8124 4.07309L17.8124 4.07309C17.757 4.09519 17.6964 4.10177 17.6374 4.09218C17.5784 4.08258 17.5232 4.05714 17.4779 4.01849C17.4327 3.97982 17.3993 3.92944 17.3817 3.87289L17.8124 4.07309ZM17.8124 4.07309L18.4515 3.81828L19.0303 4.18449L19.0303 4.18449M17.8124 4.07309L19.0303 4.18449M19.0303 4.18449C19.0807 4.21634 19.139 4.23378 19.1987 4.23505C19.2585 4.23632 19.3175 4.22136 19.3692 4.1917C19.4209 4.16204 19.4633 4.11876 19.4914 4.06655C19.5194 4.01432 19.5319 3.95535 19.5273 3.89636L19.4752 3.23069L20.0116 2.8112L20.0116 2.8112M19.0303 4.18449L20.0116 2.8112M20.0116 2.8112C20.0585 2.77454 20.0941 2.72568 20.1142 2.66998C20.1343 2.61427 20.1379 2.55414 20.1246 2.49648C20.1113 2.43882 20.0817 2.38619 20.0394 2.34441C19.9971 2.30264 19.9439 2.27338 19.8858 2.25966L19.8857 2.25966M20.0116 2.8112L19.8857 2.25966M19.8857 2.25966L19.2148 2.10158L18.9691 1.47688C18.9474 1.42176 18.9104 1.37391 18.8625 1.33856C18.8146 1.30323 18.7576 1.28174 18.6981 1.2763C18.6386 1.27086 18.5786 1.28166 18.5249 1.3076C18.4712 1.33355 18.4258 1.37369 18.394 1.42375C18.394 1.42375 18.394 1.42375 18.394 1.42376L18.0318 1.99331L17.3419 2.02692C17.3419 2.02692 17.3419 2.02692 17.3419 2.02692C17.2822 2.02983 17.2244 2.04887 17.1749 2.08209C17.1255 2.11533 17.0864 2.16151 17.0622 2.21561C17.0381 2.26973 17.03 2.32944 17.039 2.38793C17.048 2.44641 17.0736 2.50107 17.1128 2.54577L17.1128 2.54578M19.8857 2.25966L17.1128 2.54578M17.1128 2.54578L17.5588 3.05478M17.1128 2.54578L17.5588 3.05478M18.233 2.61373L18.233 2.61373L18.0296 2.6236L18.1597 2.77221C18.1937 2.81104 18.2177 2.85749 18.2292 2.9076C18.2408 2.95771 18.2396 3.00982 18.2258 3.05937L18.1728 3.24938L18.3636 3.17334L18.3881 3.2349L18.3636 3.17334C18.4118 3.15415 18.4639 3.14662 18.5156 3.15135C18.5673 3.15607 18.6172 3.17293 18.661 3.2006L18.661 3.2006L18.8346 3.31043L18.8192 3.11288L18.8192 3.11285L18.233 2.61373ZM18.233 2.61373C18.2849 2.6112 18.3354 2.59648 18.3803 2.57072C18.4253 2.54495 18.4633 2.50884 18.4909 2.46536L18.4909 2.46536M18.233 2.61373L18.4909 2.46536M18.4909 2.46536L18.5998 2.29413M18.4909 2.46536L18.5998 2.29413M18.5998 2.29413L18.6735 2.48151L18.6735 2.48152C18.6923 2.5294 18.7228 2.57191 18.7621 2.60549C18.8014 2.63907 18.8484 2.66275 18.8989 2.67466L18.8989 2.67466L19.0955 2.72098L18.9391 2.84326C18.9391 2.84326 18.9391 2.84326 18.9391 2.84327L18.5998 2.29413ZM17.5588 3.05478L17.3792 3.69903L17.5588 3.05478Z" fill="white" stroke="white" stroke-width="0.132526"/>
<path d="M15.5107 10.7339L15.5102 10.7338C13.5336 10.2597 12.6305 11.5887 12.5972 11.6389L12.542 11.6023L12.5975 11.6386C12.5513 11.7091 12.4786 11.7585 12.3956 11.7765C12.3127 11.7945 12.2257 11.7798 12.1536 11.7355C12.0815 11.6911 12.0299 11.6204 12.011 11.5384C11.992 11.4564 12.0075 11.3706 12.0537 11.2999M15.5107 10.7339L12.9476 10.4807C12.3581 10.8404 12.069 11.2765 12.0537 11.2999M15.5107 10.7339C15.5929 10.7529 15.6795 10.7396 15.752 10.6968C15.8244 10.654 15.8771 10.5847 15.8978 10.5037C15.9185 10.4226 15.9053 10.3369 15.8613 10.2655C15.8174 10.1942 15.7466 10.1431 15.6648 10.1227L15.6648 10.1227M15.5107 10.7339L15.6648 10.1227M12.0537 11.2999C12.0537 11.2999 12.0537 11.2999 12.0537 11.2999L12.1092 11.3361L12.0536 11.3C12.0537 11.3 12.0537 11.3 12.0537 11.2999ZM15.6648 10.1227L15.6642 10.1225M15.6648 10.1227L15.6642 10.1225M15.6642 10.1225C14.4028 9.81989 13.4911 10.1489 12.9476 10.4806L15.6642 10.1225Z" fill="white" stroke="white" stroke-width="0.132526"/>
<path d="M14.0613 7.79966L14.061 7.79985C13.529 8.20106 13.0885 8.7051 12.7675 9.28014L12.7674 9.28012L12.7663 9.28224C12.7473 9.31937 12.736 9.35985 12.7331 9.40137C12.7302 9.44289 12.7357 9.48454 12.7494 9.5239C12.763 9.56327 12.7845 9.59951 12.8124 9.6306C12.8404 9.66168 12.8743 9.68701 12.9121 9.70522C12.9499 9.72343 12.991 9.73421 13.033 9.73699C13.075 9.73977 13.1171 9.73451 13.1571 9.72147C13.197 9.70844 13.2341 9.68786 13.2661 9.66083C13.2977 9.6341 13.3237 9.60157 13.3427 9.56498C13.6204 9.0746 13.9983 8.64401 14.4534 8.2995C15.427 7.57287 16.5567 7.45833 17.8209 7.96707C17.8995 7.99871 17.9878 7.99877 18.0664 7.96724C18.1451 7.93568 18.2083 7.87482 18.2415 7.79741C18.2746 7.71992 18.2747 7.63269 18.2416 7.55516C18.2086 7.47769 18.1455 7.41675 18.0668 7.38509C16.2166 6.6405 14.8666 7.19844 14.0613 7.79966Z" fill="white" stroke="white" stroke-width="0.132526"/>
<path d="M18.7574 4.52309C18.7656 4.48221 18.7654 4.44014 18.7567 4.39935C18.7481 4.35852 18.7313 4.31985 18.7073 4.28555C18.6833 4.25125 18.6527 4.22201 18.6172 4.19942C18.5818 4.17683 18.5422 4.16132 18.5007 4.15368C18.4593 4.14604 18.4167 4.14641 18.3753 4.15478C18.334 4.16314 18.2947 4.17935 18.2597 4.20256C18.2247 4.22577 18.1946 4.25556 18.1712 4.29028C18.1479 4.32494 18.1318 4.36383 18.1239 4.40472C18.0011 5.03156 17.7192 5.46788 17.2927 5.7139L17.2927 5.7139C16.8837 5.94984 16.3945 5.9851 15.9995 5.95827C15.8029 5.94491 15.6317 5.91631 15.5085 5.89069C15.447 5.8779 15.3976 5.86587 15.3632 5.85692C15.346 5.85245 15.3325 5.84874 15.3232 5.8461L15.3123 5.84297L15.3093 5.84207L15.3085 5.84182L15.3083 5.84178L15.3082 5.84174L15.3082 5.84173C15.2274 5.81651 15.1396 5.82335 15.0638 5.86093C14.988 5.89855 14.93 5.96416 14.9033 6.04392L14.9033 6.04396L17.6179 6.25739L17.5848 6.19993L17.6179 6.25738C18.2186 5.91221 18.6002 5.32516 18.7574 4.52309ZM18.7574 4.52309C18.7574 4.52313 18.7574 4.52317 18.7574 4.52321L18.6924 4.51023L18.7575 4.52298C18.7575 4.52302 18.7575 4.52305 18.7574 4.52309Z" fill="white" stroke="white" stroke-width="0.132526"/>
<path d="M14.5462 2.61854C14.5453 2.61854 14.5444 2.61862 14.5436 2.61878C14.541 2.61928 14.5384 2.62054 14.5361 2.62273C14.5354 2.62343 14.5347 2.62422 14.5341 2.62509C14.5328 2.62695 14.5318 2.62916 14.5313 2.63164C14.5311 2.63286 14.5309 2.63408 14.5309 2.6353L14.5436 2.63531L14.5462 2.61854ZM14.5462 2.61854V2.63223V2.63241V2.61854ZM14.5309 2.63545L14.5433 2.63551M14.5309 2.63545L14.5349 2.64132L14.5433 2.63551M14.5309 2.63545C14.531 2.63786 14.5315 2.64022 14.5324 2.64239C14.5324 2.64256 14.5325 2.64273 14.5326 2.6429C14.534 2.64594 14.5361 2.64825 14.5385 2.64977L14.5309 2.63545ZM14.5433 2.63551L14.5442 2.63552L14.5449 2.63552M14.5433 2.63551L14.5449 2.63552M14.5463 2.61854C14.548 2.61855 14.5497 2.61888 14.5513 2.61955C14.553 2.62021 14.5546 2.62123 14.5561 2.62262C14.5569 2.62337 14.5576 2.62424 14.5583 2.62522C14.5593 2.62673 14.5602 2.62845 14.5607 2.63031C14.5611 2.63189 14.5614 2.63358 14.5614 2.63532L14.5492 2.63531L14.549 2.63531H14.549L14.5483 2.63531M14.5463 2.61854L14.5483 2.63531M14.5463 2.61854L14.5463 2.63194L14.5464 2.63322L14.5464 2.63328L14.5463 2.61854ZM14.5483 2.63531L14.5479 2.63531L14.5468 2.63531L14.5464 2.63531M14.5483 2.63531L14.5464 2.63531M14.5449 2.63552L14.5462 2.63553V2.63651V2.63651V2.63753V2.63792V2.65208C14.5438 2.65208 14.5413 2.65146 14.539 2.65011L14.5449 2.63552ZM14.5464 2.63553L14.5464 2.63642V2.63642L14.5464 2.6376L14.5464 2.63774L14.5464 2.65208C14.5476 2.65208 14.5487 2.65192 14.5499 2.65161C14.5521 2.65101 14.5543 2.64982 14.5563 2.64795C14.557 2.64724 14.5577 2.64645 14.5583 2.64558C14.5598 2.6434 14.5609 2.64074 14.5612 2.63779C14.5613 2.63708 14.5614 2.63635 14.5614 2.63561L14.5503 2.63555L14.5485 2.63554M14.5464 2.63553L14.5485 2.63554M14.5464 2.63553L14.5468 2.63553L14.5477 2.63554L14.5484 2.63554H14.5484L14.5485 2.63554M14.5464 2.63553L14.5485 2.63554M14.5464 2.63531L14.5464 2.63473L14.5464 2.63343L14.5464 2.63531ZM14.5462 2.63531L14.545 2.63531L14.5462 2.63531ZM14.5462 2.63531V2.63469V2.63356V2.63531ZM14.0184 2.63527L14.0184 2.63534C14.0185 2.77221 14.0747 2.903 14.1738 2.99914C14.2729 3.09521 14.4068 3.1489 14.5461 3.14905H14.5462C14.6501 3.14905 14.7519 3.11917 14.8386 3.06298C14.9253 3.00677 14.9933 2.92666 15.0335 2.83256C15.0737 2.73842 15.0842 2.63472 15.0637 2.53464C15.0432 2.43459 14.9926 2.34297 14.9186 2.27125C14.8447 2.19956 14.7507 2.15095 14.6487 2.13128C14.5468 2.11161 14.441 2.12169 14.3449 2.16032C14.2487 2.19896 14.1661 2.26453 14.1079 2.34904C14.0496 2.43358 14.0184 2.53319 14.0184 2.63527Z" fill="white" stroke="white" stroke-width="0.132526"/>
<mask id="path-9-outside-1_1_337" maskUnits="userSpaceOnUse" x="20.1555" y="9.88879" width="3" height="3" fill="black">
<rect fill="white" x="20.1555" y="9.88879" width="3" height="3"/>
<path d="M21.617 10.8888C21.5257 10.8888 21.4365 10.915 21.3606 10.9642C21.2847 11.0134 21.2256 11.0833 21.1906 11.1651C21.1557 11.2468 21.1466 11.3368 21.1644 11.4236C21.1822 11.5104 21.2261 11.5902 21.2907 11.6528C21.3552 11.7153 21.4375 11.758 21.527 11.7752C21.6165 11.7925 21.7093 11.7836 21.7936 11.7498C21.878 11.7159 21.95 11.6585 22.0008 11.5849C22.0515 11.5114 22.0785 11.4248 22.0785 11.3363C22.0784 11.2177 22.0297 11.1039 21.9432 11.02C21.8567 10.9361 21.7394 10.8889 21.617 10.8888ZM21.617 11.3858C21.6069 11.3858 21.5971 11.3828 21.5887 11.3774C21.5803 11.372 21.5738 11.3642 21.5699 11.3552C21.5661 11.3462 21.5651 11.3362 21.5671 11.3266C21.569 11.3171 21.5739 11.3082 21.581 11.3013C21.5882 11.2944 21.5972 11.2897 21.6071 11.2878C21.617 11.2859 21.6273 11.2869 21.6366 11.2906C21.6459 11.2944 21.6539 11.3007 21.6595 11.3088C21.6651 11.317 21.6681 11.3265 21.6681 11.3363C21.668 11.3494 21.6626 11.362 21.653 11.3712C21.6435 11.3805 21.6305 11.3857 21.617 11.3858Z"/>
</mask>
<path d="M21.617 10.8888C21.5257 10.8888 21.4365 10.915 21.3606 10.9642C21.2847 11.0134 21.2256 11.0833 21.1906 11.1651C21.1557 11.2468 21.1466 11.3368 21.1644 11.4236C21.1822 11.5104 21.2261 11.5902 21.2907 11.6528C21.3552 11.7153 21.4375 11.758 21.527 11.7752C21.6165 11.7925 21.7093 11.7836 21.7936 11.7498C21.878 11.7159 21.95 11.6585 22.0008 11.5849C22.0515 11.5114 22.0785 11.4248 22.0785 11.3363C22.0784 11.2177 22.0297 11.1039 21.9432 11.02C21.8567 10.9361 21.7394 10.8889 21.617 10.8888ZM21.617 11.3858C21.6069 11.3858 21.5971 11.3828 21.5887 11.3774C21.5803 11.372 21.5738 11.3642 21.5699 11.3552C21.5661 11.3462 21.5651 11.3362 21.5671 11.3266C21.569 11.3171 21.5739 11.3082 21.581 11.3013C21.5882 11.2944 21.5972 11.2897 21.6071 11.2878C21.617 11.2859 21.6273 11.2869 21.6366 11.2906C21.6459 11.2944 21.6539 11.3007 21.6595 11.3088C21.6651 11.317 21.6681 11.3265 21.6681 11.3363C21.668 11.3494 21.6626 11.362 21.653 11.3712C21.6435 11.3805 21.6305 11.3857 21.617 11.3858Z" fill="white"/>
<path d="M22.0785 11.3363H22.2111L22.2111 11.3362L22.0785 11.3363ZM21.6681 11.3363L21.8006 11.337V11.3363L21.6681 11.3363ZM21.653 11.3712L21.5608 11.276L21.653 11.3712ZM21.617 10.7563C21.5004 10.7563 21.3861 10.7898 21.2886 10.853L21.4327 11.0754C21.4869 11.0403 21.5511 11.0213 21.617 11.0213V10.7563ZM21.2886 10.853C21.191 10.9162 21.1142 11.0066 21.0688 11.113L21.3125 11.2171C21.3369 11.16 21.3785 11.1105 21.4327 11.0754L21.2886 10.853ZM21.0688 11.113C21.0233 11.2195 21.0113 11.3369 21.0346 11.4503L21.2942 11.397C21.2818 11.3367 21.2881 11.2742 21.3125 11.2171L21.0688 11.113ZM21.0346 11.4503C21.0578 11.5636 21.1151 11.6671 21.1984 11.7479L21.3829 11.5576C21.3372 11.5133 21.3066 11.4573 21.2942 11.397L21.0346 11.4503ZM21.1984 11.7479C21.2818 11.8287 21.3874 11.8833 21.5019 11.9054L21.5521 11.6451C21.4875 11.6327 21.4287 11.602 21.3829 11.5576L21.1984 11.7479ZM21.5019 11.9054C21.6163 11.9274 21.735 11.9161 21.843 11.8727L21.7442 11.6268C21.6836 11.6511 21.6167 11.6576 21.5521 11.6451L21.5019 11.9054ZM21.843 11.8727C21.9511 11.8293 22.0441 11.7556 22.1099 11.6601L21.8916 11.5098C21.856 11.5615 21.8048 11.6025 21.7442 11.6268L21.843 11.8727ZM22.1099 11.6601C22.1757 11.5647 22.2111 11.452 22.2111 11.3363H21.946C21.946 11.3977 21.9273 11.458 21.8916 11.5098L22.1099 11.6601ZM22.2111 11.3362C22.2109 11.1811 22.1472 11.0333 22.0355 10.9249L21.8509 11.1152C21.9122 11.1746 21.9459 11.2543 21.946 11.3365L22.2111 11.3362ZM22.0355 10.9249C21.9238 10.8166 21.7733 10.7564 21.6172 10.7563L21.6169 11.0213C21.7054 11.0214 21.7895 11.0556 21.8509 11.1152L22.0355 10.9249ZM21.6171 11.2532C21.6324 11.2533 21.6476 11.2576 21.6608 11.2662L21.5166 11.4886C21.5466 11.5081 21.5815 11.5183 21.6169 11.5183L21.6171 11.2532ZM21.6608 11.2662C21.6742 11.2749 21.6852 11.2876 21.6918 11.3032L21.448 11.4072C21.4624 11.4409 21.4865 11.4691 21.5166 11.4886L21.6608 11.2662ZM21.6918 11.3032C21.6985 11.3189 21.7003 11.3364 21.6969 11.3533L21.4372 11.2999C21.4298 11.336 21.4336 11.3734 21.448 11.4072L21.6918 11.3032ZM21.6969 11.3533C21.6934 11.3702 21.6849 11.3852 21.6732 11.3965L21.4888 11.2062C21.4628 11.2313 21.4447 11.2639 21.4372 11.2999L21.6969 11.3533ZM21.6732 11.3965C21.6616 11.4078 21.6472 11.4151 21.6322 11.4179L21.5821 11.1577C21.5473 11.1644 21.5147 11.181 21.4888 11.2062L21.6732 11.3965ZM21.6322 11.4179C21.6172 11.4208 21.6016 11.4194 21.5872 11.4136L21.686 11.1677C21.653 11.1544 21.6169 11.151 21.5821 11.1577L21.6322 11.4179ZM21.5872 11.4136C21.5727 11.4078 21.5598 11.3977 21.5503 11.384L21.7686 11.2337C21.748 11.2037 21.7191 11.181 21.686 11.1677L21.5872 11.4136ZM21.5503 11.384C21.5409 11.3703 21.5355 11.3537 21.5355 11.3363L21.8006 11.3363C21.8006 11.2994 21.7893 11.2637 21.7686 11.2337L21.5503 11.384ZM21.5355 11.3356C21.5357 11.3125 21.5452 11.2911 21.5608 11.276L21.7453 11.4664C21.78 11.4328 21.8003 11.3864 21.8006 11.337L21.5355 11.3356ZM21.5608 11.276C21.5763 11.2611 21.5963 11.2533 21.6165 11.2532L21.6176 11.5183C21.6647 11.5181 21.7107 11.4999 21.7453 11.4664L21.5608 11.276Z" fill="white" mask="url(#path-9-outside-1_1_337)"/>
</g>
<defs>
<clipPath id="clip0_1_337">
<rect width="21.8668" height="21.2041" fill="white" transform="translate(0.522888 0.687378)"/>
</clipPath>
</defs>
</svg>
