<svg width="37" height="25" viewBox="0 0 37 25" fill="none" xmlns="http://www.w3.org/2000/svg">
<path d="M23.3545 9.96181L19.5066 9.31235V8.86775L24.3283 9.73763L25.8506 8.22276L25.0765 4.88196H25.4967L26.5857 9.66257L23.3545 9.96181Z" fill="white"/>
<path d="M29.468 16.6032L29.264 16.9888H29.2169L27.7152 12.5914L24.9719 13.2726L21.7853 16.8074L21.5257 16.4971L24.9719 12.5914L27.9195 11.9917L29.468 16.6032Z" fill="white"/>
<path d="M28.7276 10.0861L31.2869 9.6633V10.0861L28.8562 10.4554L28.7276 10.0861Z" fill="white"/>
<path d="M18.7492 15.797L17.4954 11.9692L17.7343 11.2523L19.2566 15.7969L18.7492 15.797Z" fill="white"/>
<path d="M22.8159 19.5389L22.7975 19.2897L27.0182 19.0489L29.4608 18.6267L29.5037 18.873L27.0488 19.2967L22.8159 19.5389Z" fill="white"/>
<path d="M19.0296 7.6128V7.21268L22.2213 5.06141L22.8078 5.03747L19.0296 7.6128Z" fill="white"/>
<path d="M27.6165 5.41333L27.575 5.49211L25.5803 5.6446C25.5803 5.6446 25.5677 5.64334 25.5426 5.63959C25.1861 5.59085 22.3691 5.20458 22.2611 5.18585C22.1457 5.16709 22.8938 4.8421 22.8938 4.8421L22.944 4.79334C23.3696 4.72335 23.8052 4.68833 24.2496 4.68833C25.451 4.68833 26.5908 4.94834 27.6165 5.41333Z" fill="white"/>
<path d="M19.7423 9.22227L17.6585 12.1378L16.2713 11.2172C16.5186 9.95053 17.0634 8.7913 17.8292 7.81068L17.8304 7.80946C18.541 7.44468 19.4536 6.99125 19.4988 6.96875L19.5 6.96749L19.7423 9.22227Z" fill="white"/>
<path d="M32.3476 12.2051L31.1224 9.95904L30.6115 7.74794C31.602 8.98839 32.2321 10.5262 32.3476 12.2051Z" fill="white"/>
<path d="M31.3474 16.0915L31.2318 16.896L31.2306 16.8972C30.8565 17.5243 30.3983 18.094 29.8736 18.5974C29.2848 19.1595 28.6119 19.6342 27.8738 20.0002L27.0265 19.1745L29.3501 16.6249L31.3474 16.0915Z" fill="white"/>
<path d="M18.2904 17.9285L18.767 15.6161L22.0144 16.3869L23.3551 19.4405L21.0313 20.152L18.2904 17.9285Z" fill="white"/>
<path d="M26.0574 7.89981L23.0916 9.79069L24.2886 13.5644H28.3222L29.1521 10.259L26.0574 7.89981Z" fill="white"/>
<path fill-rule="evenodd" clip-rule="evenodd" d="M24.2661 20.4054C28.479 20.4054 31.8942 16.9902 31.8942 12.7773C31.8942 8.56446 28.479 5.14924 24.2661 5.14924C20.0532 5.14924 16.638 8.56446 16.638 12.7773C16.638 16.9902 20.0532 20.4054 24.2661 20.4054ZM24.2661 21.2174C28.9274 21.2174 32.7062 17.4387 32.7062 12.7773C32.7062 8.11602 28.9274 4.33728 24.2661 4.33728C19.6048 4.33728 15.826 8.11602 15.826 12.7773C15.826 17.4387 19.6048 21.2174 24.2661 21.2174Z" fill="white"/>
<path fill-rule="evenodd" clip-rule="evenodd" d="M18.5897 19.9445C17.6677 19.2952 16.8751 18.4744 16.2584 17.5285C15.3524 16.139 14.8259 14.4796 14.8259 12.6971H11.0081C10.341 12.6971 9.8002 13.2379 9.8002 13.905C9.8002 14.566 10.3311 15.1029 10.9897 15.1128H7.38454C6.71745 15.1128 6.17666 15.6535 6.17666 16.3206C6.17666 16.9877 6.71745 17.5285 7.38454 17.5285L16.2584 17.5285L15.0348 17.5285C14.3676 17.5285 13.8268 18.0694 13.8268 18.7365C13.8268 19.4036 14.3676 19.9445 15.0348 19.9445H18.5897ZM14.8259 12.6969C14.8259 11.8594 14.9421 11.049 15.1593 10.2811H1.34497C0.677873 10.2811 0.137085 10.8219 0.137085 11.489C0.137085 12.1561 0.677873 12.6969 1.34497 12.6969H14.8259ZM15.1594 10.281C15.7192 8.30195 16.9496 6.60446 18.5897 5.44958H4.16357C3.49647 5.44958 2.95569 5.99037 2.95569 6.65747C2.95569 7.32456 3.49647 7.86535 4.16357 7.86535H9.38351C8.72318 7.87322 8.19031 8.41096 8.19031 9.07315C8.19031 9.74024 8.7311 10.281 9.3982 10.281H15.1594Z" fill="white"/>
</svg>
