<svg width="17" height="17" viewBox="0 0 17 17" fill="none" xmlns="http://www.w3.org/2000/svg">
<path d="M8.5 0C7.21181 0 5.97637 0.447767 5.06548 1.2448C4.15459 2.04183 3.64286 3.12283 3.64286 4.25C3.64286 5.37717 4.15459 6.45817 5.06548 7.2552C5.97637 8.05223 7.21181 8.5 8.5 8.5C9.78819 8.5 11.0236 8.05223 11.9345 7.2552C12.8454 6.45817 13.3571 5.37717 13.3571 4.25C13.3571 3.12283 12.8454 2.04183 11.9345 1.2448C11.0236 0.447767 9.78819 0 8.5 0ZM2.4395 9.5625C2.1197 9.56138 1.8028 9.61551 1.50696 9.72179C1.21112 9.82807 0.942169 9.9844 0.715529 10.1818C0.488889 10.3792 0.309017 10.6139 0.186231 10.8722C0.0634439 11.1306 0.000157265 11.4077 0 11.6875C0 13.4842 1.0115 14.8389 2.5925 15.7218C4.14921 16.5899 6.2475 17 8.5 17C10.7525 17 12.8508 16.5899 14.4075 15.7218C15.9885 14.8399 17 13.4831 17 11.6875C17 11.1239 16.7441 10.5834 16.2887 10.1849C15.8332 9.78638 15.2155 9.5625 14.5714 9.5625H2.4395Z" fill="#F2F2F2"/>
</svg>
