<svg width="175" height="61" viewBox="0 0 175 61" fill="none" xmlns="http://www.w3.org/2000/svg">
<path d="M34.5085 46.7455L23.3541 34.5884C23.2707 34.5011 23.2596 34.3673 23.3276 34.2675L27.8538 33.0884C27.9685 32.92 28.2245 32.9467 28.3019 33.1352L34.9302 46.4714C35.0377 46.733 34.704 46.9499 34.5085 46.7455Z" fill="#C9C9C9"/>
<path fill-rule="evenodd" clip-rule="evenodd" d="M23.2012 19.6388C23.2012 19.5147 23.2902 19.4085 23.4124 19.3868L54.9171 13.8009C55.0739 13.7731 55.2177 13.8936 55.2177 14.0528V27.8402L30.8772 31.2631C29.7588 31.4204 28.8848 32.308 28.7447 33.4287L28.7085 33.7181L23.5017 34.6413C23.345 34.6691 23.2012 34.5485 23.2012 34.3893V19.6388ZM31.0165 32.2534L60.6365 28.088L61.0792 28.0673C61.2447 28.0595 61.3738 28.2087 61.3424 28.3714L58.831 41.3652C58.8086 41.481 58.7099 41.5665 58.5921 41.5722L28.5566 43.0238L28.553 43.0239L29.7369 33.5527C29.821 32.8803 30.3454 32.3477 31.0165 32.2534ZM48.3078 17.5137L51.2029 16.9379L51.1194 18.6216L48.2243 19.1975L47.8271 27.2036L45.7031 27.6261L46.1003 19.62L43.264 20.1842L43.3475 18.5004L46.1838 17.9362L48.3078 17.5137ZM42.303 26.6419L42.2198 28.319L37.8804 29.1822L37.155 29.3265L35.7499 29.606L36.2306 19.9161L37.6357 19.6366L38.3611 19.4923L42.707 18.6278L42.6235 20.3116L38.2775 21.176L38.1676 23.3922L41.8535 22.659L41.773 24.2829L38.087 25.016L37.9636 27.5051L42.303 26.6419ZM31.1606 26.374L29.4876 26.7068L29.3631 29.2158L30.9512 28.8999C31.278 28.8349 31.5464 28.7288 31.7564 28.5816C31.9665 28.4344 32.1239 28.2603 32.2288 28.0593C32.3337 27.8583 32.3917 27.6447 32.403 27.4184C32.4162 27.1522 32.3819 26.9306 32.3001 26.7536C32.2226 26.5757 32.0907 26.4526 31.9043 26.3843C31.7222 26.315 31.4743 26.3116 31.1606 26.374ZM30.7947 25.0103L29.5596 25.256L29.6771 22.8868L30.9188 22.6398C31.2717 22.5696 31.5572 22.5545 31.7752 22.5946C31.9978 22.6294 32.157 22.7252 32.2527 22.8818C32.3485 23.0385 32.3892 23.261 32.3749 23.5494C32.3624 23.8023 32.2995 24.0257 32.1864 24.2195C32.0734 24.4089 31.9015 24.5705 31.6705 24.7043C31.4439 24.8372 31.152 24.9392 30.7947 25.0103ZM33.336 25.0451C33.2547 25.1053 33.1681 25.1623 33.076 25.2162C33.2639 25.2277 33.4301 25.2625 33.5747 25.3205C33.9304 25.4563 34.1803 25.6789 34.3246 25.9885C34.4688 26.2981 34.5315 26.6436 34.5126 27.0252C34.4813 27.6552 34.3222 28.2096 34.0353 28.6884C33.7486 29.1628 33.3386 29.5584 32.8052 29.8754C32.2762 30.1915 31.6305 30.4254 30.868 30.577L29.2799 30.8929L27.9663 31.1542L27.1494 31.3167L27.6301 21.6268L31.0023 20.956C31.5731 20.8425 32.0802 20.7943 32.5237 20.8116C32.9671 20.8288 33.3402 20.9171 33.6429 21.0765C33.95 21.2351 34.178 21.4643 34.3271 21.7641C34.4761 22.064 34.5394 22.4402 34.517 22.8927C34.4974 23.2876 34.392 23.6732 34.2007 24.0495C34.0139 24.4249 33.7256 24.7568 33.336 25.0451ZM37.7962 39.1903V40.3899L33.5653 40.6117L32.8379 40.6498L32.4623 40.6695V39.8221L35.8443 34.7654L32.4528 34.9431V33.7387L36.6791 33.5173L37.2305 33.4884L37.744 33.4615V34.2898L34.3867 39.369L37.7962 39.1903ZM44.2711 36.7421V36.4327C44.2711 35.9058 44.1982 35.4368 44.0524 35.0255C43.9066 34.611 43.7006 34.2632 43.4344 33.982C43.1714 33.7007 42.8576 33.4918 42.4931 33.3554C42.1287 33.2158 41.7262 33.1575 41.2856 33.1806C40.8451 33.2037 40.4426 33.3042 40.0781 33.4819C39.7137 33.6565 39.3983 33.8984 39.1321 34.2075C38.869 34.5164 38.6646 34.8858 38.5188 35.3155C38.3731 35.7421 38.3002 36.2188 38.3002 36.7456V37.055C38.3002 37.5818 38.3731 38.0509 38.5188 38.4622C38.6646 38.8734 38.8706 39.2197 39.1369 39.5009C39.4062 39.7819 39.7232 39.9922 40.0876 40.1318C40.4521 40.2682 40.8546 40.3249 41.2951 40.3018C41.7357 40.2787 42.1366 40.1799 42.4979 40.0055C42.8623 39.8277 43.1761 39.5843 43.4392 39.2754C43.7054 38.9663 43.9098 38.5986 44.0524 38.1722C44.1982 37.7456 44.2711 37.2689 44.2711 36.7421ZM42.7071 36.5051V36.8241C42.7071 37.1732 42.6754 37.4858 42.612 37.7621C42.5518 38.035 42.4614 38.2682 42.341 38.4618C42.2206 38.6553 42.0716 38.8044 41.8941 38.9089C41.7198 39.0132 41.5202 39.0713 41.2951 39.0831C41.0606 39.0954 40.8546 39.0586 40.6771 38.9727C40.5028 38.8866 40.3554 38.7531 40.235 38.5722C40.1146 38.3912 40.0227 38.1675 39.9593 37.9011C39.8991 37.6313 39.869 37.3219 39.869 36.9728V36.6538C39.869 36.3016 39.8991 35.989 39.9593 35.7161C40.0227 35.4398 40.113 35.2066 40.2303 35.0164C40.3507 34.826 40.4981 34.6802 40.6724 34.579C40.8467 34.4747 41.0511 34.4164 41.2856 34.4041C41.5106 34.3923 41.7119 34.4293 41.8894 34.5152C42.0669 34.598 42.2158 34.7282 42.3362 34.906C42.4567 35.0837 42.5486 35.3074 42.612 35.577C42.6754 35.8435 42.7071 36.1528 42.7071 36.5051ZM50.9313 32.7703V39.7015L49.3863 39.7825L46.7717 35.44V39.9195L45.2219 40.0008V33.0696L46.7717 32.9883L49.3911 37.3306V32.8511L50.9313 32.7703ZM56.7834 39.3949V38.1952L53.6268 38.3606V36.5802L56.308 36.4397V35.2782L53.6268 35.4187V33.8335L56.7882 33.6678V32.4634L53.6268 32.6291L53.0991 32.6567L52.077 32.7103V39.6415L53.0991 39.5879L53.6268 39.5603L56.7834 39.3949Z" fill="white"/>
<path d="M76.5594 36.3118V24.1283H80.8189C81.6676 24.1283 82.3676 24.2751 82.9189 24.5685C83.4701 24.8581 83.8806 25.2487 84.1503 25.7405C84.42 26.2283 84.5548 26.7697 84.5548 27.3646C84.5548 27.8881 84.4616 28.3203 84.2752 28.6614C84.0928 29.0025 83.8509 29.2722 83.5495 29.4705C83.252 29.6688 82.9288 29.8155 82.5798 29.9107V30.0297C82.9526 30.0535 83.3274 30.1844 83.7041 30.4223C84.0809 30.6603 84.3962 31.0013 84.65 31.4455C84.9038 31.8897 85.0307 32.4331 85.0307 33.0755C85.0307 33.6863 84.8919 34.2356 84.6143 34.7234C84.3367 35.2112 83.8985 35.5979 83.2996 35.8834C82.7007 36.169 81.9214 36.3118 80.9617 36.3118H76.5594ZM78.0348 35.003H80.9617C81.9254 35.003 82.6095 34.8166 83.0141 34.4438C83.4225 34.067 83.6268 33.6109 83.6268 33.0755C83.6268 32.6631 83.5217 32.2823 83.3115 31.9333C83.1013 31.5804 82.8019 31.2988 82.4132 31.0886C82.0245 30.8744 81.5645 30.7674 81.0331 30.7674H78.0348V35.003ZM78.0348 29.4824H80.7713C81.2155 29.4824 81.616 29.3951 81.973 29.2206C82.3339 29.0461 82.6194 28.8002 82.8296 28.483C83.0438 28.1657 83.1509 27.7929 83.1509 27.3646C83.1509 26.8291 82.9645 26.375 82.5917 26.0022C82.2189 25.6255 81.6279 25.4371 80.8189 25.4371H78.0348V29.4824ZM87.4549 36.3118V24.1283H94.8078V25.4371H88.9303V29.5538H94.4271V30.8625H88.9303V35.003H94.903V36.3118H87.4549ZM96.8007 25.4371V24.1283H105.938V25.4371H102.107V36.3118H100.632V25.4371H96.8007ZM107.811 36.3118V35.241L114.378 25.4371H107.739V24.1283H116.139V25.1991L109.572 35.003H116.211V36.3118H107.811ZM128.393 30.22C128.393 31.505 128.161 32.6155 127.697 33.5515C127.233 34.4874 126.596 35.2092 125.787 35.7169C124.978 36.2245 124.054 36.4783 123.015 36.4783C121.976 36.4783 121.052 36.2245 120.243 35.7169C119.433 35.2092 118.797 34.4874 118.333 33.5515C117.869 32.6155 117.637 31.505 117.637 30.22C117.637 28.9351 117.869 27.8246 118.333 26.8886C118.797 25.9527 119.433 25.2309 120.243 24.7232C121.052 24.2156 121.976 23.9618 123.015 23.9618C124.054 23.9618 124.978 24.2156 125.787 24.7232C126.596 25.2309 127.233 25.9527 127.697 26.8886C128.161 27.8246 128.393 28.9351 128.393 30.22ZM126.965 30.22C126.965 29.1651 126.788 28.2747 126.435 27.549C126.086 26.8232 125.612 26.2739 125.014 25.9011C124.419 25.5283 123.752 25.3419 123.015 25.3419C122.277 25.3419 121.609 25.5283 121.01 25.9011C120.415 26.2739 119.941 26.8232 119.588 27.549C119.239 28.2747 119.065 29.1651 119.065 30.22C119.065 31.275 119.239 32.1654 119.588 32.8911C119.941 33.6169 120.415 34.1662 121.01 34.539C121.609 34.9118 122.277 35.0982 123.015 35.0982C123.752 35.0982 124.419 34.9118 125.014 34.539C125.612 34.1662 126.086 33.6169 126.435 32.8911C126.788 32.1654 126.965 31.275 126.965 30.22ZM140.534 24.1283V36.3118H139.107L132.468 26.7459H132.349V36.3118H130.873V24.1283H132.301L138.964 33.718H139.083V24.1283H140.534ZM143.487 36.3118V24.1283H150.839V25.4371H144.962V29.5538H150.459V30.8625H144.962V35.003H150.935V36.3118H143.487Z" fill="white"/>
</svg>
