<svg width="105" height="61" viewBox="0 0 105 61" fill="none" xmlns="http://www.w3.org/2000/svg">
<rect x="0.777344" width="103.917" height="60.0732" rx="3.04586" fill="white" fill-opacity="0.3"/>
<path d="M41.1827 27.6605C41.0519 27.2599 40.8793 26.901 40.6652 26.5837C40.455 26.2625 40.2031 25.9889 39.9097 25.7628C39.6201 25.5367 39.291 25.3642 38.9221 25.2452C38.5533 25.1263 38.1488 25.0668 37.7085 25.0668C36.9867 25.0668 36.3304 25.2532 35.7394 25.626C35.1485 25.9988 34.6786 26.5481 34.3295 27.2738C33.9805 27.9996 33.806 28.89 33.806 29.9449C33.806 30.9998 33.9825 31.8902 34.3355 32.616C34.6885 33.3417 35.1664 33.891 35.7692 34.2638C36.372 34.6366 37.0502 34.823 37.8037 34.823C38.5017 34.823 39.1165 34.6743 39.6479 34.3769C40.1833 34.0755 40.5997 33.6511 40.8972 33.1038C41.1986 32.5525 41.3493 31.9041 41.3493 31.1585L41.8014 31.2537H38.1369V29.9449H42.777V31.2537C42.777 32.2571 42.5629 33.1296 42.1346 33.8712C41.7102 34.6128 41.1232 35.1879 40.3737 35.5964C39.6281 36.0009 38.7714 36.2032 37.8037 36.2032C36.725 36.2032 35.7771 35.9494 34.9601 35.4417C34.1471 34.9341 33.5126 34.2123 33.0565 33.2763C32.6044 32.3403 32.3783 31.2299 32.3783 29.9449C32.3783 28.9812 32.5072 28.1146 32.765 27.3452C33.0267 26.5718 33.3956 25.9135 33.8715 25.3702C34.3474 24.8268 34.9106 24.4104 35.561 24.1209C36.2114 23.8314 36.9273 23.6866 37.7085 23.6866C38.351 23.6866 38.9499 23.7838 39.5051 23.9781C40.0643 24.1685 40.5621 24.4401 40.9983 24.7931C41.4385 25.1421 41.8054 25.5605 42.0989 26.0483C42.3924 26.5322 42.5946 27.0696 42.7057 27.6605H41.1827ZM46.7792 23.8532V36.0366H45.3039V23.8532H46.7792ZM46.0415 22.3302C45.7679 22.3302 45.5319 22.237 45.3336 22.0506C45.1393 21.8642 45.0421 21.6402 45.0421 21.3784C45.0421 21.1167 45.1393 20.8926 45.3336 20.7062C45.5319 20.5198 45.7679 20.4266 46.0415 20.4266C46.3152 20.4266 46.5492 20.5198 46.7435 20.7062C46.9418 20.8926 47.041 21.1167 47.041 21.3784C47.041 21.6402 46.9418 21.8642 46.7435 22.0506C46.5492 22.237 46.3152 22.3302 46.0415 22.3302ZM49.7373 36.0366V23.8532H53.854C54.8058 23.8532 55.5871 24.0158 56.1979 24.341C56.8086 24.6622 57.2607 25.1044 57.5542 25.6676C57.8477 26.2308 57.9945 26.8713 57.9945 27.5891C57.9945 28.307 57.8477 28.9435 57.5542 29.4987C57.2607 30.054 56.8106 30.4902 56.2038 30.8075C55.597 31.1208 54.8217 31.2775 53.8778 31.2775H50.5464V29.9449H53.8302C54.4806 29.9449 55.0041 29.8497 55.4007 29.6594C55.8013 29.469 56.0908 29.1993 56.2693 28.8503C56.4517 28.4973 56.5429 28.0769 56.5429 27.5891C56.5429 27.1013 56.4517 26.675 56.2693 26.3101C56.0868 25.9452 55.7953 25.6636 55.3948 25.4653C54.9942 25.2631 54.4647 25.1619 53.8064 25.1619H51.2127V36.0366H49.7373ZM55.4721 30.5636L58.4704 36.0366H56.7571L53.8064 30.5636H55.4721ZM61.9282 23.8532V36.0366H60.4529V23.8532H61.9282ZM61.1905 22.3302C60.9169 22.3302 60.6809 22.237 60.4826 22.0506C60.2883 21.8642 60.1911 21.6402 60.1911 21.3784C60.1911 21.1167 60.2883 20.8926 60.4826 20.7062C60.6809 20.5198 60.9169 20.4266 61.1905 20.4266C61.4642 20.4266 61.6982 20.5198 61.8925 20.7062C62.0908 20.8926 62.1899 21.1167 62.1899 21.3784C62.1899 21.6402 62.0908 21.8642 61.8925 22.0506C61.6982 22.237 61.4642 22.3302 61.1905 22.3302ZM71.5491 26.899C71.4777 26.2962 71.1882 25.8282 70.6806 25.4951C70.1729 25.1619 69.5503 24.9954 68.8126 24.9954C68.2732 24.9954 67.8013 25.0826 67.3968 25.2571C66.9962 25.4316 66.6829 25.6716 66.4568 25.977C66.2347 26.2823 66.1237 26.6294 66.1237 27.018C66.1237 27.3432 66.201 27.6228 66.3557 27.8568C66.5143 28.0868 66.7166 28.2792 66.9625 28.4339C67.2084 28.5846 67.4662 28.7095 67.7359 28.8087C68.0055 28.9038 68.2534 28.9812 68.4795 29.0407L69.7169 29.3738C70.0341 29.4571 70.3871 29.5721 70.7758 29.7188C71.1684 29.8656 71.5432 30.0659 71.9001 30.3197C72.261 30.5695 72.5585 30.8908 72.7925 31.2834C73.0264 31.676 73.1434 32.1579 73.1434 32.729C73.1434 33.3874 72.9709 33.9823 72.6259 34.5137C72.2848 35.0451 71.7851 35.4675 71.1268 35.7808C70.4724 36.0941 69.6772 36.2508 68.7412 36.2508C67.8687 36.2508 67.1132 36.11 66.4747 35.8284C65.8401 35.5468 65.3404 35.1542 64.9755 34.6505C64.6146 34.1468 64.4104 33.5619 64.3628 32.8956H65.8857C65.9254 33.3556 66.0801 33.7364 66.3497 34.0378C66.6234 34.3352 66.9684 34.5573 67.3849 34.7041C67.8053 34.8468 68.2574 34.9182 68.7412 34.9182C69.3044 34.9182 69.8101 34.827 70.2582 34.6446C70.7064 34.4582 71.0613 34.2004 71.3231 33.8712C71.5848 33.5381 71.7157 33.1494 71.7157 32.7052C71.7157 32.3007 71.6027 31.9715 71.3766 31.7177C71.1505 31.4639 70.8531 31.2576 70.4843 31.099C70.1154 30.9404 69.7169 30.8015 69.2885 30.6826L67.7894 30.2542C66.8376 29.9806 66.084 29.5899 65.5288 29.0823C64.9736 28.5747 64.6959 27.9104 64.6959 27.0894C64.6959 26.4073 64.8804 25.8124 65.2492 25.3047C65.622 24.7931 66.1217 24.3965 66.7483 24.1149C67.3789 23.8294 68.0829 23.6866 68.8602 23.6866C69.6455 23.6866 70.3435 23.8274 70.9542 24.109C71.565 24.3866 72.0488 24.7673 72.4058 25.2512C72.7667 25.735 72.957 26.2843 72.9769 26.899H71.5491ZM68.1463 35.989H69.3123L69.2171 36.4649C69.5265 36.5125 69.8101 36.6414 70.0678 36.8516C70.3256 37.0658 70.4545 37.4049 70.4545 37.8689C70.4545 38.3805 70.2423 38.7969 69.818 39.1182C69.3976 39.4434 68.7769 39.606 67.956 39.606L67.9084 38.678C68.2772 38.678 68.5826 38.6185 68.8245 38.4995C69.0704 38.3845 69.1933 38.1901 69.1933 37.9165C69.1933 37.6428 69.0922 37.4564 68.8899 37.3573C68.6877 37.2581 68.3605 37.1907 67.9084 37.155L68.1463 35.989Z" fill="white"/>
</svg>
