<svg width="234" height="61" viewBox="0 0 234 61" fill="none" xmlns="http://www.w3.org/2000/svg">
<g clip-path="url(#clip0_82_343)">
<path d="M25.3149 30.5887C25.3495 30.6414 25.3942 30.6868 25.4466 30.7224C25.4989 30.758 25.5577 30.7832 25.6198 30.7966C25.6818 30.81 25.7459 30.8114 25.8085 30.8007C25.8711 30.7901 25.931 30.7676 25.9849 30.7344L27.1911 29.9909V39.3047V39.3049C27.1918 39.9329 27.4495 40.5345 27.9065 40.9776C28.3634 41.4206 28.9823 41.6693 29.6272 41.67H29.6273H44.038H44.0381C44.6829 41.6693 45.3018 41.4206 45.7586 40.9776C46.2156 40.5344 46.4733 39.9329 46.474 39.3049V39.3047V29.1491C46.474 29.0863 46.4612 29.0242 46.4365 28.9663C46.4118 28.9084 46.3756 28.8561 46.3303 28.8121C46.285 28.7681 46.2313 28.7334 46.1724 28.7098C46.1136 28.6862 46.0507 28.6741 45.9872 28.6741C45.9871 28.6741 45.9871 28.6741 45.9871 28.6741H29.3267L43.7591 19.7759C43.7591 19.7759 43.7591 19.7759 43.7591 19.7759C43.813 19.7426 43.8598 19.6993 43.8968 19.6483C43.9337 19.5972 43.96 19.5394 43.9741 19.4781C43.9882 19.4168 43.9897 19.3535 43.9785 19.2916C43.9673 19.2298 43.9437 19.1708 43.9091 19.1182C43.9091 19.1182 43.9091 19.1181 43.9091 19.1181L42.4494 16.892L42.4494 16.8919C42.1018 16.3631 41.5526 15.9903 40.923 15.8544C40.2934 15.7184 39.6338 15.8301 39.0886 16.1654L39.0885 16.1655L37.2151 17.3206L37.3297 16.7889C37.3973 16.5005 37.4056 16.2019 37.354 15.9103C37.3024 15.6185 37.1918 15.3396 37.0288 15.0896C36.8658 14.8396 36.6536 14.6235 36.4045 14.4536C36.1555 14.2837 35.8744 14.1634 35.5775 14.0993C35.2806 14.0352 34.9736 14.0286 34.6741 14.0799C34.3745 14.1312 34.0883 14.2394 33.8318 14.3985C33.5752 14.5575 33.3534 14.7642 33.1792 15.0069C33.0051 15.2496 32.8819 15.5234 32.8171 15.8126C32.817 15.8127 32.817 15.8128 32.817 15.8129L31.7622 20.407L28.2525 19.6495C27.6911 19.5282 27.1032 19.6143 26.6036 19.8915C26.1039 20.1686 25.7281 20.6171 25.5507 21.1499C25.3732 21.6827 25.4073 22.2606 25.6461 22.7702C25.8583 23.2231 26.2184 23.5926 26.6673 23.8237L24.6044 25.0956L24.6043 25.0957C24.0598 25.4322 23.6744 25.965 23.5336 26.5779C23.3929 27.1909 23.5087 27.8327 23.8552 28.3625L23.8553 28.3626L25.3149 30.5887ZM25.3149 30.5887L25.3986 30.5339M25.3149 30.5887L25.3149 30.5888L25.3986 30.5339M25.3986 30.5339L23.9389 28.3077L27.1911 29.8734L25.9324 30.6492C25.8896 30.6757 25.8418 30.6936 25.7917 30.7022C25.7417 30.7107 25.6905 30.7095 25.6409 30.6988C25.5913 30.6881 25.5444 30.668 25.5028 30.6397C25.4612 30.6115 25.4258 30.5755 25.3986 30.5339ZM40.3914 16.6465L40.3914 16.7465C40.4995 16.7465 40.6074 16.7581 40.7129 16.7809L40.7132 16.781C40.9011 16.8211 41.0788 16.8969 41.2361 17.0038C41.3933 17.1108 41.5269 17.2468 41.6293 17.4039L41.6295 17.4041L42.8253 19.2278L36.9048 22.8782L34.9239 19.8571L39.6085 16.9687L39.6087 16.9686C39.8422 16.8238 40.1138 16.7466 40.3915 16.7465L40.3914 16.6465ZM40.3914 16.6465C40.5067 16.6465 40.6215 16.6589 40.734 16.6832C40.9345 16.7259 41.1243 16.8068 41.2924 16.9212C41.4604 17.0355 41.6034 17.181 41.7131 17.3493L39.556 16.8836C39.8055 16.7289 40.0953 16.6467 40.3914 16.6465ZM36.0698 18.0188L32.8507 20.011L33.7669 16.0204C33.8443 15.6861 34.0557 15.3945 34.3556 15.2103C34.6557 15.026 35.0194 14.9646 35.3666 15.0402C35.7137 15.1158 36.0147 15.3217 36.2041 15.6117C36.3935 15.9016 36.4561 16.252 36.3787 16.5862L36.3784 16.5877L36.0698 18.0188ZM28.0422 20.5771L28.061 20.4897L28.0422 20.5771L30.922 21.1988L27.7014 23.1564L27.4592 23.1041L27.459 23.1041C27.287 23.0674 27.1244 22.9981 26.9805 22.9002C26.8367 22.8024 26.7145 22.678 26.6208 22.5343L26.5371 22.5889L26.6207 22.5341C26.4791 22.3181 26.4069 22.0666 26.4128 21.8113C26.4188 21.556 26.5027 21.3079 26.6543 21.0983C26.806 20.8887 27.0187 20.7269 27.2658 20.6339C27.513 20.541 27.7832 20.5211 28.0422 20.5771ZM30.7416 22.4356L34.1007 20.3646L36.0816 23.3856L32.7225 25.4566L30.7416 22.4356ZM31.8994 25.9641L25.8742 29.679L24.6754 27.8506C24.4683 27.5339 24.3994 27.151 24.4833 26.7856C24.5672 26.4201 24.7974 26.101 25.1245 25.8987L29.9186 22.943L31.8994 25.9641ZM33.2432 40.72H29.6274C29.2386 40.7196 28.8665 40.5696 28.5925 40.3039C28.3186 40.0383 28.1651 39.6789 28.1647 39.3046V29.6241H33.2434L33.2432 40.72ZM38.1586 40.72H34.2166V29.6241H38.1586V40.72ZM45.5004 39.3046C45.5 39.6788 45.3465 40.0383 45.0727 40.3038C44.7987 40.5695 44.4266 40.7195 44.0378 40.72H39.1321V29.6241H45.5004V39.3046Z" fill="white" stroke="white" stroke-width="0.2"/>
<path d="M50.594 24.3391L50.594 24.3391L50.4184 25.332L51.1626 26.0356C51.1626 26.0356 51.1627 26.0356 51.1627 26.0356C51.2279 26.0972 51.2744 26.1757 51.2964 26.2622C51.3185 26.3488 51.3151 26.4397 51.2867 26.5245C51.2583 26.6092 51.2062 26.6841 51.1366 26.741C51.0671 26.7978 50.9829 26.8344 50.8936 26.847M50.594 24.3391L50.8797 26.7479M50.594 24.3391C50.6095 24.2512 50.5993 24.1608 50.5648 24.0784C50.5302 23.996 50.4727 23.9251 50.3993 23.8733C50.3259 23.8216 50.2393 23.791 50.1494 23.7846C50.0595 23.7783 49.9694 23.7965 49.8892 23.8373L49.8892 23.8373L48.966 24.3079L48.0427 23.8373C48.0427 23.8373 48.0427 23.8373 48.0427 23.8373C47.9626 23.7964 47.8724 23.7782 47.7825 23.7845C47.6925 23.7908 47.6059 23.8214 47.5324 23.8732C47.459 23.9249 47.4015 23.9959 47.3669 24.0783C47.3323 24.1608 47.3222 24.2512 47.3377 24.3391C47.3377 24.3391 47.3377 24.3391 47.3377 24.3391L47.5133 25.332L46.7689 26.0356M50.594 24.3391L46.7689 26.0356M50.8936 26.847L50.8797 26.7479M50.8936 26.847L50.8936 26.847L50.8797 26.7479M50.8936 26.847L49.8624 26.9923M50.8797 26.7479L49.7968 26.9006M49.8624 26.9923L49.886 26.9459L49.7968 26.9006M49.8624 26.9923L49.4017 27.8975M49.8624 26.9923L49.8108 26.9996L49.7968 26.9006M49.7968 26.9006L49.4017 27.8975M49.4017 27.8975L49.3126 27.8521L49.4017 27.8975C49.4017 27.8975 49.4017 27.8975 49.4017 27.8975ZM46.7689 26.0356L46.8375 26.1083L46.7689 26.0356M46.7689 26.0356C46.7689 26.0356 46.7689 26.0356 46.7689 26.0356M46.7689 26.0356L46.7689 26.0356M49.7735 26.0447L49.5563 25.8394L49.5563 25.8394C49.4996 25.7859 49.457 25.7195 49.4323 25.6459C49.4077 25.5722 49.4018 25.4938 49.4154 25.4174L49.4673 25.1237L49.1912 25.2645C49.1912 25.2645 49.1912 25.2645 49.1912 25.2645C49.1215 25.3 49.0442 25.3185 48.9658 25.3185C48.8874 25.3185 48.81 25.3 48.7404 25.2645M49.7735 26.0447L48.7858 25.1754M49.7735 26.0447L49.4705 26.0874C49.3929 26.0983 49.319 26.1274 49.2551 26.1723C49.1913 26.2173 49.1394 26.2769 49.1041 26.3461L49.1041 26.3462L48.9658 26.618L48.8274 26.3462C48.7921 26.2769 48.7402 26.2173 48.6764 26.1724C48.6126 26.1274 48.5387 26.0983 48.4611 26.0874L48.4611 26.0874L48.158 26.0447L48.3752 25.8394C48.3752 25.8394 48.3752 25.8394 48.3752 25.8394C48.4319 25.7859 48.4745 25.7195 48.4992 25.6459C48.5239 25.5723 48.5297 25.4938 48.5162 25.4174L48.5162 25.4174L48.4642 25.1237M49.7735 26.0447L48.3526 25.0668M48.7404 25.2645L48.7858 25.1754M48.7404 25.2645L48.7404 25.2645L48.7858 25.1754M48.7404 25.2645L48.4642 25.1237M48.7858 25.1754L48.4424 25.0003L48.4642 25.1237M48.4642 25.1237L48.3526 25.0668M48.3526 25.0668L48.3308 24.9434L48.3526 25.0668Z" fill="white" stroke="white" stroke-width="0.2"/>
<path d="M54.7587 20.2006L54.7816 20.1032C54.8694 20.1239 54.9497 20.1681 55.0135 20.2311C55.0773 20.2942 55.122 20.3736 55.1421 20.4606C55.1621 20.5476 55.1567 20.6384 55.1264 20.7225C55.0961 20.8065 55.0424 20.8802 54.9716 20.9356L54.91 20.8568L54.9716 20.9356L54.1623 21.5686L54.2409 22.5732L54.2409 22.5732C54.2479 22.6622 54.229 22.7512 54.1866 22.83C54.1443 22.9088 54.0803 22.9741 54.0023 23.0188C53.9243 23.0636 53.8352 23.0862 53.745 23.0842C53.6548 23.0823 53.5668 23.056 53.4908 23.0079M54.7587 20.2006L52.6273 22.3436M54.7587 20.2006L54.7816 20.1032L53.7691 19.8646L53.3983 18.9219C53.3983 18.9219 53.3983 18.9219 53.3982 18.9219C53.3655 18.8387 53.3097 18.7665 53.2374 18.7131C53.1651 18.6598 53.0791 18.6273 52.9893 18.6191C52.8995 18.6109 52.809 18.6272 52.7279 18.6663C52.6469 18.7055 52.5783 18.7661 52.5302 18.8416L51.9837 19.7012L50.9425 19.752L50.9425 19.752C50.8524 19.7564 50.7652 19.7851 50.6906 19.8353C50.616 19.8854 50.557 19.9551 50.5205 20.0368C50.4841 20.1184 50.4719 20.2086 50.4855 20.2968C50.499 20.3851 50.5377 20.4675 50.5968 20.535L50.5968 20.535L51.2696 21.3032M54.7587 20.2006L50.9988 22.2755M53.4908 23.0079L53.5443 22.9234L53.4909 23.008L53.4908 23.0079ZM53.4908 23.0079L52.617 22.4554M52.617 22.4554L52.6644 22.4365L52.6273 22.3436M52.617 22.4554L51.6524 22.8399L51.6524 22.8399C51.5688 22.8732 51.4774 22.8832 51.3884 22.8687C51.2994 22.8542 51.216 22.8158 51.1477 22.7575C51.0795 22.6992 51.029 22.6231 51.0026 22.5378C50.9761 22.4525 50.9748 22.3615 50.9988 22.2755M52.617 22.4554L52.5739 22.4281L52.6273 22.3436M52.6273 22.3436L50.9988 22.2755M50.9988 22.2755L51.0951 22.3023L50.9988 22.2755L51.2696 21.3032M51.2696 21.3032L51.3052 21.3438L51.3804 21.2779L51.2841 21.2511L51.2696 21.3032ZM52.287 20.6379C52.3652 20.6341 52.4416 20.6119 52.5094 20.573C52.5772 20.5341 52.6346 20.4797 52.6763 20.4141L52.6763 20.414L52.8406 20.1556L52.9518 20.4384L52.9518 20.4384C52.9802 20.5107 53.0262 20.5748 53.0855 20.6255C53.1448 20.6761 53.2157 20.7119 53.2919 20.7298C53.2919 20.7298 53.2919 20.7298 53.2919 20.7298L53.5887 20.7998L53.3528 20.9843L53.3528 20.9843L52.2821 20.538M52.287 20.6379L52.2821 20.538M52.287 20.6379L52.287 20.6379L52.2821 20.538M52.287 20.6379L51.9803 20.6528M52.2821 20.538L51.8962 20.5568L51.9803 20.6528M51.9803 20.6528L52.1767 20.877L52.1767 20.877C52.228 20.9356 52.2641 21.0057 52.2815 21.0813C52.299 21.1569 52.2972 21.2356 52.2764 21.3103M51.9803 20.6528L51.8528 20.659L52.2764 21.3103M52.2764 21.3103L52.18 21.2835L52.2764 21.3103C52.2764 21.3103 52.2764 21.3103 52.2764 21.3103ZM52.1965 21.5971L52.0797 21.6436L52.046 21.7647L52.1627 21.7182L52.1965 21.5971ZM53.3006 21.756L53.3103 21.8804L53.2048 21.8137L53.1951 21.6892L53.3006 21.756ZM53.1719 21.3912L53.2716 21.3834L53.1719 21.3911C53.1719 21.3911 53.1719 21.3912 53.1719 21.3912Z" fill="white" stroke="white" stroke-width="0.2"/>
<path d="M48.9603 14.1298L48.2872 13.3616L48.2872 13.3616C48.2281 13.2941 48.1894 13.2116 48.1759 13.1234C48.1623 13.0351 48.1745 12.945 48.211 12.8633C48.2474 12.7817 48.3065 12.712 48.3811 12.6618C48.4556 12.6117 48.5429 12.583 48.633 12.5786C48.633 12.5786 48.633 12.5786 48.633 12.5786L49.6742 12.5278L50.2207 11.6683L50.2207 11.6683L50.3051 11.722C50.343 11.6624 50.3973 11.6143 50.4619 11.5831C50.5265 11.5518 50.5988 11.5388 50.6706 11.5454C50.7425 11.5519 50.811 11.5779 50.8684 11.6202C50.9259 11.6626 50.97 11.7197 50.9957 11.7851L48.9603 14.1298ZM48.9603 14.1298L48.6894 15.102C48.6894 15.102 48.6894 15.102 48.6894 15.102C48.6654 15.1881 48.6667 15.279 48.6932 15.3644C48.7196 15.4497 48.7701 15.5258 48.8383 15.5841C48.9066 15.6425 48.9899 15.6808 49.079 15.6953C49.168 15.7098 49.2594 15.6999 49.3431 15.6665L49.3431 15.6665L50.3076 15.282L51.1811 15.8346L51.1811 15.8346C51.257 15.8827 51.3451 15.909 51.4353 15.9109C51.5254 15.9129 51.6145 15.8903 51.6925 15.8455C51.7706 15.8008 51.8345 15.7355 51.8769 15.6567C51.9192 15.5778 51.9381 15.4888 51.9311 15.3998L51.8525 14.3952L52.662 13.7622L52.662 13.7622C52.7328 13.7068 52.7865 13.6331 52.8168 13.549C52.8471 13.465 52.8526 13.3742 52.8325 13.2872C52.8124 13.2002 52.7677 13.1208 52.7039 13.0577C52.6401 12.9947 52.5598 12.9505 52.4721 12.9298L52.472 12.9298L51.4595 12.6912L48.9603 14.1298ZM49.9778 13.4641L49.9778 13.4641L49.6708 13.479L49.8672 13.7033C49.8672 13.7033 49.8672 13.7033 49.8672 13.7033C49.9186 13.7619 49.9547 13.832 49.9721 13.9076C49.9895 13.9833 49.9878 14.0619 49.9669 14.1367C49.9669 14.1367 49.9669 14.1367 49.9669 14.1367L49.887 14.4234L50.1749 14.3087L50.2093 14.3949L50.1749 14.3087C50.2476 14.2797 50.3263 14.2684 50.4043 14.2755C50.4824 14.2826 50.5577 14.3081 50.6237 14.3498L50.6237 14.3498L50.8857 14.5156L50.8625 14.2174L49.9778 13.4641ZM49.9778 13.4641C50.0561 13.4603 50.1324 13.4381 50.2002 13.3992C50.268 13.3603 50.3253 13.3059 50.3671 13.2402L50.3671 13.2402L50.5314 12.9818L50.6426 13.2646L50.6426 13.2646C50.671 13.3369 50.717 13.401 50.7763 13.4517C50.8356 13.5024 50.9065 13.5381 50.9827 13.5561L50.9827 13.5561L51.2795 13.626L49.9778 13.4641Z" fill="white" stroke="white" stroke-width="0.2"/>
<path d="M40.6522 26.5727C40.5825 26.6793 40.5591 26.8088 40.5877 26.9326C40.6162 27.0563 40.6941 27.1631 40.803 27.2301C40.9118 27.297 41.0431 27.319 41.1682 27.2919C41.2934 27.2647 41.4032 27.1902 41.4728 27.0838L41.3891 27.029L40.6522 26.5727Z" fill="white" stroke="white" stroke-width="0.2"/>
<path d="M43.683 21.2903L43.683 21.2903L43.6826 21.2906C42.8797 21.8961 42.2149 22.6568 41.7304 23.5246L41.7303 23.5246L41.7287 23.5278C41.7 23.5838 41.6829 23.6449 41.6785 23.7076C41.6741 23.7702 41.6824 23.8331 41.7031 23.8925C41.7237 23.9519 41.7561 24.0066 41.7983 24.0535C41.8405 24.1004 41.8916 24.1386 41.9487 24.1661C42.0058 24.1936 42.0678 24.2099 42.1311 24.214C42.1945 24.2182 42.2581 24.2103 42.3184 24.1906C42.3787 24.171 42.4346 24.1399 42.4828 24.0991C42.5305 24.0588 42.5698 24.0097 42.5984 23.9545C43.0176 23.2144 43.5879 22.5646 44.2747 22.0447C45.744 20.9481 47.4489 20.7752 49.3567 21.543C49.4754 21.5907 49.6085 21.5908 49.7272 21.5432C49.846 21.4956 49.9414 21.4038 49.9914 21.287C50.0415 21.17 50.0416 21.0384 49.9917 20.9214C49.9418 20.8045 49.8466 20.7125 49.7279 20.6647C46.9356 19.541 44.8982 20.383 43.683 21.2903Z" fill="white" stroke="white" stroke-width="0.2"/>
<path d="M45.267 19.2399L45.267 19.2398C45.1449 19.2015 45.0425 19.1174 44.9832 19.0049C44.9239 18.8924 44.913 18.7612 44.9532 18.6406L45.0481 18.6722L44.9532 18.6405C44.9934 18.5202 45.0809 18.4211 45.1954 18.3644C45.3097 18.3077 45.4423 18.2973 45.5642 18.3354L45.5643 18.3354L45.5645 18.3355L45.5647 18.3355L45.5659 18.3359L45.5705 18.3373L45.5869 18.342C45.601 18.346 45.6213 18.3516 45.6472 18.3583C45.6992 18.3718 45.7737 18.39 45.8666 18.4093C46.0524 18.4479 46.3108 18.4911 46.6076 18.5113C47.2036 18.5518 47.9419 18.4985 48.5591 18.1425L48.5591 18.1425C49.2027 17.7712 49.6282 17.1127 49.8136 16.1667C49.8255 16.105 49.8498 16.0463 49.8849 15.994C49.9202 15.9416 49.9656 15.8967 50.0185 15.8617C50.0713 15.8266 50.1306 15.8022 50.193 15.7895C50.2553 15.7769 50.3196 15.7764 50.3822 15.7879C50.4447 15.7994 50.5045 15.8228 50.558 15.8569C50.6115 15.891 50.6577 15.9351 50.6939 15.9869C50.7301 16.0387 50.7555 16.097 50.7685 16.1586C50.7816 16.2202 50.7819 16.2837 50.7696 16.3454M45.267 19.2399L50.6715 16.326M45.267 19.2399L45.2695 19.2406C45.8108 19.3952 46.3722 19.4739 46.9365 19.4742H46.9365C47.5938 19.4742 48.3598 19.3593 49.0498 18.9627M45.267 19.2399L49 18.876M50.7696 16.3454C50.7696 16.3454 50.7696 16.3455 50.7696 16.3456L50.6715 16.326M50.7696 16.3454C50.7696 16.3453 50.7696 16.3453 50.7697 16.3452L50.6715 16.326M50.7696 16.3454C50.5323 17.5558 49.9565 18.4418 49.0498 18.9627M50.6715 16.326C50.4386 17.5143 49.8766 18.3723 49 18.876M49.0498 18.9627L49 18.876M49.0498 18.9627C49.0498 18.9627 49.0498 18.9627 49.0498 18.9627L49 18.876" fill="white" stroke="white" stroke-width="0.2"/>
<path d="M43.6178 13.4964L43.6178 13.4965C43.618 13.7031 43.7028 13.9005 43.8524 14.0456C44.0019 14.1905 44.204 14.2716 44.4141 14.2718L44.4143 14.1718V14.2718C44.5711 14.2718 44.7247 14.2267 44.8556 14.1419C44.9865 14.0571 45.089 13.9362 45.1497 13.7942C45.2104 13.6521 45.2263 13.4956 45.1953 13.3446C45.1643 13.1936 45.088 13.0553 44.9764 12.9471C44.8648 12.8389 44.723 12.7655 44.5691 12.7358C44.4152 12.7061 44.2556 12.7214 44.1105 12.7797C43.9653 12.838 43.8407 12.9369 43.7528 13.0645C43.6649 13.192 43.6178 13.3424 43.6178 13.4964ZM44.4104 13.4715C44.4116 13.4713 44.4129 13.4712 44.4143 13.4712V13.4918V13.4921V13.4931V13.4939V13.4956V13.4965L44.4125 13.4965L44.411 13.4965L44.4104 13.4965L44.3913 13.4965C44.3913 13.4946 44.3915 13.4928 44.3918 13.4909C44.3926 13.4872 44.3941 13.4839 44.3961 13.4811C44.397 13.4798 44.398 13.4786 44.3991 13.4775C44.4025 13.4742 44.4065 13.4723 44.4104 13.4715ZM44.4146 13.4965L44.4146 13.4956L44.4145 13.4937L44.4145 13.4934L44.4145 13.4933L44.4145 13.4914L44.4145 13.4712C44.417 13.4712 44.4196 13.4717 44.4221 13.4727C44.4246 13.4737 44.427 13.4752 44.4292 13.4773C44.4304 13.4785 44.4316 13.4798 44.4326 13.4813C44.4341 13.4835 44.4354 13.4861 44.4362 13.4889C44.4369 13.4913 44.4372 13.4939 44.4372 13.4965L44.4188 13.4965L44.4185 13.4965L44.4175 13.4965L44.4168 13.4965L44.4151 13.4965L44.4146 13.4965ZM44.4124 13.4968L44.4143 13.4968V13.4983V13.4998V13.5004V13.5218C44.4107 13.5218 44.407 13.5209 44.4035 13.5188C44.4032 13.5187 44.4029 13.5185 44.4027 13.5183C44.3991 13.516 44.3959 13.5125 44.3938 13.5079C44.3937 13.5077 44.3936 13.5074 44.3934 13.5072C44.392 13.5039 44.3913 13.5003 44.3913 13.4967L44.41 13.4968L44.4113 13.4968L44.4124 13.4968ZM44.4146 13.4968L44.4152 13.4968L44.4166 13.4968L44.4177 13.4968L44.4178 13.4968L44.4205 13.4968L44.4372 13.4969C44.4372 13.4981 44.4372 13.4992 44.437 13.5002C44.4365 13.5047 44.4348 13.5087 44.4325 13.512C44.4316 13.5133 44.4306 13.5145 44.4295 13.5156C44.4266 13.5184 44.4232 13.5202 44.4199 13.5211C44.4181 13.5216 44.4164 13.5218 44.4147 13.5218L44.4146 13.5002L44.4146 13.4999L44.4146 13.4982L44.4146 13.4968Z" fill="white" stroke="white" stroke-width="0.2"/>
<path d="M55.8816 26.6275L55.8816 26.6274C55.8814 26.4209 55.7966 26.2235 55.647 26.0784C55.4975 25.9334 55.2954 25.8524 55.0853 25.8521L55.0851 25.9521V25.8521C54.9283 25.8521 54.7747 25.8972 54.6438 25.982C54.5129 26.0669 54.4104 26.1878 54.3497 26.3298C54.289 26.4718 54.2731 26.6284 54.3041 26.7794C54.3351 26.9304 54.4114 27.0686 54.5231 27.1769C54.6346 27.2851 54.7764 27.3584 54.9303 27.3881C55.0842 27.4178 55.2438 27.4026 55.389 27.3443C55.5341 27.286 55.6587 27.187 55.7466 27.0595C55.8345 26.9319 55.8816 26.7816 55.8816 26.6275ZM55.089 26.6275H55.1083C55.1083 26.6294 55.1081 26.6312 55.1077 26.6331C55.1069 26.6368 55.1054 26.6402 55.1034 26.643C55.1025 26.6443 55.1015 26.6455 55.1004 26.6466C55.097 26.6499 55.093 26.6518 55.0891 26.6525C55.0878 26.6528 55.0865 26.6529 55.0852 26.6529L55.0852 26.6321L55.0852 26.6319L55.0852 26.6309L55.0852 26.6302L55.0852 26.6284L55.0852 26.6275H55.087H55.0885H55.089ZM55.0849 26.6328L55.085 26.6529C55.0824 26.6529 55.0799 26.6524 55.0774 26.6514C55.0749 26.6504 55.0724 26.6488 55.0702 26.6467C55.069 26.6456 55.0679 26.6443 55.0669 26.6428C55.0653 26.6405 55.064 26.6379 55.0632 26.6351C55.0625 26.6327 55.0622 26.6302 55.0622 26.6275H55.0807H55.081H55.082H55.0827H55.0843H55.0848L55.0849 26.6284L55.0849 26.6303L55.0849 26.6304L55.0849 26.6305L55.0849 26.6328ZM55.1061 26.6168C55.1075 26.6201 55.1082 26.6236 55.1083 26.6272L55.0896 26.6271L55.0881 26.6271L55.0871 26.6271L55.0852 26.6271L55.0852 26.6257L55.0852 26.6242L55.0852 26.6236L55.0852 26.6021C55.0888 26.6022 55.0925 26.6031 55.096 26.6051C55.0963 26.6053 55.0966 26.6055 55.0968 26.6057C55.1004 26.6079 55.1036 26.6114 55.1057 26.616C55.1059 26.6163 55.106 26.6165 55.1061 26.6168ZM55.0848 26.6259L55.0848 26.6271L55.0842 26.6271L55.0829 26.6271L55.0819 26.6271L55.0816 26.6271L55.0786 26.6271L55.0622 26.627C55.0622 26.6259 55.0622 26.6248 55.0624 26.6238C55.0629 26.6193 55.0646 26.6153 55.0669 26.612C55.0678 26.6106 55.0688 26.6094 55.0699 26.6084C55.0728 26.6055 55.0762 26.6037 55.0796 26.6028C55.0813 26.6024 55.083 26.6022 55.0847 26.6021L55.0848 26.6238L55.0848 26.6242L55.0848 26.6259Z" fill="white" stroke="white" stroke-width="0.2"/>
</g>
<path d="M71.6188 36.2314V24.048H75.7355C76.6913 24.048 77.4726 24.2205 78.0794 24.5656C78.6901 24.9066 79.1422 25.3687 79.4357 25.9517C79.7292 26.5347 79.8759 27.1851 79.8759 27.9029C79.8759 28.6208 79.7292 29.2732 79.4357 29.8601C79.1462 30.4471 78.698 30.9151 78.0913 31.2641C77.4845 31.6091 76.7071 31.7816 75.7593 31.7816H72.8086V30.4729H75.7117C76.3661 30.4729 76.8916 30.3598 77.2881 30.1338C77.6847 29.9077 77.9723 29.6023 78.1507 29.2176C78.3332 28.829 78.4244 28.3907 78.4244 27.9029C78.4244 27.4151 78.3332 26.9789 78.1507 26.5942C77.9723 26.2095 77.6828 25.908 77.2822 25.6899C76.8816 25.4678 76.3502 25.3568 75.6879 25.3568H73.0941V36.2314H71.6188ZM82.2525 36.2314V24.048H86.3692C87.321 24.048 88.1023 24.2106 88.7131 24.5358C89.3239 24.8571 89.776 25.2993 90.0695 25.8624C90.3629 26.4256 90.5097 27.0661 90.5097 27.7839C90.5097 28.5018 90.3629 29.1383 90.0695 29.6936C89.776 30.2488 89.3258 30.685 88.719 31.0023C88.1123 31.3156 87.3369 31.4723 86.393 31.4723H83.0616V30.1397H86.3454C86.9958 30.1397 87.5193 30.0445 87.9159 29.8542C88.3165 29.6638 88.606 29.3941 88.7845 29.0451C88.9669 28.6921 89.0581 28.2718 89.0581 27.7839C89.0581 27.2961 88.9669 26.8698 88.7845 26.5049C88.6021 26.1401 88.3106 25.8585 87.91 25.6602C87.5094 25.4579 86.98 25.3568 86.3216 25.3568H83.7279V36.2314H82.2525ZM87.9873 30.7584L90.9856 36.2314H89.2723L86.3216 30.7584H87.9873ZM103.248 30.1397C103.248 31.4247 103.016 32.5352 102.552 33.4711C102.088 34.4071 101.451 35.1289 100.642 35.6366C99.8332 36.1442 98.9091 36.398 97.87 36.398C96.8309 36.398 95.9069 36.1442 95.0978 35.6366C94.2887 35.1289 93.6522 34.4071 93.1882 33.4711C92.7242 32.5352 92.4922 31.4247 92.4922 30.1397C92.4922 28.8548 92.7242 27.7443 93.1882 26.8083C93.6522 25.8723 94.2887 25.1505 95.0978 24.6429C95.9069 24.1353 96.8309 23.8814 97.87 23.8814C98.9091 23.8814 99.8332 24.1353 100.642 24.6429C101.451 25.1505 102.088 25.8723 102.552 26.8083C103.016 27.7443 103.248 28.8548 103.248 30.1397ZM101.82 30.1397C101.82 29.0848 101.644 28.1944 101.291 27.4686C100.942 26.7429 100.468 26.1936 99.8689 25.8208C99.274 25.448 98.6077 25.2616 97.87 25.2616C97.1323 25.2616 96.4641 25.448 95.8652 25.8208C95.2703 26.1936 94.7964 26.7429 94.4434 27.4686C94.0944 28.1944 93.9199 29.0848 93.9199 30.1397C93.9199 31.1947 94.0944 32.085 94.4434 32.8108C94.7964 33.5366 95.2703 34.0859 95.8652 34.4587C96.4641 34.8315 97.1323 35.0179 97.87 35.0179C98.6077 35.0179 99.274 34.8315 99.8689 34.4587C100.468 34.0859 100.942 33.5366 101.291 32.8108C101.644 32.085 101.82 31.1947 101.82 30.1397ZM105.729 24.048H107.489L111.63 34.1612H111.773L115.913 24.048H117.674V36.2314H116.294V26.9749H116.175L112.368 36.2314H111.035L107.228 26.9749H107.109V36.2314H105.729V24.048ZM130.912 30.1397C130.912 31.4247 130.68 32.5352 130.216 33.4711C129.752 34.4071 129.115 35.1289 128.306 35.6366C127.497 36.1442 126.573 36.398 125.534 36.398C124.495 36.398 123.571 36.1442 122.762 35.6366C121.953 35.1289 121.316 34.4071 120.852 33.4711C120.388 32.5352 120.156 31.4247 120.156 30.1397C120.156 28.8548 120.388 27.7443 120.852 26.8083C121.316 25.8723 121.953 25.1505 122.762 24.6429C123.571 24.1353 124.495 23.8814 125.534 23.8814C126.573 23.8814 127.497 24.1353 128.306 24.6429C129.115 25.1505 129.752 25.8723 130.216 26.8083C130.68 27.7443 130.912 28.8548 130.912 30.1397ZM129.484 30.1397C129.484 29.0848 129.308 28.1944 128.955 27.4686C128.606 26.7429 128.132 26.1936 127.533 25.8208C126.938 25.448 126.272 25.2616 125.534 25.2616C124.796 25.2616 124.128 25.448 123.529 25.8208C122.934 26.1936 122.46 26.7429 122.108 27.4686C121.759 28.1944 121.584 29.0848 121.584 30.1397C121.584 31.1947 121.759 32.085 122.108 32.8108C122.46 33.5366 122.934 34.0859 123.529 34.4587C124.128 34.8315 124.796 35.0179 125.534 35.0179C126.272 35.0179 126.938 34.8315 127.533 34.4587C128.132 34.0859 128.606 33.5366 128.955 32.8108C129.308 32.085 129.484 31.1947 129.484 30.1397ZM140.055 27.0939C139.984 26.491 139.695 26.0231 139.187 25.6899C138.679 25.3568 138.057 25.1902 137.319 25.1902C136.78 25.1902 136.308 25.2775 135.903 25.452C135.503 25.6265 135.189 25.8664 134.963 26.1718C134.741 26.4772 134.63 26.8242 134.63 27.2128C134.63 27.5381 134.707 27.8177 134.862 28.0516C135.021 28.2817 135.223 28.474 135.469 28.6287C135.715 28.7794 135.973 28.9043 136.242 29.0035C136.512 29.0987 136.76 29.176 136.986 29.2355L138.223 29.5686C138.54 29.6519 138.893 29.7669 139.282 29.9137C139.675 30.0604 140.05 30.2607 140.406 30.5145C140.767 30.7644 141.065 31.0856 141.299 31.4782C141.533 31.8709 141.65 32.3527 141.65 32.9238C141.65 33.5822 141.477 34.1771 141.132 34.7085C140.791 35.24 140.291 35.6623 139.633 35.9756C138.979 36.289 138.184 36.4456 137.248 36.4456C136.375 36.4456 135.62 36.3048 134.981 36.0232C134.346 35.7416 133.847 35.349 133.482 34.8453C133.121 34.3417 132.917 33.7567 132.869 33.0904H134.392C134.432 33.5505 134.586 33.9312 134.856 34.2326C135.13 34.53 135.475 34.7521 135.891 34.8989C136.312 35.0417 136.764 35.113 137.248 35.113C137.811 35.113 138.316 35.0218 138.765 34.8394C139.213 34.653 139.568 34.3952 139.829 34.066C140.091 33.7329 140.222 33.3442 140.222 32.9C140.222 32.4955 140.109 32.1663 139.883 31.9125C139.657 31.6587 139.359 31.4525 138.991 31.2938C138.622 31.1352 138.223 30.9964 137.795 30.8774L136.296 30.4491C135.344 30.1754 134.59 29.7848 134.035 29.2771C133.48 28.7695 133.202 28.1052 133.202 27.2842C133.202 26.6021 133.387 26.0072 133.756 25.4995C134.128 24.9879 134.628 24.5913 135.255 24.3098C135.885 24.0242 136.589 23.8814 137.367 23.8814C138.152 23.8814 138.85 24.0222 139.461 24.3038C140.071 24.5814 140.555 24.9622 140.912 25.446C141.273 25.9299 141.463 26.4791 141.483 27.0939H140.055ZM143.028 24.048H144.718L148.097 29.7352H148.24L151.619 24.048H153.308L148.906 31.2105V36.2314H147.431V31.2105L143.028 24.048ZM164.924 30.1397C164.924 31.4247 164.692 32.5352 164.228 33.4711C163.764 34.4071 163.127 35.1289 162.318 35.6366C161.509 36.1442 160.585 36.398 159.546 36.398C158.507 36.398 157.583 36.1442 156.774 35.6366C155.964 35.1289 155.328 34.4071 154.864 33.4711C154.4 32.5352 154.168 31.4247 154.168 30.1397C154.168 28.8548 154.4 27.7443 154.864 26.8083C155.328 25.8723 155.964 25.1505 156.774 24.6429C157.583 24.1353 158.507 23.8814 159.546 23.8814C160.585 23.8814 161.509 24.1353 162.318 24.6429C163.127 25.1505 163.764 25.8723 164.228 26.8083C164.692 27.7443 164.924 28.8548 164.924 30.1397ZM163.496 30.1397C163.496 29.0848 163.319 28.1944 162.966 27.4686C162.617 26.7429 162.143 26.1936 161.545 25.8208C160.95 25.448 160.283 25.2616 159.546 25.2616C158.808 25.2616 158.14 25.448 157.541 25.8208C156.946 26.1936 156.472 26.7429 156.119 27.4686C155.77 28.1944 155.596 29.0848 155.596 30.1397C155.596 31.1947 155.77 32.085 156.119 32.8108C156.472 33.5366 156.946 34.0859 157.541 34.4587C158.14 34.8315 158.808 35.0179 159.546 35.0179C160.283 35.0179 160.95 34.8315 161.545 34.4587C162.143 34.0859 162.617 33.5366 162.966 32.8108C163.319 32.085 163.496 31.1947 163.496 30.1397ZM177.065 24.048V36.2314H175.638L168.999 26.6655H168.88V36.2314H167.404V24.048H168.832L175.495 33.6377H175.614V24.048H177.065ZM180.018 36.2314V24.048H181.493V34.9227H187.156V36.2314H180.018ZM190.709 36.2314H189.163L193.636 24.048H195.159L199.633 36.2314H198.086L194.445 25.9755H194.35L190.709 36.2314ZM191.28 31.4723H197.515V32.7811H191.28V31.4723ZM201.53 36.2314V24.048H205.647C206.599 24.048 207.38 24.2106 207.991 24.5358C208.602 24.8571 209.054 25.2993 209.347 25.8624C209.641 26.4256 209.788 27.0661 209.788 27.7839C209.788 28.5018 209.641 29.1383 209.347 29.6936C209.054 30.2488 208.604 30.685 207.997 31.0023C207.39 31.3156 206.615 31.4723 205.671 31.4723H202.339V30.1397H205.623C206.274 30.1397 206.797 30.0445 207.194 29.8542C207.594 29.6638 207.884 29.3941 208.062 29.0451C208.245 28.6921 208.336 28.2718 208.336 27.7839C208.336 27.2961 208.245 26.8698 208.062 26.5049C207.88 26.1401 207.588 25.8585 207.188 25.6602C206.787 25.4579 206.258 25.3568 205.599 25.3568H203.006V36.2314H201.53ZM207.265 30.7584L210.263 36.2314H208.55L205.599 30.7584H207.265Z" fill="white"/>
<defs>
<clipPath id="clip0_82_343">
<rect width="33" height="32" fill="white" transform="translate(23.251 10.5569)"/>
</clipPath>
</defs>
</svg>
