<svg width="229" height="59" viewBox="0 0 229 59" fill="none" xmlns="http://www.w3.org/2000/svg">
<path fill-rule="evenodd" clip-rule="evenodd" d="M49.587 19.5173C50.6987 19.5173 51.58 19.1748 52.2544 18.6288C52.9157 18.0935 53.3347 17.3985 53.602 16.7493C53.8698 16.099 53.9998 15.46 54.0642 14.9913C54.0966 14.7549 54.113 14.5566 54.1214 14.4148C54.1256 14.3437 54.1277 14.2866 54.1289 14.2455C54.1294 14.2249 54.1297 14.2084 54.1299 14.1961L54.13 14.181L54.1301 14.1759L54.1301 14.1732C54.1301 14.1728 54.1301 14.1725 53.3284 14.1725C52.5266 14.1725 52.5266 14.1722 52.5266 14.1719L52.5266 14.1749L52.526 14.2015C52.5253 14.227 52.5238 14.2674 52.5207 14.3206C52.5144 14.4273 52.5016 14.5838 52.4756 14.7733C52.423 15.1565 52.3193 15.6532 52.1193 16.1388C51.919 16.6253 51.6365 17.0661 51.2455 17.3826C50.8676 17.6885 50.3459 17.9138 49.587 17.9138H43.1732C41.1145 17.9138 39.74 18.7363 38.9019 19.8319C38.0927 20.8897 37.8284 22.1403 37.8284 22.9914H39.4318C39.4318 22.4173 39.6218 21.5299 40.1755 20.8061C40.7003 20.1201 41.5973 19.5173 43.1732 19.5173H49.587ZM24.7333 31.8105C24.7333 29.9344 25.6121 28.3271 26.7961 27.1735C28.0033 25.9973 29.4168 25.3967 30.3454 25.3967H46.6471C47.9722 25.3967 49.4451 26.1268 50.609 27.3519C51.7663 28.5701 52.5264 30.1845 52.5264 31.8105C52.5264 33.4341 51.7687 35.0422 50.5565 36.2544C49.3444 37.4665 47.7362 38.2243 46.1126 38.2243C43.8561 38.2243 42.3755 37.2132 41.7099 36.5117C41.3592 36.1422 40.8328 35.8191 40.1957 35.8191H37.4692C36.9662 35.8191 36.5191 36.0219 36.1826 36.3064C35.2673 37.0802 33.3572 38.2243 31.1471 38.2243C28.0573 38.2243 24.7333 35.5873 24.7333 31.8105ZM30.3454 23.7932C28.8688 23.7932 27.0755 24.6625 25.6771 26.0251C24.2554 27.4103 23.1299 29.4107 23.1299 31.8105C23.1299 36.5854 27.2887 39.8277 31.1471 39.8277C33.87 39.8277 36.135 38.4463 37.2178 37.5309C37.3144 37.4493 37.4053 37.4226 37.4692 37.4226H40.1957C40.2735 37.4226 40.4053 37.4664 40.5467 37.6154C41.4689 38.5871 43.3532 39.8277 46.1126 39.8277C48.2305 39.8277 50.23 38.8484 51.6903 37.3882C53.1506 35.9279 54.1299 33.9283 54.1299 31.8105C54.1299 29.6951 53.1529 27.7017 51.7715 26.2475C50.3965 24.8002 48.529 23.7932 46.6471 23.7932H30.3454ZM30.3451 30.875V28.6035H31.9485V30.875H34.2211V32.4785H31.9485V34.75H30.3451V32.4785H28.0745V30.875H30.3451ZM46.9148 29.138C46.9148 29.7283 46.4362 30.2069 45.8458 30.2069C45.2554 30.2069 44.7768 29.7283 44.7768 29.138C44.7768 28.5476 45.2554 28.069 45.8458 28.069C46.4362 28.069 46.9148 28.5476 46.9148 29.138ZM44.5087 31.5432C44.5087 30.9528 44.0302 30.4743 43.4398 30.4743C42.8494 30.4743 42.3708 30.9528 42.3708 31.5432C42.3708 32.1336 42.8494 32.6122 43.4398 32.6122C44.0302 32.6122 44.5087 32.1336 44.5087 31.5432ZM46.9148 33.9484C46.9148 34.5388 46.4362 35.0173 45.8458 35.0173C45.2554 35.0173 44.7768 34.5388 44.7768 33.9484C44.7768 33.358 45.2554 32.8794 45.8458 32.8794C46.4362 32.8794 46.9148 33.358 46.9148 33.9484ZM49.3193 31.5432C49.3193 30.9528 48.8407 30.4743 48.2504 30.4743C47.66 30.4743 47.1814 30.9528 47.1814 31.5432C47.1814 32.1336 47.66 32.6122 48.2504 32.6122C48.8407 32.6122 49.3193 32.1336 49.3193 31.5432Z" fill="white"/>
<path d="M76.5914 26.8624C76.52 26.2596 76.2305 25.7916 75.7229 25.4585C75.2152 25.1253 74.5926 24.9588 73.8549 24.9588C73.3155 24.9588 72.8436 25.046 72.4391 25.2205C72.0385 25.395 71.7252 25.635 71.4991 25.9403C71.277 26.2457 71.166 26.5927 71.166 26.9814C71.166 27.3066 71.2433 27.5862 71.398 27.8202C71.5566 28.0502 71.7589 28.2426 72.0048 28.3972C72.2507 28.548 72.5085 28.6729 72.7782 28.772C73.0478 28.8672 73.2957 28.9446 73.5218 29.004L74.7592 29.3372C75.0764 29.4205 75.4294 29.5355 75.8181 29.6822C76.2107 29.829 76.5855 30.0292 76.9424 30.2831C77.3033 30.5329 77.6008 30.8542 77.8348 31.2468C78.0688 31.6394 78.1857 32.1213 78.1857 32.6924C78.1857 33.3507 78.0132 33.9456 77.6682 34.4771C77.3271 35.0085 76.8274 35.4309 76.1691 35.7442C75.5147 36.0575 74.7195 36.2142 73.7835 36.2142C72.911 36.2142 72.1555 36.0734 71.517 35.7918C70.8824 35.5102 70.3827 35.1176 70.0178 34.6139C69.6569 34.1102 69.4527 33.5252 69.4051 32.859H70.928C70.9677 33.319 71.1224 33.6997 71.392 34.0012C71.6657 34.2986 72.0107 34.5207 72.4272 34.6674C72.8476 34.8102 73.2997 34.8816 73.7835 34.8816C74.3467 34.8816 74.8524 34.7904 75.3005 34.6079C75.7487 34.4215 76.1036 34.1638 76.3654 33.8346C76.6271 33.5014 76.758 33.1128 76.758 32.6686C76.758 32.2641 76.645 31.9349 76.4189 31.6811C76.1928 31.4272 75.8954 31.221 75.5266 31.0624C75.1577 30.9037 74.7592 30.7649 74.3308 30.6459L72.8317 30.2176C71.8799 29.944 71.1263 29.5533 70.5711 29.0457C70.0159 28.538 69.7382 27.8737 69.7382 27.0528C69.7382 26.3706 69.9227 25.7757 70.2915 25.2681C70.6643 24.7565 71.164 24.3599 71.7906 24.0783C72.4212 23.7928 73.1252 23.65 73.9025 23.65C74.6878 23.65 75.3858 23.7908 75.9965 24.0724C76.6073 24.35 77.0911 24.7307 77.4481 25.2146C77.809 25.6984 77.9993 26.2477 78.0192 26.8624H76.5914ZM81.1111 36H79.5644L84.038 23.8166H85.561L90.0346 36H88.4878L84.8471 25.744H84.7519L81.1111 36ZM81.6822 31.2408H87.9167V32.5496H81.6822V31.2408ZM101.593 23.8166V36H100.166L93.5266 26.4341H93.4076V36H91.9323V23.8166H93.36L100.023 33.4063H100.142V23.8166H101.593ZM105.045 36H103.499L107.972 23.8166H109.495L113.969 36H112.422L108.781 25.744H108.686L105.045 36ZM105.616 31.2408H111.851V32.5496H105.616V31.2408ZM115.866 36V23.8166H117.342V34.6912H123.005V36H115.866ZM136.664 26.8624C136.592 26.2596 136.303 25.7916 135.795 25.4585C135.288 25.1253 134.665 24.9588 133.927 24.9588C133.388 24.9588 132.916 25.046 132.512 25.2205C132.111 25.395 131.798 25.635 131.572 25.9403C131.349 26.2457 131.238 26.5927 131.238 26.9814C131.238 27.3066 131.316 27.5862 131.47 27.8202C131.629 28.0502 131.831 28.2426 132.077 28.3972C132.323 28.548 132.581 28.6729 132.851 28.772C133.12 28.8672 133.368 28.9446 133.594 29.004L134.832 29.3372C135.149 29.4205 135.502 29.5355 135.891 29.6822C136.283 29.829 136.658 30.0292 137.015 30.2831C137.376 30.5329 137.673 30.8542 137.907 31.2468C138.141 31.6394 138.258 32.1213 138.258 32.6924C138.258 33.3507 138.086 33.9456 137.741 34.4771C137.4 35.0085 136.9 35.4309 136.242 35.7442C135.587 36.0575 134.792 36.2142 133.856 36.2142C132.983 36.2142 132.228 36.0734 131.589 35.7918C130.955 35.5102 130.455 35.1176 130.09 34.6139C129.729 34.1102 129.525 33.5252 129.478 32.859H131C131.04 33.319 131.195 33.6997 131.465 34.0012C131.738 34.2986 132.083 34.5207 132.5 34.6674C132.92 34.8102 133.372 34.8816 133.856 34.8816C134.419 34.8816 134.925 34.7904 135.373 34.6079C135.821 34.4215 136.176 34.1638 136.438 33.8346C136.7 33.5014 136.83 33.1128 136.83 32.6686C136.83 32.2641 136.717 31.9349 136.491 31.6811C136.265 31.4272 135.968 31.221 135.599 31.0624C135.23 30.9037 134.832 30.7649 134.403 30.6459L132.904 30.2176C131.952 29.944 131.199 29.5533 130.644 29.0457C130.088 28.538 129.811 27.8737 129.811 27.0528C129.811 26.3706 129.995 25.7757 130.364 25.2681C130.737 24.7565 131.236 24.3599 131.863 24.0783C132.494 23.7928 133.198 23.65 133.975 23.65C134.76 23.65 135.458 23.7908 136.069 24.0724C136.68 24.35 137.164 24.7307 137.521 25.2146C137.881 25.6984 138.072 26.2477 138.092 26.8624H136.664ZM140.684 36V23.8166H144.801C145.756 23.8166 146.538 23.9891 147.144 24.3341C147.755 24.6752 148.207 25.1372 148.501 25.7202C148.794 26.3032 148.941 26.9536 148.941 27.6715C148.941 28.3893 148.794 29.0417 148.501 29.6287C148.211 30.2156 147.763 30.6836 147.156 31.0326C146.55 31.3777 145.772 31.5502 144.824 31.5502H141.874V30.2414H144.777C145.431 30.2414 145.957 30.1284 146.353 29.9023C146.75 29.6763 147.037 29.3709 147.216 28.9862C147.398 28.5975 147.489 28.1593 147.489 27.6715C147.489 27.1837 147.398 26.7474 147.216 26.3627C147.037 25.978 146.748 25.6766 146.347 25.4585C145.947 25.2364 145.415 25.1253 144.753 25.1253H142.159V36H140.684ZM161.597 29.9083C161.597 31.1933 161.365 32.3037 160.901 33.2397C160.437 34.1757 159.801 34.8975 158.992 35.4051C158.183 35.9127 157.259 36.1666 156.22 36.1666C155.18 36.1666 154.256 35.9127 153.447 35.4051C152.638 34.8975 152.002 34.1757 151.538 33.2397C151.074 32.3037 150.842 31.1933 150.842 29.9083C150.842 28.6233 151.074 27.5128 151.538 26.5769C152.002 25.6409 152.638 24.9191 153.447 24.4115C154.256 23.9038 155.18 23.65 156.22 23.65C157.259 23.65 158.183 23.9038 158.992 24.4115C159.801 24.9191 160.437 25.6409 160.901 26.5769C161.365 27.5128 161.597 28.6233 161.597 29.9083ZM160.17 29.9083C160.17 28.8533 159.993 27.963 159.64 27.2372C159.291 26.5114 158.817 25.9621 158.218 25.5893C157.624 25.2165 156.957 25.0301 156.22 25.0301C155.482 25.0301 154.814 25.2165 154.215 25.5893C153.62 25.9621 153.146 26.5114 152.793 27.2372C152.444 27.963 152.269 28.8533 152.269 29.9083C152.269 30.9632 152.444 31.8536 152.793 32.5794C153.146 33.3051 153.62 33.8544 154.215 34.2272C154.814 34.6 155.482 34.7864 156.22 34.7864C156.957 34.7864 157.624 34.6 158.218 34.2272C158.817 33.8544 159.291 33.3051 159.64 32.5794C159.993 31.8536 160.17 30.9632 160.17 29.9083ZM164.078 36V23.8166H168.195C169.147 23.8166 169.928 23.9792 170.539 24.3044C171.149 24.6256 171.602 25.0678 171.895 25.631C172.189 26.1942 172.335 26.8347 172.335 27.5525C172.335 28.2703 172.189 28.9069 171.895 29.4621C171.602 30.0173 171.151 30.4536 170.545 30.7709C169.938 31.0842 169.162 31.2408 168.219 31.2408H164.887V29.9083H168.171C168.821 29.9083 169.345 29.8131 169.742 29.6227C170.142 29.4324 170.432 29.1627 170.61 28.8137C170.792 28.4607 170.884 28.0403 170.884 27.5525C170.884 27.0647 170.792 26.6383 170.61 26.2735C170.428 25.9086 170.136 25.627 169.736 25.4287C169.335 25.2265 168.806 25.1253 168.147 25.1253H165.553V36H164.078ZM169.813 30.527L172.811 36H171.098L168.147 30.527H169.813ZM174.794 36V23.8166H176.269V34.6912H181.932V36H174.794ZM185.485 36H183.939L188.412 23.8166H189.935L194.409 36H192.862L189.221 25.744H189.126L185.485 36ZM186.056 31.2408H192.291V32.5496H186.056V31.2408ZM196.307 36V23.8166H200.423C201.375 23.8166 202.156 23.9792 202.767 24.3044C203.378 24.6256 203.83 25.0678 204.123 25.631C204.417 26.1942 204.564 26.8347 204.564 27.5525C204.564 28.2703 204.417 28.9069 204.123 29.4621C203.83 30.0173 203.38 30.4536 202.773 30.7709C202.166 31.0842 201.391 31.2408 200.447 31.2408H197.116V29.9083H200.399C201.05 29.9083 201.573 29.8131 201.97 29.6227C202.37 29.4324 202.66 29.1627 202.838 28.8137C203.021 28.4607 203.112 28.0403 203.112 27.5525C203.112 27.0647 203.021 26.6383 202.838 26.2735C202.656 25.9086 202.365 25.627 201.964 25.4287C201.563 25.2265 201.034 25.1253 200.376 25.1253H197.782V36H196.307ZM202.041 30.527L205.04 36H203.326L200.376 30.527H202.041Z" fill="white"/>
</svg>
