<svg width="150" height="61" viewBox="0 0 150 61" fill="none" xmlns="http://www.w3.org/2000/svg">
<path d="M57.882 26.0624L52.0749 25.0823V24.4113L59.3516 25.7241L61.649 23.4379L60.4807 18.3962H61.1149L62.7584 25.6108L57.882 26.0624Z" fill="white"/>
<path d="M67.1081 36.0852L66.8003 36.6671H66.7292L64.4629 30.0309L60.3228 31.0589L55.5139 36.3934L55.122 35.9251L60.3228 30.0309L64.7712 29.1258L67.1081 36.0852Z" fill="white"/>
<path d="M65.9907 26.25L69.8531 25.6119V26.25L66.1848 26.8073L65.9907 26.25Z" fill="white"/>
<path d="M50.9319 34.8685L49.0399 29.0918L49.4003 28.01L51.6977 34.8684L50.9319 34.8685Z" fill="white"/>
<path d="M57.0692 40.5156L57.0414 40.1395L63.411 39.7761L67.0972 39.1389L67.162 39.5107L63.4572 40.15L57.0692 40.5156Z" fill="white"/>
<path d="M51.3552 22.5174V21.9136L56.1718 18.667L57.057 18.6309L51.3552 22.5174Z" fill="white"/>
<path d="M64.3139 19.1981L64.2513 19.317L61.241 19.5471C61.241 19.5471 61.2221 19.5452 61.1842 19.5396C60.6461 19.466 56.3949 18.8831 56.232 18.8548C56.0577 18.8265 57.1868 18.3361 57.1868 18.3361L57.2625 18.2625C57.9048 18.1569 58.5622 18.104 59.2328 18.104C61.0459 18.104 62.7661 18.4964 64.3139 19.1981Z" fill="white"/>
<path d="M52.4307 24.9463L49.2859 29.3463L47.1924 27.957C47.5657 26.0454 48.3879 24.296 49.5435 22.8161L49.5454 22.8142C50.6177 22.2637 51.995 21.5794 52.0632 21.5455L52.0651 21.5436L52.4307 24.9463Z" fill="white"/>
<path d="M71.4539 29.4479L69.6049 26.0582L68.8339 22.7214C70.3286 24.5934 71.2796 26.9141 71.4539 29.4479Z" fill="white"/>
<path d="M69.9443 35.313L69.77 36.5271L69.7681 36.5289C69.2036 37.4753 68.5121 38.335 67.7202 39.0947C66.8316 39.9431 65.8162 40.6594 64.7023 41.2118L63.4235 39.9657L66.9302 36.1179L69.9443 35.313Z" fill="white"/>
<path d="M50.2395 38.0853L50.9589 34.5955L55.8596 35.7588L57.8829 40.367L54.3759 41.4408L50.2395 38.0853Z" fill="white"/>
<path d="M61.961 22.9506L57.4853 25.8042L59.2917 31.4993H65.3789L66.6314 26.511L61.961 22.9506Z" fill="white"/>
<path fill-rule="evenodd" clip-rule="evenodd" d="M59.2577 41.8233C65.6156 41.8233 70.7696 36.6693 70.7696 30.3115C70.7696 23.9536 65.6156 18.7996 59.2577 18.7996C52.8999 18.7996 47.7459 23.9536 47.7459 30.3115C47.7459 36.6693 52.8999 41.8233 59.2577 41.8233ZM59.2577 43.0487C66.2923 43.0487 71.995 37.346 71.995 30.3115C71.995 23.2769 66.2923 17.5742 59.2577 17.5742C52.2232 17.5742 46.5205 23.2769 46.5205 30.3115C46.5205 37.346 52.2232 43.0487 59.2577 43.0487Z" fill="white"/>
<path fill-rule="evenodd" clip-rule="evenodd" d="M50.6906 41.1276C47.2551 38.7084 45.0106 34.7116 45.0105 30.1904H39.2488C38.2421 30.1904 37.4259 31.0066 37.4259 32.0133C37.4259 33.0113 38.228 33.822 39.2226 33.836H33.7802C32.7735 33.836 31.9574 34.6521 31.9574 35.6588C31.9574 36.6656 32.7735 37.4817 33.7802 37.4817H45.3103C44.3106 37.4899 43.5027 38.3029 43.5027 39.3046C43.5027 40.3114 44.3188 41.1276 45.3256 41.1276H50.6906ZM45.0105 30.19C45.0105 28.9261 45.186 27.7032 45.5138 26.5443H24.6656C23.6589 26.5443 22.8428 27.3604 22.8428 28.3671C22.8428 29.3739 23.6589 30.19 24.6656 30.19H45.0105ZM45.5138 26.5442C46.3586 23.5575 48.2155 20.9958 50.6906 19.2529H28.9194C27.9127 19.2529 27.0966 20.0691 27.0966 21.0758C27.0966 22.0825 27.9127 22.8987 28.9194 22.8987H36.7932C35.7984 22.9125 34.9962 23.7232 34.9962 24.7213C34.9962 25.7281 35.8123 26.5442 36.8191 26.5442H45.5138Z" fill="white"/>
<path d="M89.5817 27.1742C89.5103 26.5714 89.2208 26.1034 88.7132 25.7702C88.2055 25.4371 87.5829 25.2705 86.8452 25.2705C86.3058 25.2705 85.8339 25.3578 85.4293 25.5323C85.0288 25.7068 84.7155 25.9467 84.4894 26.2521C84.2673 26.5575 84.1563 26.9045 84.1563 27.2932C84.1563 27.6184 84.2336 27.898 84.3883 28.132C84.5469 28.362 84.7492 28.5543 84.9951 28.709C85.241 28.8597 85.4987 28.9846 85.7684 29.0838C86.0381 29.179 86.286 29.2563 86.5121 29.3158L87.7494 29.6489C88.0667 29.7322 88.4197 29.8472 88.8083 29.994C89.201 30.1407 89.5758 30.341 89.9327 30.5948C90.2936 30.8447 90.591 31.1659 90.825 31.5586C91.059 31.9512 91.176 32.4331 91.176 33.0042C91.176 33.6625 91.0035 34.2574 90.6585 34.7888C90.3174 35.3203 89.8177 35.7427 89.1593 36.056C88.5049 36.3693 87.7098 36.5259 86.7738 36.5259C85.9013 36.5259 85.1458 36.3851 84.5073 36.1036C83.8727 35.822 83.373 35.4293 83.0081 34.9257C82.6472 34.422 82.443 33.837 82.3954 33.1707H83.9183C83.958 33.6308 84.1126 34.0115 84.3823 34.3129C84.656 34.6104 85.001 34.8325 85.4174 34.9792C85.8378 35.122 86.29 35.1934 86.7738 35.1934C87.337 35.1934 87.8426 35.1021 88.2908 34.9197C88.7389 34.7333 89.0939 34.4755 89.3556 34.1464C89.6174 33.8132 89.7483 33.4245 89.7483 32.9804C89.7483 32.5758 89.6352 32.2467 89.4092 31.9928C89.1831 31.739 88.8857 31.5328 88.5168 31.3741C88.148 31.2155 87.7494 31.0767 87.3211 30.9577L85.822 30.5294C84.8701 30.2557 84.1166 29.8651 83.5614 29.3574C83.0061 28.8498 82.7285 28.1855 82.7285 27.3646C82.7285 26.6824 82.9129 26.0875 83.2818 25.5799C83.6546 25.0683 84.1543 24.6717 84.7809 24.3901C85.4115 24.1045 86.1155 23.9618 86.8928 23.9618C87.678 23.9618 88.3761 24.1025 88.9868 24.3841C89.5976 24.6617 90.0814 25.0425 90.4384 25.5263C90.7993 26.0102 90.9896 26.5595 91.0095 27.1742H89.5817ZM93.6017 36.3118V24.1283H97.7184C98.6742 24.1283 99.4555 24.3008 100.062 24.6459C100.673 24.987 101.125 25.449 101.419 26.032C101.712 26.615 101.859 27.2654 101.859 27.9832C101.859 28.7011 101.712 29.3535 101.419 29.9404C101.129 30.5274 100.681 30.9954 100.074 31.3444C99.4674 31.6894 98.69 31.862 97.7422 31.862H94.7915V30.5532H97.6946C98.349 30.5532 98.8745 30.4402 99.2711 30.2141C99.6677 29.988 99.9552 29.6827 100.134 29.298C100.316 28.9093 100.407 28.4711 100.407 27.9832C100.407 27.4954 100.316 27.0592 100.134 26.6745C99.9552 26.2898 99.6657 25.9884 99.2651 25.7702C98.8645 25.5481 98.3331 25.4371 97.6708 25.4371H95.077V36.3118H93.6017ZM114.515 30.22C114.515 31.505 114.283 32.6155 113.819 33.5515C113.355 34.4874 112.719 35.2092 111.91 35.7169C111.101 36.2245 110.176 36.4783 109.137 36.4783C108.098 36.4783 107.174 36.2245 106.365 35.7169C105.556 35.2092 104.92 34.4874 104.456 33.5515C103.992 32.6155 103.76 31.505 103.76 30.22C103.76 28.9351 103.992 27.8246 104.456 26.8886C104.92 25.9527 105.556 25.2309 106.365 24.7232C107.174 24.2156 108.098 23.9618 109.137 23.9618C110.176 23.9618 111.101 24.2156 111.91 24.7232C112.719 25.2309 113.355 25.9527 113.819 26.8886C114.283 27.8246 114.515 28.9351 114.515 30.22ZM113.087 30.22C113.087 29.1651 112.911 28.2747 112.558 27.549C112.209 26.8232 111.735 26.2739 111.136 25.9011C110.541 25.5283 109.875 25.3419 109.137 25.3419C108.4 25.3419 107.731 25.5283 107.133 25.9011C106.538 26.2739 106.064 26.8232 105.711 27.549C105.362 28.2747 105.187 29.1651 105.187 30.22C105.187 31.275 105.362 32.1654 105.711 32.8911C106.064 33.6169 106.538 34.1662 107.133 34.539C107.731 34.9118 108.4 35.0982 109.137 35.0982C109.875 35.0982 110.541 34.9118 111.136 34.539C111.735 34.1662 112.209 33.6169 112.558 32.8911C112.911 32.1654 113.087 31.275 113.087 30.22ZM116.996 36.3118V24.1283H121.113C122.064 24.1283 122.846 24.2909 123.456 24.6161C124.067 24.9374 124.519 25.3796 124.813 25.9428C125.106 26.5059 125.253 27.1464 125.253 27.8643C125.253 28.5821 125.106 29.2186 124.813 29.7739C124.519 30.3291 124.069 30.7654 123.462 31.0826C122.856 31.396 122.08 31.5526 121.136 31.5526H117.805V30.22H121.089C121.739 30.22 122.263 30.1249 122.659 29.9345C123.06 29.7441 123.349 29.4744 123.528 29.1254C123.71 28.7725 123.802 28.3521 123.802 27.8643C123.802 27.3765 123.71 26.9501 123.528 26.5852C123.345 26.2204 123.054 25.9388 122.653 25.7405C122.253 25.5382 121.723 25.4371 121.065 25.4371H118.471V36.3118H116.996ZM122.731 30.8387L125.729 36.3118H124.016L121.065 30.8387H122.731Z" fill="white"/>
</svg>
