<svg width="99" height="60" viewBox="0 0 99 60" fill="none" xmlns="http://www.w3.org/2000/svg">
<circle cx="34.5" cy="30.5" r="17.5" fill="#FF0000"/>
<circle cx="34.8176" cy="30.3784" r="17.313" stroke="white" stroke-width="2.66354"/>
<path d="M68.4745 25.4279V36.7896H66.9918V25.4279H68.4745ZM72.1264 25.4279V26.6608H63.3477V25.4279H72.1264ZM73.812 25.4279H77.5732C78.4263 25.4279 79.1469 25.5579 79.7347 25.8181C80.3278 26.0782 80.7778 26.4631 81.0847 26.9729C81.3968 27.4776 81.5529 28.0992 81.5529 28.8379C81.5529 29.3582 81.4462 29.8342 81.2329 30.266C81.0249 30.6925 80.7231 31.0567 80.3278 31.3584C79.9376 31.655 79.4694 31.876 78.9232 32.0217L78.5018 32.1856H74.9669L74.9513 30.9605H77.62C78.161 30.9605 78.611 30.8668 78.97 30.6795C79.3289 30.4871 79.5994 30.2295 79.7815 29.907C79.9636 29.5845 80.0546 29.2281 80.0546 28.8379C80.0546 28.401 79.9688 28.0186 79.7971 27.6909C79.6255 27.3631 79.3549 27.1108 78.9856 26.9339C78.6214 26.7519 78.1506 26.6608 77.5732 26.6608H75.318V36.7896H73.812V25.4279ZM80.4526 36.7896L77.6902 31.6393L79.2587 31.6315L82.0601 36.6959V36.7896H80.4526Z" fill="white"/>
<path fill-rule="evenodd" clip-rule="evenodd" d="M38.6668 22.2602C38.8836 22.401 38.7585 22.7336 38.5 22.7336C34.3579 22.7336 31 25.8676 31 29.7336C31 33.5996 34.3579 36.7336 38.5 36.7336C38.6886 36.7336 38.8756 36.7271 39.0607 36.7144C39.556 36.6802 39.8933 37.2779 39.509 37.5922C37.8718 38.9307 35.7797 39.7336 33.5 39.7336C28.2533 39.7336 24 35.4803 24 30.2336C24 24.9869 28.2533 20.7336 33.5 20.7336C35.4053 20.7336 37.1796 21.2945 38.6668 22.2602Z" fill="white"/>
<path d="M40.8209 26.0941C40.8944 25.9461 41.1056 25.9461 41.1791 26.0941L42.1338 28.0156C42.1629 28.0742 42.2189 28.1149 42.2836 28.1244L44.406 28.4386C44.5695 28.4628 44.6348 28.6636 44.5167 28.7793L42.9843 30.281C42.9376 30.3268 42.9162 30.3926 42.9271 30.4572L43.2842 32.5728C43.3117 32.7358 43.1408 32.8599 42.9943 32.7833L41.0926 31.79C41.0346 31.7597 40.9654 31.7597 40.9074 31.79L39.0057 32.7833C38.8592 32.8599 38.6883 32.7358 38.7158 32.5728L39.0729 30.4572C39.0838 30.3926 39.0624 30.3268 39.0157 30.281L37.4833 28.7793C37.3652 28.6636 37.4305 28.4628 37.594 28.4386L39.7164 28.1244C39.7811 28.1149 39.8371 28.0742 39.8662 28.0156L40.8209 26.0941Z" fill="white"/>
<rect x="1.32409" y="0.6925" width="96.4818" height="58.6328" rx="2.66513" stroke="white" stroke-width="0.761465"/>
</svg>
