<svg width="169" height="80" viewBox="0 0 169 80" fill="none" xmlns="http://www.w3.org/2000/svg">
<rect x="0.416016" y="19.3118" width="167.605" height="60.0732" rx="3.04586" fill="url(#paint0_radial_82_138)"/>
<path d="M63.4569 43.1649H64.9323V51.2317C64.9323 52.0646 64.736 52.8082 64.3433 53.4626C63.9547 54.113 63.4054 54.6266 62.6955 55.0033C61.9856 55.3762 61.1527 55.5626 60.1969 55.5626C59.2411 55.5626 58.4083 55.3762 57.6984 55.0033C56.9884 54.6266 56.4372 54.113 56.0445 53.4626C55.6559 52.8082 55.4615 52.0646 55.4615 51.2317V43.1649H56.9369V51.1127C56.9369 51.7076 57.0678 52.2371 57.3295 52.7011C57.5913 53.1612 57.9641 53.524 58.4479 53.7898C58.9357 54.0515 59.5187 54.1824 60.1969 54.1824C60.8751 54.1824 61.4581 54.0515 61.9459 53.7898C62.4337 53.524 62.8065 53.1612 63.0643 52.7011C63.3261 52.2371 63.4569 51.7076 63.4569 51.1127V43.1649ZM58.4836 41.642C58.2338 41.642 58.0117 41.5468 57.8173 41.3565C57.627 41.1621 57.5318 40.94 57.5318 40.6902C57.5318 40.4165 57.627 40.1905 57.8173 40.012C58.0117 39.8296 58.2338 39.7384 58.4836 39.7384C58.7573 39.7384 58.9833 39.8296 59.1618 40.012C59.3442 40.1905 59.4354 40.4165 59.4354 40.6902C59.4354 40.94 59.3442 41.1621 59.1618 41.3565C58.9833 41.5468 58.7573 41.642 58.4836 41.642ZM61.9102 41.642C61.6603 41.642 61.4383 41.5468 61.2439 41.3565C61.0536 41.1621 60.9584 40.94 60.9584 40.6902C60.9584 40.4165 61.0536 40.1905 61.2439 40.012C61.4383 39.8296 61.6603 39.7384 61.9102 39.7384C62.1839 39.7384 62.4099 39.8296 62.5884 40.012C62.7708 40.1905 62.862 40.4165 62.862 40.6902C62.862 40.94 62.7708 41.1621 62.5884 41.3565C62.4099 41.5468 62.1839 41.642 61.9102 41.642ZM66.8315 43.1649H68.521L71.9 48.8521H72.0427L75.4217 43.1649H77.1112L72.709 50.3275V55.3484H71.2337V50.3275L66.8315 43.1649ZM79.0194 55.3484V43.1649H86.3723V44.4737H80.4947V48.5904H85.9915V49.8992H80.4947V54.0396H86.4675V55.3484H79.0194ZM104.023 49.2567C104.023 50.5416 103.791 51.6521 103.327 52.5881C102.863 53.524 102.226 54.2459 101.417 54.7535C100.608 55.2611 99.684 55.515 98.6449 55.515C97.6059 55.515 96.6818 55.2611 95.8727 54.7535C95.0637 54.2459 94.4271 53.524 93.9631 52.5881C93.4991 51.6521 93.2671 50.5416 93.2671 49.2567C93.2671 47.9717 93.4991 46.8612 93.9631 45.9253C94.4271 44.9893 95.0637 44.2675 95.8727 43.7598C96.6818 43.2522 97.6059 42.9984 98.6449 42.9984C99.684 42.9984 100.608 43.2522 101.417 43.7598C102.226 44.2675 102.863 44.9893 103.327 45.9253C103.791 46.8612 104.023 47.9717 104.023 49.2567ZM102.595 49.2567C102.595 48.2017 102.419 47.3114 102.066 46.5856C101.717 45.8598 101.243 45.3105 100.644 44.9377C100.049 44.5649 99.3826 44.3785 98.6449 44.3785C97.9073 44.3785 97.239 44.5649 96.6402 44.9377C96.0453 45.3105 95.5713 45.8598 95.2184 46.5856C94.8693 47.3114 94.6948 48.2017 94.6948 49.2567C94.6948 50.3116 94.8693 51.202 95.2184 51.9277C95.5713 52.6535 96.0453 53.2028 96.6402 53.5756C97.239 53.9484 97.9073 54.1348 98.6449 54.1348C99.3826 54.1348 100.049 53.9484 100.644 53.5756C101.243 53.2028 101.717 52.6535 102.066 51.9277C102.419 51.202 102.595 50.3116 102.595 49.2567ZM106.503 55.3484V43.1649H107.979V54.0396H113.642V55.3484H106.503Z" fill="black"/>
<mask id="path-3-outside-1_82_138" maskUnits="userSpaceOnUse" x="67" y="-0.656982" width="34" height="32" fill="black">
<rect fill="white" x="67" y="-0.656982" width="34" height="32"/>
<path d="M79.0953 2.02426C78.3415 2.13864 77.6269 2.55802 77.1958 3.13944C76.8154 3.65414 76.6264 4.2165 76.6218 4.83604C76.6195 5.63192 76.8776 6.28244 77.4217 6.83765C77.6914 7.11406 77.9104 7.2761 78.2654 7.45958C78.4152 7.53821 78.5121 7.60255 78.5075 7.61923C78.5005 7.63591 78.2631 8.84402 77.9772 10.3047C77.6914 11.7654 77.4517 12.9783 77.4401 12.9997C77.4286 13.0307 77.1612 12.7591 76.2598 11.8012C75.619 11.122 74.9897 10.4477 74.8606 10.3047L74.6231 10.0474L74.7707 9.81623C75.0381 9.40638 75.1234 9.08469 75.1003 8.57238C75.0703 7.90756 74.849 7.37856 74.3972 6.89246C73.897 6.35631 73.2607 6.0799 72.5254 6.08228C71.8246 6.08467 71.2114 6.34678 70.7319 6.84718C69.7913 7.83131 69.7521 9.39685 70.6443 10.3691C71.0339 10.7956 71.518 11.0506 72.145 11.1578L72.3963 11.2031L74.0168 16.3477C74.909 19.1761 75.6374 21.5042 75.6374 21.5185C75.6374 21.5304 75.5429 21.621 75.43 21.7163C74.4456 22.5407 73.8278 23.5701 73.5535 24.8474C73.4036 25.536 73.3552 26.096 73.3391 27.3374L73.3253 28.343L84.2152 28.3383L95.1052 28.3311L95.1006 27.509C95.0937 26.0745 95.0061 25.2381 94.7825 24.4304C94.4782 23.3438 93.8696 22.4144 92.9728 21.6734C92.8391 21.5638 92.7285 21.4661 92.7262 21.4589C92.7193 21.4446 96.0319 11.2054 96.0457 11.1983C96.048 11.1959 96.1495 11.1816 96.2693 11.1649C96.8387 11.0911 97.3574 10.8123 97.7608 10.3643C98.1804 9.89963 98.3948 9.33489 98.3948 8.68437C98.3948 7.32137 97.4012 6.22049 96.0503 6.08705C94.8885 5.97505 93.7889 6.71136 93.4224 7.85037C93.3348 8.12678 93.2956 8.3746 93.2956 8.68437C93.2956 9.1109 93.3901 9.52552 93.5699 9.89725L93.6437 10.0474L93.3371 10.3738C93.1688 10.5525 92.5279 11.2317 91.9124 11.8846C90.995 12.8615 90.7921 13.0665 90.7783 13.0283C90.7598 12.9831 89.7916 7.65736 89.7916 7.60493C89.7916 7.59064 89.8838 7.53345 89.9945 7.48103C90.2872 7.34282 90.6261 7.09977 90.8612 6.8591C91.5298 6.16807 91.811 5.20539 91.6128 4.27607C91.3822 3.17995 90.4924 2.30782 89.3467 2.05762C89.0401 1.98852 88.4684 1.98375 88.1895 2.04571C87.2535 2.2554 86.5089 2.83682 86.1171 3.66606C85.686 4.57393 85.7874 5.6629 86.3822 6.53979C86.5182 6.74234 86.7764 7.01637 86.94 7.13313C87.0207 7.19032 87.0484 7.22129 87.0368 7.24989C86.9954 7.36426 84.1299 12.6113 84.1184 12.597C84.1092 12.5875 83.4568 11.3746 82.6684 9.90202L81.2323 7.22129L81.3083 7.16172C81.8708 6.71851 82.2535 6.09896 82.3918 5.39602C82.4609 5.04574 82.4494 4.51674 82.3618 4.17361C82.2396 3.69942 81.9953 3.2705 81.6311 2.89401C81.2092 2.45794 80.6744 2.16485 80.0796 2.04809C79.8099 1.99567 79.3581 1.98375 79.0953 2.02426ZM79.7984 3.93055C80.0935 4.01157 80.3263 4.20697 80.46 4.48338C80.5315 4.63588 80.5361 4.65971 80.5361 4.89561C80.5361 5.12675 80.5315 5.15773 80.4646 5.3007C80.2825 5.69626 79.9344 5.92025 79.5079 5.92025C79.1668 5.92025 78.874 5.75106 78.6619 5.43176C78.5282 5.22922 78.4821 4.86702 78.5559 4.60967C78.7057 4.08544 79.2544 3.7852 79.7984 3.93055ZM89.0424 3.93055C89.6648 4.09974 89.953 4.76217 89.6648 5.36266C89.485 5.74153 89.1438 5.93693 88.6966 5.91548C88.5076 5.90833 88.4638 5.89642 88.3093 5.81778C87.7054 5.50801 87.5532 4.68592 88.0143 4.20935C88.1318 4.08782 88.3508 3.95677 88.4915 3.92102C88.6344 3.88766 88.8949 3.89243 89.0424 3.93055ZM72.7674 7.78841C73.0256 7.8599 73.2146 8.00764 73.3345 8.23639C73.4083 8.37937 73.4129 8.39843 73.4129 8.6248C73.4129 8.84164 73.406 8.875 73.346 9.00129C73.1224 9.45642 72.5668 9.63514 72.1265 9.39447C71.9606 9.30153 71.8476 9.17524 71.7577 8.97508C71.6978 8.83926 71.6862 8.78922 71.6862 8.6248C71.6862 8.37698 71.7623 8.19112 71.9352 8.01955C72.1773 7.78365 72.4654 7.70501 72.7674 7.78841ZM96.191 7.84799C96.38 7.93854 96.5736 8.13631 96.6543 8.31979C96.7996 8.64863 96.6889 9.05372 96.3823 9.30392C95.8982 9.69947 95.1767 9.47548 95.0084 8.87738C94.9554 8.68199 94.9761 8.41987 95.0591 8.26022C95.2919 7.81701 95.7668 7.64306 96.191 7.84799ZM82.0483 12.8496C83.1617 14.8727 84.0861 16.5502 84.1023 16.5764C84.1299 16.6193 84.3144 16.2905 86.1839 12.8925C87.6823 10.1689 88.2471 9.16095 88.2771 9.16095C88.2978 9.16095 88.3163 9.16809 88.3186 9.17763C88.3255 9.31107 89.6026 16.7504 89.6164 16.7456C89.6256 16.7456 90.4647 15.9211 91.4791 14.9156C93.1365 13.2714 93.3256 13.0903 93.3578 13.1237C93.3901 13.157 93.2587 13.5454 92.0554 16.9648C91.3177 19.0594 90.7114 20.775 90.7091 20.7774C90.7045 20.7822 90.6146 20.7679 90.5062 20.7512C89.4527 20.5725 87.71 20.3699 86.426 20.277C84.0147 20.1031 81.4812 20.1555 79.4987 20.4224C79.0561 20.4819 78.247 20.6154 77.9588 20.6773C77.8182 20.7083 77.8021 20.7083 77.7836 20.6726C77.7744 20.6511 77.1197 18.9569 76.329 16.91C74.9274 13.2714 74.8951 13.1832 74.9366 13.1403C74.9804 13.0974 75.0288 13.1475 76.8131 14.9656C78.4498 16.636 78.6458 16.829 78.6619 16.7814C78.6711 16.7504 78.9593 15.0371 79.3028 12.9735C79.6462 10.91 79.9321 9.20622 79.939 9.18954C79.9436 9.17048 79.9667 9.16095 79.9874 9.16571C80.0128 9.17048 80.7574 10.5025 82.0483 12.8496ZM86.6104 22.7457C87.7837 22.8172 88.4477 22.9458 89.8608 23.3795C91.2762 23.8132 92.0369 24.3255 92.3251 25.0404C92.3942 25.2119 92.4657 25.5551 92.4657 25.7123V25.7934L84.2198 25.7886L75.974 25.7814L75.9809 25.6385C75.9947 25.3025 76.1077 24.9308 76.2875 24.6448C76.4143 24.4423 76.714 24.142 76.9537 23.9752C77.6799 23.4772 79.0261 23.0721 80.5591 22.8886C81.5319 22.7719 82.099 22.7409 83.6366 22.7195C85.0659 22.7004 86.0064 22.7075 86.6104 22.7457Z"/>
</mask>
<path d="M79.0953 2.02426C78.3415 2.13864 77.6269 2.55802 77.1958 3.13944C76.8154 3.65414 76.6264 4.2165 76.6218 4.83604C76.6195 5.63192 76.8776 6.28244 77.4217 6.83765C77.6914 7.11406 77.9104 7.2761 78.2654 7.45958C78.4152 7.53821 78.5121 7.60255 78.5075 7.61923C78.5005 7.63591 78.2631 8.84402 77.9772 10.3047C77.6914 11.7654 77.4517 12.9783 77.4401 12.9997C77.4286 13.0307 77.1612 12.7591 76.2598 11.8012C75.619 11.122 74.9897 10.4477 74.8606 10.3047L74.6231 10.0474L74.7707 9.81623C75.0381 9.40638 75.1234 9.08469 75.1003 8.57238C75.0703 7.90756 74.849 7.37856 74.3972 6.89246C73.897 6.35631 73.2607 6.0799 72.5254 6.08228C71.8246 6.08467 71.2114 6.34678 70.7319 6.84718C69.7913 7.83131 69.7521 9.39685 70.6443 10.3691C71.0339 10.7956 71.518 11.0506 72.145 11.1578L72.3963 11.2031L74.0168 16.3477C74.909 19.1761 75.6374 21.5042 75.6374 21.5185C75.6374 21.5304 75.5429 21.621 75.43 21.7163C74.4456 22.5407 73.8278 23.5701 73.5535 24.8474C73.4036 25.536 73.3552 26.096 73.3391 27.3374L73.3253 28.343L84.2152 28.3383L95.1052 28.3311L95.1006 27.509C95.0937 26.0745 95.0061 25.2381 94.7825 24.4304C94.4782 23.3438 93.8696 22.4144 92.9728 21.6734C92.8391 21.5638 92.7285 21.4661 92.7262 21.4589C92.7193 21.4446 96.0319 11.2054 96.0457 11.1983C96.048 11.1959 96.1495 11.1816 96.2693 11.1649C96.8387 11.0911 97.3574 10.8123 97.7608 10.3643C98.1804 9.89963 98.3948 9.33489 98.3948 8.68437C98.3948 7.32137 97.4012 6.22049 96.0503 6.08705C94.8885 5.97505 93.7889 6.71136 93.4224 7.85037C93.3348 8.12678 93.2956 8.3746 93.2956 8.68437C93.2956 9.1109 93.3901 9.52552 93.5699 9.89725L93.6437 10.0474L93.3371 10.3738C93.1688 10.5525 92.5279 11.2317 91.9124 11.8846C90.995 12.8615 90.7921 13.0665 90.7783 13.0283C90.7598 12.9831 89.7916 7.65736 89.7916 7.60493C89.7916 7.59064 89.8838 7.53345 89.9945 7.48103C90.2872 7.34282 90.6261 7.09977 90.8612 6.8591C91.5298 6.16807 91.811 5.20539 91.6128 4.27607C91.3822 3.17995 90.4924 2.30782 89.3467 2.05762C89.0401 1.98852 88.4684 1.98375 88.1895 2.04571C87.2535 2.2554 86.5089 2.83682 86.1171 3.66606C85.686 4.57393 85.7874 5.6629 86.3822 6.53979C86.5182 6.74234 86.7764 7.01637 86.94 7.13313C87.0207 7.19032 87.0484 7.22129 87.0368 7.24989C86.9954 7.36426 84.1299 12.6113 84.1184 12.597C84.1092 12.5875 83.4568 11.3746 82.6684 9.90202L81.2323 7.22129L81.3083 7.16172C81.8708 6.71851 82.2535 6.09896 82.3918 5.39602C82.4609 5.04574 82.4494 4.51674 82.3618 4.17361C82.2396 3.69942 81.9953 3.2705 81.6311 2.89401C81.2092 2.45794 80.6744 2.16485 80.0796 2.04809C79.8099 1.99567 79.3581 1.98375 79.0953 2.02426ZM79.7984 3.93055C80.0935 4.01157 80.3263 4.20697 80.46 4.48338C80.5315 4.63588 80.5361 4.65971 80.5361 4.89561C80.5361 5.12675 80.5315 5.15773 80.4646 5.3007C80.2825 5.69626 79.9344 5.92025 79.5079 5.92025C79.1668 5.92025 78.874 5.75106 78.6619 5.43176C78.5282 5.22922 78.4821 4.86702 78.5559 4.60967C78.7057 4.08544 79.2544 3.7852 79.7984 3.93055ZM89.0424 3.93055C89.6648 4.09974 89.953 4.76217 89.6648 5.36266C89.485 5.74153 89.1438 5.93693 88.6966 5.91548C88.5076 5.90833 88.4638 5.89642 88.3093 5.81778C87.7054 5.50801 87.5532 4.68592 88.0143 4.20935C88.1318 4.08782 88.3508 3.95677 88.4915 3.92102C88.6344 3.88766 88.8949 3.89243 89.0424 3.93055ZM72.7674 7.78841C73.0256 7.8599 73.2146 8.00764 73.3345 8.23639C73.4083 8.37937 73.4129 8.39843 73.4129 8.6248C73.4129 8.84164 73.406 8.875 73.346 9.00129C73.1224 9.45642 72.5668 9.63514 72.1265 9.39447C71.9606 9.30153 71.8476 9.17524 71.7577 8.97508C71.6978 8.83926 71.6862 8.78922 71.6862 8.6248C71.6862 8.37698 71.7623 8.19112 71.9352 8.01955C72.1773 7.78365 72.4654 7.70501 72.7674 7.78841ZM96.191 7.84799C96.38 7.93854 96.5736 8.13631 96.6543 8.31979C96.7996 8.64863 96.6889 9.05372 96.3823 9.30392C95.8982 9.69947 95.1767 9.47548 95.0084 8.87738C94.9554 8.68199 94.9761 8.41987 95.0591 8.26022C95.2919 7.81701 95.7668 7.64306 96.191 7.84799ZM82.0483 12.8496C83.1617 14.8727 84.0861 16.5502 84.1023 16.5764C84.1299 16.6193 84.3144 16.2905 86.1839 12.8925C87.6823 10.1689 88.2471 9.16095 88.2771 9.16095C88.2978 9.16095 88.3163 9.16809 88.3186 9.17763C88.3255 9.31107 89.6026 16.7504 89.6164 16.7456C89.6256 16.7456 90.4647 15.9211 91.4791 14.9156C93.1365 13.2714 93.3256 13.0903 93.3578 13.1237C93.3901 13.157 93.2587 13.5454 92.0554 16.9648C91.3177 19.0594 90.7114 20.775 90.7091 20.7774C90.7045 20.7822 90.6146 20.7679 90.5062 20.7512C89.4527 20.5725 87.71 20.3699 86.426 20.277C84.0147 20.1031 81.4812 20.1555 79.4987 20.4224C79.0561 20.4819 78.247 20.6154 77.9588 20.6773C77.8182 20.7083 77.8021 20.7083 77.7836 20.6726C77.7744 20.6511 77.1197 18.9569 76.329 16.91C74.9274 13.2714 74.8951 13.1832 74.9366 13.1403C74.9804 13.0974 75.0288 13.1475 76.8131 14.9656C78.4498 16.636 78.6458 16.829 78.6619 16.7814C78.6711 16.7504 78.9593 15.0371 79.3028 12.9735C79.6462 10.91 79.9321 9.20622 79.939 9.18954C79.9436 9.17048 79.9667 9.16095 79.9874 9.16571C80.0128 9.17048 80.7574 10.5025 82.0483 12.8496ZM86.6104 22.7457C87.7837 22.8172 88.4477 22.9458 89.8608 23.3795C91.2762 23.8132 92.0369 24.3255 92.3251 25.0404C92.3942 25.2119 92.4657 25.5551 92.4657 25.7123V25.7934L84.2198 25.7886L75.974 25.7814L75.9809 25.6385C75.9947 25.3025 76.1077 24.9308 76.2875 24.6448C76.4143 24.4423 76.714 24.142 76.9537 23.9752C77.6799 23.4772 79.0261 23.0721 80.5591 22.8886C81.5319 22.7719 82.099 22.7409 83.6366 22.7195C85.0659 22.7004 86.0064 22.7075 86.6104 22.7457Z" fill="url(#paint1_linear_82_138)"/>
<path d="M79.0953 2.02426C78.3415 2.13864 77.6269 2.55802 77.1958 3.13944C76.8154 3.65414 76.6264 4.2165 76.6218 4.83604C76.6195 5.63192 76.8776 6.28244 77.4217 6.83765C77.6914 7.11406 77.9104 7.2761 78.2654 7.45958C78.4152 7.53821 78.5121 7.60255 78.5075 7.61923C78.5005 7.63591 78.2631 8.84402 77.9772 10.3047C77.6914 11.7654 77.4517 12.9783 77.4401 12.9997C77.4286 13.0307 77.1612 12.7591 76.2598 11.8012C75.619 11.122 74.9897 10.4477 74.8606 10.3047L74.6231 10.0474L74.7707 9.81623C75.0381 9.40638 75.1234 9.08469 75.1003 8.57238C75.0703 7.90756 74.849 7.37856 74.3972 6.89246C73.897 6.35631 73.2607 6.0799 72.5254 6.08228C71.8246 6.08467 71.2114 6.34678 70.7319 6.84718C69.7913 7.83131 69.7521 9.39685 70.6443 10.3691C71.0339 10.7956 71.518 11.0506 72.145 11.1578L72.3963 11.2031L74.0168 16.3477C74.909 19.1761 75.6374 21.5042 75.6374 21.5185C75.6374 21.5304 75.5429 21.621 75.43 21.7163C74.4456 22.5407 73.8278 23.5701 73.5535 24.8474C73.4036 25.536 73.3552 26.096 73.3391 27.3374L73.3253 28.343L84.2152 28.3383L95.1052 28.3311L95.1006 27.509C95.0937 26.0745 95.0061 25.2381 94.7825 24.4304C94.4782 23.3438 93.8696 22.4144 92.9728 21.6734C92.8391 21.5638 92.7285 21.4661 92.7262 21.4589C92.7193 21.4446 96.0319 11.2054 96.0457 11.1983C96.048 11.1959 96.1495 11.1816 96.2693 11.1649C96.8387 11.0911 97.3574 10.8123 97.7608 10.3643C98.1804 9.89963 98.3948 9.33489 98.3948 8.68437C98.3948 7.32137 97.4012 6.22049 96.0503 6.08705C94.8885 5.97505 93.7889 6.71136 93.4224 7.85037C93.3348 8.12678 93.2956 8.3746 93.2956 8.68437C93.2956 9.1109 93.3901 9.52552 93.5699 9.89725L93.6437 10.0474L93.3371 10.3738C93.1688 10.5525 92.5279 11.2317 91.9124 11.8846C90.995 12.8615 90.7921 13.0665 90.7783 13.0283C90.7598 12.9831 89.7916 7.65736 89.7916 7.60493C89.7916 7.59064 89.8838 7.53345 89.9945 7.48103C90.2872 7.34282 90.6261 7.09977 90.8612 6.8591C91.5298 6.16807 91.811 5.20539 91.6128 4.27607C91.3822 3.17995 90.4924 2.30782 89.3467 2.05762C89.0401 1.98852 88.4684 1.98375 88.1895 2.04571C87.2535 2.2554 86.5089 2.83682 86.1171 3.66606C85.686 4.57393 85.7874 5.6629 86.3822 6.53979C86.5182 6.74234 86.7764 7.01637 86.94 7.13313C87.0207 7.19032 87.0484 7.22129 87.0368 7.24989C86.9954 7.36426 84.1299 12.6113 84.1184 12.597C84.1092 12.5875 83.4568 11.3746 82.6684 9.90202L81.2323 7.22129L81.3083 7.16172C81.8708 6.71851 82.2535 6.09896 82.3918 5.39602C82.4609 5.04574 82.4494 4.51674 82.3618 4.17361C82.2396 3.69942 81.9953 3.2705 81.6311 2.89401C81.2092 2.45794 80.6744 2.16485 80.0796 2.04809C79.8099 1.99567 79.3581 1.98375 79.0953 2.02426ZM79.7984 3.93055C80.0935 4.01157 80.3263 4.20697 80.46 4.48338C80.5315 4.63588 80.5361 4.65971 80.5361 4.89561C80.5361 5.12675 80.5315 5.15773 80.4646 5.3007C80.2825 5.69626 79.9344 5.92025 79.5079 5.92025C79.1668 5.92025 78.874 5.75106 78.6619 5.43176C78.5282 5.22922 78.4821 4.86702 78.5559 4.60967C78.7057 4.08544 79.2544 3.7852 79.7984 3.93055ZM89.0424 3.93055C89.6648 4.09974 89.953 4.76217 89.6648 5.36266C89.485 5.74153 89.1438 5.93693 88.6966 5.91548C88.5076 5.90833 88.4638 5.89642 88.3093 5.81778C87.7054 5.50801 87.5532 4.68592 88.0143 4.20935C88.1318 4.08782 88.3508 3.95677 88.4915 3.92102C88.6344 3.88766 88.8949 3.89243 89.0424 3.93055ZM72.7674 7.78841C73.0256 7.8599 73.2146 8.00764 73.3345 8.23639C73.4083 8.37937 73.4129 8.39843 73.4129 8.6248C73.4129 8.84164 73.406 8.875 73.346 9.00129C73.1224 9.45642 72.5668 9.63514 72.1265 9.39447C71.9606 9.30153 71.8476 9.17524 71.7577 8.97508C71.6978 8.83926 71.6862 8.78922 71.6862 8.6248C71.6862 8.37698 71.7623 8.19112 71.9352 8.01955C72.1773 7.78365 72.4654 7.70501 72.7674 7.78841ZM96.191 7.84799C96.38 7.93854 96.5736 8.13631 96.6543 8.31979C96.7996 8.64863 96.6889 9.05372 96.3823 9.30392C95.8982 9.69947 95.1767 9.47548 95.0084 8.87738C94.9554 8.68199 94.9761 8.41987 95.0591 8.26022C95.2919 7.81701 95.7668 7.64306 96.191 7.84799ZM82.0483 12.8496C83.1617 14.8727 84.0861 16.5502 84.1023 16.5764C84.1299 16.6193 84.3144 16.2905 86.1839 12.8925C87.6823 10.1689 88.2471 9.16095 88.2771 9.16095C88.2978 9.16095 88.3163 9.16809 88.3186 9.17763C88.3255 9.31107 89.6026 16.7504 89.6164 16.7456C89.6256 16.7456 90.4647 15.9211 91.4791 14.9156C93.1365 13.2714 93.3256 13.0903 93.3578 13.1237C93.3901 13.157 93.2587 13.5454 92.0554 16.9648C91.3177 19.0594 90.7114 20.775 90.7091 20.7774C90.7045 20.7822 90.6146 20.7679 90.5062 20.7512C89.4527 20.5725 87.71 20.3699 86.426 20.277C84.0147 20.1031 81.4812 20.1555 79.4987 20.4224C79.0561 20.4819 78.247 20.6154 77.9588 20.6773C77.8182 20.7083 77.8021 20.7083 77.7836 20.6726C77.7744 20.6511 77.1197 18.9569 76.329 16.91C74.9274 13.2714 74.8951 13.1832 74.9366 13.1403C74.9804 13.0974 75.0288 13.1475 76.8131 14.9656C78.4498 16.636 78.6458 16.829 78.6619 16.7814C78.6711 16.7504 78.9593 15.0371 79.3028 12.9735C79.6462 10.91 79.9321 9.20622 79.939 9.18954C79.9436 9.17048 79.9667 9.16095 79.9874 9.16571C80.0128 9.17048 80.7574 10.5025 82.0483 12.8496ZM86.6104 22.7457C87.7837 22.8172 88.4477 22.9458 89.8608 23.3795C91.2762 23.8132 92.0369 24.3255 92.3251 25.0404C92.3942 25.2119 92.4657 25.5551 92.4657 25.7123V25.7934L84.2198 25.7886L75.974 25.7814L75.9809 25.6385C75.9947 25.3025 76.1077 24.9308 76.2875 24.6448C76.4143 24.4423 76.714 24.142 76.9537 23.9752C77.6799 23.4772 79.0261 23.0721 80.5591 22.8886C81.5319 22.7719 82.099 22.7409 83.6366 22.7195C85.0659 22.7004 86.0064 22.7075 86.6104 22.7457Z" stroke="#1C2425" stroke-width="4" mask="url(#path-3-outside-1_82_138)"/>
<defs>
<radialGradient id="paint0_radial_82_138" cx="0" cy="0" r="1" gradientUnits="userSpaceOnUse" gradientTransform="translate(84.2186 28.5001) rotate(90) scale(30.5 85.0954)">
<stop stop-color="#FFE49D"/>
<stop offset="1" stop-color="#FFB800"/>
</radialGradient>
<linearGradient id="paint1_linear_82_138" x1="84.1974" y1="28.343" x2="84.1974" y2="2.00005" gradientUnits="userSpaceOnUse">
<stop stop-color="#FFDA7B"/>
<stop offset="1" stop-color="#FFB800"/>
</linearGradient>
</defs>
</svg>
